<svg xmlns="http://www.w3.org/2000/svg" viewBox="0 0 217 228" width="217" height="228" fill="none">
<ellipse cx="130.98" cy="125.32" rx="49.06" ry="50.94" fill="#0A0A0F"></ellipse>
<circle cx="79.00" cy="27.00" r="12.00" fill="#f5b6b6"></circle>
<circle cx="105.00" cy="27.00" r="12.00" fill="#f1e4e4"></circle>
<circle cx="131.00" cy="27.00" r="12.00" fill="#f3cfcf"></circle>
<circle cx="157.00" cy="27.00" r="12.00" fill="#fc5252"></circle>
<circle cx="40.00" cy="49.52" r="12.00" fill="#f79090"></circle>
<circle cx="66.00" cy="49.52" r="12.00" fill="#f0f0f0"></circle>
<circle cx="92.00" cy="49.52" r="12.00" fill="#f0f0f0"></circle>
<circle cx="118.00" cy="49.52" r="12.00" fill="#f1e7e7"></circle>
<circle cx="144.00" cy="49.52" r="12.00" fill="#f0f0f0"></circle>
<circle cx="170.00" cy="49.52" r="12.00" fill="#f2d0d0"></circle>
<circle cx="27.00" cy="72.03" r="12.00" fill="#f6a8a8"></circle>
<circle cx="53.00" cy="72.03" r="12.00" fill="#f0f0f0"></circle>
<circle cx="79.00" cy="72.03" r="12.00" fill="#f3c3c3"></circle>
<circle cx="105.00" cy="72.03" r="12.00" fill="#fd4949"></circle>
<circle cx="131.00" cy="72.03" r="12.00" fill="#fe3636"></circle>
<circle cx="157.00" cy="72.03" r="12.00" fill="#fa6f6f"></circle>
<circle cx="183.00" cy="72.03" r="12.00" fill="#f2dddd"></circle>
<circle cx="40.00" cy="94.55" r="12.00" fill="#f0f0f0"></circle>
<circle cx="66.00" cy="94.55" r="12.00" fill="#f5b3b3"></circle>
<circle cx="92.00" cy="94.55" r="12.00" fill="#ff2d2d"></circle>
<circle cx="170.00" cy="94.55" r="12.00" fill="#fe3c3c"></circle>
<circle cx="196.00" cy="94.55" r="12.00" fill="#f5b1b1"></circle>
<circle cx="27.00" cy="117.06" r="12.00" fill="#f0f0f0"></circle>
<circle cx="53.00" cy="117.06" r="12.00" fill="#f0efef"></circle>
<circle cx="79.00" cy="117.06" r="12.00" fill="#ff2f2f"></circle>
<circle cx="183.00" cy="117.06" r="12.00" fill="#fb6666"></circle>
<circle cx="40.00" cy="139.58" r="12.00" fill="#f0f0f0"></circle>
<circle cx="66.00" cy="139.58" r="12.00" fill="#f79797"></circle>
<circle cx="196.00" cy="139.58" r="12.00" fill="#f88585"></circle>
<circle cx="27.00" cy="162.10" r="12.00" fill="#fb6060"></circle>
<circle cx="53.00" cy="162.10" r="12.00" fill="#f0f0f0"></circle>
<circle cx="79.00" cy="162.10" r="12.00" fill="#f79393"></circle>
<circle cx="183.00" cy="162.10" r="12.00" fill="#f79090"></circle>
<circle cx="66.00" cy="184.61" r="12.00" fill="#f1e4e4"></circle>
<circle cx="92.00" cy="184.61" r="12.00" fill="#f1e7e7"></circle>
<circle cx="118.00" cy="184.61" r="12.00" fill="#f5abab"></circle>
<circle cx="144.00" cy="184.61" r="12.00" fill="#f5afaf"></circle>
<circle cx="170.00" cy="184.61" r="12.00" fill="#fb6363"></circle>
<circle cx="105.00" cy="207.13" r="12.00" fill="#fb6464"></circle>
<circle cx="131.00" cy="207.13" r="12.00" fill="#fd4444"></circle>
</svg>