<svg xmlns="http://www.w3.org/2000/svg" viewBox="0 0 799 219" width="799" height="219" fill="none">
<circle cx="63.80" cy="17.00" r="7.20" fill="#fd4a4a"></circle>
<circle cx="79.40" cy="17.00" r="7.20" fill="#f88888"></circle>
<circle cx="95.00" cy="17.00" r="7.20" fill="#f5abab"></circle>
<circle cx="110.60" cy="17.00" r="7.20" fill="#f5abab"></circle>
<circle cx="126.20" cy="17.00" r="7.20" fill="#f88787"></circle>
<circle cx="141.80" cy="17.00" r="7.20" fill="#fd4444"></circle>
<circle cx="297.80" cy="17.00" r="7.20" fill="#f98080"></circle>
<circle cx="313.40" cy="17.00" r="7.20" fill="#f88d8d"></circle>
<circle cx="329.00" cy="17.00" r="7.20" fill="#fc5353"></circle>
<circle cx="422.60" cy="17.00" r="7.20" fill="#fe4141"></circle>
<circle cx="438.20" cy="17.00" r="7.20" fill="#f88686"></circle>
<circle cx="453.80" cy="17.00" r="7.20" fill="#f88a8a"></circle>
<circle cx="469.40" cy="17.00" r="7.20" fill="#fd4949"></circle>
<circle cx="547.40" cy="17.00" r="7.20" fill="#fb5e5e"></circle>
<circle cx="563.00" cy="17.00" r="7.20" fill="#f88f8f"></circle>
<circle cx="578.60" cy="17.00" r="7.20" fill="#f97a7a"></circle>
<circle cx="687.80" cy="17.00" r="7.20" fill="#fc5656"></circle>
<circle cx="703.40" cy="17.00" r="7.20" fill="#fc4e4e"></circle>
<circle cx="765.80" cy="17.00" r="7.20" fill="#fb6161"></circle>
<circle cx="40.40" cy="30.51" r="7.20" fill="#fd4848"></circle>
<circle cx="56.00" cy="30.51" r="7.20" fill="#f4bebe"></circle>
<circle cx="71.60" cy="30.51" r="7.20" fill="#f0f0f0"></circle>
<circle cx="87.20" cy="30.51" r="7.20" fill="#f0f0f0"></circle>
<circle cx="102.80" cy="30.51" r="7.20" fill="#f0f0f0"></circle>
<circle cx="118.40" cy="30.51" r="7.20" fill="#f0f0f0"></circle>
<circle cx="134.00" cy="30.51" r="7.20" fill="#f0f0f0"></circle>
<circle cx="149.60" cy="30.51" r="7.20" fill="#f5b4b4"></circle>
<circle cx="165.20" cy="30.51" r="7.20" fill="#fd4444"></circle>
<circle cx="274.40" cy="30.51" r="7.20" fill="#fa6e6e"></circle>
<circle cx="290.00" cy="30.51" r="7.20" fill="#f1e9e9"></circle>
<circle cx="305.60" cy="30.51" r="7.20" fill="#f0f0f0"></circle>
<circle cx="321.20" cy="30.51" r="7.20" fill="#f0f0f0"></circle>
<circle cx="336.80" cy="30.51" r="7.20" fill="#f79b9b"></circle>
<circle cx="414.80" cy="30.51" r="7.20" fill="#f88282"></circle>
<circle cx="430.40" cy="30.51" r="7.20" fill="#f0ecec"></circle>
<circle cx="446.00" cy="30.51" r="7.20" fill="#f0f0f0"></circle>
<circle cx="461.60" cy="30.51" r="7.20" fill="#f0efef"></circle>
<circle cx="477.20" cy="30.51" r="7.20" fill="#f88888"></circle>
<circle cx="539.60" cy="30.51" r="7.20" fill="#f5b2b2"></circle>
<circle cx="555.20" cy="30.51" r="7.20" fill="#f0f0f0"></circle>
<circle cx="570.80" cy="30.51" r="7.20" fill="#f0f0f0"></circle>
<circle cx="586.40" cy="30.51" r="7.20" fill="#f1e3e3"></circle>
<circle cx="602.00" cy="30.51" r="7.20" fill="#fa6969"></circle>
<circle cx="680.00" cy="30.51" r="7.20" fill="#fa7171"></circle>
<circle cx="695.60" cy="30.51" r="7.20" fill="#f1e3e3"></circle>
<circle cx="711.20" cy="30.51" r="7.20" fill="#fb5f5f"></circle>
<circle cx="758.00" cy="30.51" r="7.20" fill="#f4baba"></circle>
<circle cx="773.60" cy="30.51" r="7.20" fill="#f3c4c4"></circle>
<circle cx="32.60" cy="44.02" r="7.20" fill="#f97f7f"></circle>
<circle cx="48.20" cy="44.02" r="7.20" fill="#f0eeee"></circle>
<circle cx="63.80" cy="44.02" r="7.20" fill="#f0f0f0"></circle>
<circle cx="79.40" cy="44.02" r="7.20" fill="#f0f0f0"></circle>
<circle cx="95.00" cy="44.02" r="7.20" fill="#f0f0f0"></circle>
<circle cx="110.60" cy="44.02" r="7.20" fill="#f0eeee"></circle>
<circle cx="126.20" cy="44.02" r="7.20" fill="#f0ecec"></circle>
<circle cx="141.80" cy="44.02" r="7.20" fill="#f0f0f0"></circle>
<circle cx="157.40" cy="44.02" r="7.20" fill="#f1e9e9"></circle>
<circle cx="173.00" cy="44.02" r="7.20" fill="#fa7070"></circle>
<circle cx="266.60" cy="44.02" r="7.20" fill="#fb6565"></circle>
<circle cx="282.20" cy="44.02" r="7.20" fill="#f0efef"></circle>
<circle cx="297.80" cy="44.02" r="7.20" fill="#f3c9c9"></circle>
<circle cx="313.40" cy="44.02" r="7.20" fill="#f4baba"></circle>
<circle cx="329.00" cy="44.02" r="7.20" fill="#f0f0f0"></circle>
<circle cx="344.60" cy="44.02" r="7.20" fill="#fa7171"></circle>
<circle cx="407.00" cy="44.02" r="7.20" fill="#f97c7c"></circle>
<circle cx="422.60" cy="44.02" r="7.20" fill="#f0f0f0"></circle>
<circle cx="438.20" cy="44.02" r="7.20" fill="#f4c2c2"></circle>
<circle cx="453.80" cy="44.02" r="7.20" fill="#f3caca"></circle>
<circle cx="469.40" cy="44.02" r="7.20" fill="#f0f0f0"></circle>
<circle cx="485.00" cy="44.02" r="7.20" fill="#fa6c6c"></circle>
<circle cx="531.80" cy="44.02" r="7.20" fill="#f69d9d"></circle>
<circle cx="547.40" cy="44.02" r="7.20" fill="#f0f0f0"></circle>
<circle cx="563.00" cy="44.02" r="7.20" fill="#f5a9a9"></circle>
<circle cx="578.60" cy="44.02" r="7.20" fill="#f3cbcb"></circle>
<circle cx="594.20" cy="44.02" r="7.20" fill="#f0eeee"></circle>
<circle cx="609.80" cy="44.02" r="7.20" fill="#fc5959"></circle>
<circle cx="687.80" cy="44.02" r="7.20" fill="#f2d5d5"></circle>
<circle cx="703.40" cy="44.02" r="7.20" fill="#f3c5c5"></circle>
<circle cx="750.20" cy="44.02" r="7.20" fill="#fb6363"></circle>
<circle cx="765.80" cy="44.02" r="7.20" fill="#f0f0f0"></circle>
<circle cx="781.40" cy="44.02" r="7.20" fill="#fa6969"></circle>
<circle cx="24.80" cy="57.53" r="7.20" fill="#f79b9b"></circle>
<circle cx="40.40" cy="57.53" r="7.20" fill="#f0f0f0"></circle>
<circle cx="56.00" cy="57.53" r="7.20" fill="#f0f0f0"></circle>
<circle cx="71.60" cy="57.53" r="7.20" fill="#f0f0f0"></circle>
<circle cx="87.20" cy="57.53" r="7.20" fill="#f4bfbf"></circle>
<circle cx="102.80" cy="57.53" r="7.20" fill="#f88b8b"></circle>
<circle cx="118.40" cy="57.53" r="7.20" fill="#f97676"></circle>
<circle cx="134.00" cy="57.53" r="7.20" fill="#f88888"></circle>
<circle cx="149.60" cy="57.53" r="7.20" fill="#f4c2c2"></circle>
<circle cx="165.20" cy="57.53" r="7.20" fill="#f0ebeb"></circle>
<circle cx="180.80" cy="57.53" r="7.20" fill="#f88888"></circle>
<circle cx="258.80" cy="57.53" r="7.20" fill="#fd4a4a"></circle>
<circle cx="274.40" cy="57.53" r="7.20" fill="#f1e6e6"></circle>
<circle cx="290.00" cy="57.53" r="7.20" fill="#f4baba"></circle>
<circle cx="305.60" cy="57.53" r="7.20" fill="#fd4242"></circle>
<circle cx="321.20" cy="57.53" r="7.20" fill="#f3c4c4"></circle>
<circle cx="336.80" cy="57.53" r="7.20" fill="#f1dede"></circle>
<circle cx="399.20" cy="57.53" r="7.20" fill="#fc5555"></circle>
<circle cx="414.80" cy="57.53" r="7.20" fill="#f0eeee"></circle>
<circle cx="430.40" cy="57.53" r="7.20" fill="#f5aeae"></circle>
<circle cx="446.00" cy="57.53" r="7.20" fill="#fc4f4f"></circle>
<circle cx="461.60" cy="57.53" r="7.20" fill="#f2dbdb"></circle>
<circle cx="477.20" cy="57.53" r="7.20" fill="#f2d4d4"></circle>
<circle cx="524.00" cy="57.53" r="7.20" fill="#fd4d4d"></circle>
<circle cx="539.60" cy="57.53" r="7.20" fill="#f0ebeb"></circle>
<circle cx="555.20" cy="57.53" r="7.20" fill="#f79898"></circle>
<circle cx="586.40" cy="57.53" r="7.20" fill="#f4baba"></circle>
<circle cx="602.00" cy="57.53" r="7.20" fill="#f1e9e9"></circle>
<circle cx="617.60" cy="57.53" r="7.20" fill="#fd4848"></circle>
<circle cx="680.00" cy="57.53" r="7.20" fill="#f97d7d"></circle>
<circle cx="695.60" cy="57.53" r="7.20" fill="#f0f0f0"></circle>
<circle cx="711.20" cy="57.53" r="7.20" fill="#fb6666"></circle>
<circle cx="758.00" cy="57.53" r="7.20" fill="#f3cdcd"></circle>
<circle cx="773.60" cy="57.53" r="7.20" fill="#f2d5d5"></circle>
<circle cx="17.00" cy="71.04" r="7.20" fill="#f79090"></circle>
<circle cx="32.60" cy="71.04" r="7.20" fill="#f0f0f0"></circle>
<circle cx="48.20" cy="71.04" r="7.20" fill="#f0f0f0"></circle>
<circle cx="63.80" cy="71.04" r="7.20" fill="#f1e1e1"></circle>
<circle cx="79.40" cy="71.04" r="7.20" fill="#f97d7d"></circle>
<circle cx="95.00" cy="71.04" r="7.20" fill="#fe3f3f"></circle>
<circle cx="110.60" cy="71.04" r="7.20" fill="#ff2d2d"></circle>
<circle cx="126.20" cy="71.04" r="7.20" fill="#ff2d2d"></circle>
<circle cx="141.80" cy="71.04" r="7.20" fill="#fe3939"></circle>
<circle cx="157.40" cy="71.04" r="7.20" fill="#f97979"></circle>
<circle cx="173.00" cy="71.04" r="7.20" fill="#f2d8d8"></circle>
<circle cx="188.60" cy="71.04" r="7.20" fill="#f88585"></circle>
<circle cx="266.60" cy="71.04" r="7.20" fill="#f2d5d5"></circle>
<circle cx="282.20" cy="71.04" r="7.20" fill="#f2d3d3"></circle>
<circle cx="313.40" cy="71.04" r="7.20" fill="#fc4f4f"></circle>
<circle cx="329.00" cy="71.04" r="7.20" fill="#f0f0f0"></circle>
<circle cx="344.60" cy="71.04" r="7.20" fill="#f98181"></circle>
<circle cx="391.40" cy="71.04" r="7.20" fill="#fe3e3e"></circle>
<circle cx="407.00" cy="71.04" r="7.20" fill="#f1e3e3"></circle>
<circle cx="422.60" cy="71.04" r="7.20" fill="#f4c0c0"></circle>
<circle cx="453.80" cy="71.04" r="7.20" fill="#fa7474"></circle>
<circle cx="469.40" cy="71.04" r="7.20" fill="#f0f0f0"></circle>
<circle cx="485.00" cy="71.04" r="7.20" fill="#f98080"></circle>
<circle cx="531.80" cy="71.04" r="7.20" fill="#f5afaf"></circle>
<circle cx="547.40" cy="71.04" r="7.20" fill="#f1e1e1"></circle>
<circle cx="594.20" cy="71.04" r="7.20" fill="#f3c7c7"></circle>
<circle cx="609.80" cy="71.04" r="7.20" fill="#f2dada"></circle>
<circle cx="625.40" cy="71.04" r="7.20" fill="#fe3c3c"></circle>
<circle cx="687.80" cy="71.04" r="7.20" fill="#f2d4d4"></circle>
<circle cx="703.40" cy="71.04" r="7.20" fill="#f3c4c4"></circle>
<circle cx="750.20" cy="71.04" r="7.20" fill="#fb6464"></circle>
<circle cx="765.80" cy="71.04" r="7.20" fill="#f0f0f0"></circle>
<circle cx="781.40" cy="71.04" r="7.20" fill="#fa6a6a"></circle>
<circle cx="24.80" cy="84.55" r="7.20" fill="#f0f0f0"></circle>
<circle cx="40.40" cy="84.55" r="7.20" fill="#f0f0f0"></circle>
<circle cx="56.00" cy="84.55" r="7.20" fill="#f2dbdb"></circle>
<circle cx="71.60" cy="84.55" r="7.20" fill="#fb6565"></circle>
<circle cx="87.20" cy="84.55" r="7.20" fill="#ff2d2d"></circle>
<circle cx="165.20" cy="84.55" r="7.20" fill="#fb5b5b"></circle>
<circle cx="180.80" cy="84.55" r="7.20" fill="#f3caca"></circle>
<circle cx="196.40" cy="84.55" r="7.20" fill="#fb5e5e"></circle>
<circle cx="258.80" cy="84.55" r="7.20" fill="#f4bdbd"></circle>
<circle cx="274.40" cy="84.55" r="7.20" fill="#f1e1e1"></circle>
<circle cx="290.00" cy="84.55" r="7.20" fill="#fe3f3f"></circle>
<circle cx="321.20" cy="84.55" r="7.20" fill="#f4b8b8"></circle>
<circle cx="336.80" cy="84.55" r="7.20" fill="#f2dddd"></circle>
<circle cx="399.20" cy="84.55" r="7.20" fill="#f3c7c7"></circle>
<circle cx="414.80" cy="84.55" r="7.20" fill="#f2d4d4"></circle>
<circle cx="461.60" cy="84.55" r="7.20" fill="#f2d2d2"></circle>
<circle cx="477.20" cy="84.55" r="7.20" fill="#f2d2d2"></circle>
<circle cx="524.00" cy="84.55" r="7.20" fill="#fc5353"></circle>
<circle cx="539.60" cy="84.55" r="7.20" fill="#f1e9e9"></circle>
<circle cx="555.20" cy="84.55" r="7.20" fill="#f88888"></circle>
<circle cx="586.40" cy="84.55" r="7.20" fill="#fe3838"></circle>
<circle cx="602.00" cy="84.55" r="7.20" fill="#f3cfcf"></circle>
<circle cx="617.60" cy="84.55" r="7.20" fill="#f3caca"></circle>
<circle cx="680.00" cy="84.55" r="7.20" fill="#f97f7f"></circle>
<circle cx="695.60" cy="84.55" r="7.20" fill="#f0f0f0"></circle>
<circle cx="711.20" cy="84.55" r="7.20" fill="#fb6666"></circle>
<circle cx="758.00" cy="84.55" r="7.20" fill="#f3c8c8"></circle>
<circle cx="773.60" cy="84.55" r="7.20" fill="#f2d0d0"></circle>
<circle cx="17.00" cy="98.06" r="7.20" fill="#f2dddd"></circle>
<circle cx="32.60" cy="98.06" r="7.20" fill="#f0f0f0"></circle>
<circle cx="48.20" cy="98.06" r="7.20" fill="#f0f0f0"></circle>
<circle cx="63.80" cy="98.06" r="7.20" fill="#fa6c6c"></circle>
<circle cx="79.40" cy="98.06" r="7.20" fill="#ff2d2d"></circle>
<circle cx="173.00" cy="98.06" r="7.20" fill="#fa6969"></circle>
<circle cx="188.60" cy="98.06" r="7.20" fill="#f4b9b9"></circle>
<circle cx="251.00" cy="98.06" r="7.20" fill="#f79898"></circle>
<circle cx="266.60" cy="98.06" r="7.20" fill="#f0eaea"></circle>
<circle cx="282.20" cy="98.06" r="7.20" fill="#fb6666"></circle>
<circle cx="313.40" cy="98.06" r="7.20" fill="#fd4b4b"></circle>
<circle cx="329.00" cy="98.06" r="7.20" fill="#f0eaea"></circle>
<circle cx="344.60" cy="98.06" r="7.20" fill="#f98181"></circle>
<circle cx="391.40" cy="98.06" r="7.20" fill="#f5afaf"></circle>
<circle cx="407.00" cy="98.06" r="7.20" fill="#f1e0e0"></circle>
<circle cx="422.60" cy="98.06" r="7.20" fill="#fd4d4d"></circle>
<circle cx="453.80" cy="98.06" r="7.20" fill="#fa7171"></circle>
<circle cx="469.40" cy="98.06" r="7.20" fill="#f0ecec"></circle>
<circle cx="485.00" cy="98.06" r="7.20" fill="#f97b7b"></circle>
<circle cx="531.80" cy="98.06" r="7.20" fill="#f5b1b1"></circle>
<circle cx="547.40" cy="98.06" r="7.20" fill="#f1dfdf"></circle>
<circle cx="594.20" cy="98.06" r="7.20" fill="#fd4848"></circle>
<circle cx="609.80" cy="98.06" r="7.20" fill="#f2dbdb"></circle>
<circle cx="625.40" cy="98.06" r="7.20" fill="#f4b9b9"></circle>
<circle cx="687.80" cy="98.06" r="7.20" fill="#f2d4d4"></circle>
<circle cx="703.40" cy="98.06" r="7.20" fill="#f3c4c4"></circle>
<circle cx="750.20" cy="98.06" r="7.20" fill="#fb6060"></circle>
<circle cx="765.80" cy="98.06" r="7.20" fill="#f0eaea"></circle>
<circle cx="781.40" cy="98.06" r="7.20" fill="#fb6565"></circle>
<circle cx="24.80" cy="111.57" r="7.20" fill="#f0f0f0"></circle>
<circle cx="40.40" cy="111.57" r="7.20" fill="#f0f0f0"></circle>
<circle cx="56.00" cy="111.57" r="7.20" fill="#f79797"></circle>
<circle cx="71.60" cy="111.57" r="7.20" fill="#ff3333"></circle>
<circle cx="180.80" cy="111.57" r="7.20" fill="#f79090"></circle>
<circle cx="196.40" cy="111.57" r="7.20" fill="#f97b7b"></circle>
<circle cx="243.20" cy="111.57" r="7.20" fill="#f97f7f"></circle>
<circle cx="258.80" cy="111.57" r="7.20" fill="#f0ecec"></circle>
<circle cx="274.40" cy="111.57" r="7.20" fill="#f98181"></circle>
<circle cx="321.20" cy="111.57" r="7.20" fill="#f5b2b2"></circle>
<circle cx="336.80" cy="111.57" r="7.20" fill="#f2d8d8"></circle>
<circle cx="383.60" cy="111.57" r="7.20" fill="#f79797"></circle>
<circle cx="399.20" cy="111.57" r="7.20" fill="#f0eaea"></circle>
<circle cx="414.80" cy="111.57" r="7.20" fill="#fb6464"></circle>
<circle cx="461.60" cy="111.57" r="7.20" fill="#f3c9c9"></circle>
<circle cx="477.20" cy="111.57" r="7.20" fill="#f3c5c5"></circle>
<circle cx="524.00" cy="111.57" r="7.20" fill="#fc5656"></circle>
<circle cx="539.60" cy="111.57" r="7.20" fill="#f1e9e9"></circle>
<circle cx="555.20" cy="111.57" r="7.20" fill="#f88888"></circle>
<circle cx="602.00" cy="111.57" r="7.20" fill="#fc5252"></circle>
<circle cx="617.60" cy="111.57" r="7.20" fill="#f2dbdb"></circle>
<circle cx="633.20" cy="111.57" r="7.20" fill="#f5aeae"></circle>
<circle cx="680.00" cy="111.57" r="7.20" fill="#f98080"></circle>
<circle cx="695.60" cy="111.57" r="7.20" fill="#f0eeee"></circle>
<circle cx="711.20" cy="111.57" r="7.20" fill="#fa6969"></circle>
<circle cx="758.00" cy="111.57" r="7.20" fill="#f4bdbd"></circle>
<circle cx="773.60" cy="111.57" r="7.20" fill="#f3c7c7"></circle>
<circle cx="17.00" cy="125.08" r="7.20" fill="#f3cece"></circle>
<circle cx="32.60" cy="125.08" r="7.20" fill="#f0f0f0"></circle>
<circle cx="48.20" cy="125.08" r="7.20" fill="#f1e7e7"></circle>
<circle cx="63.80" cy="125.08" r="7.20" fill="#fb5b5b"></circle>
<circle cx="79.40" cy="125.08" r="7.20" fill="#ff2d2d"></circle>
<circle cx="173.00" cy="125.08" r="7.20" fill="#fc4f4f"></circle>
<circle cx="188.60" cy="125.08" r="7.20" fill="#f69e9e"></circle>
<circle cx="235.40" cy="125.08" r="7.20" fill="#fb5d5d"></circle>
<circle cx="251.00" cy="125.08" r="7.20" fill="#f1e3e3"></circle>
<circle cx="266.60" cy="125.08" r="7.20" fill="#f69e9e"></circle>
<circle cx="313.40" cy="125.08" r="7.20" fill="#fd4949"></circle>
<circle cx="329.00" cy="125.08" r="7.20" fill="#f1dfdf"></circle>
<circle cx="344.60" cy="125.08" r="7.20" fill="#f97f7f"></circle>
<circle cx="375.80" cy="125.08" r="7.20" fill="#f97777"></circle>
<circle cx="391.40" cy="125.08" r="7.20" fill="#f1e7e7"></circle>
<circle cx="407.00" cy="125.08" r="7.20" fill="#f88282"></circle>
<circle cx="453.80" cy="125.08" r="7.20" fill="#fa6c6c"></circle>
<circle cx="469.40" cy="125.08" r="7.20" fill="#f1dfdf"></circle>
<circle cx="485.00" cy="125.08" r="7.20" fill="#fa7272"></circle>
<circle cx="531.80" cy="125.08" r="7.20" fill="#f5afaf"></circle>
<circle cx="547.40" cy="125.08" r="7.20" fill="#f2dada"></circle>
<circle cx="609.80" cy="125.08" r="7.20" fill="#fa6a6a"></circle>
<circle cx="625.40" cy="125.08" r="7.20" fill="#f2dbdb"></circle>
<circle cx="641.00" cy="125.08" r="7.20" fill="#f79393"></circle>
<circle cx="687.80" cy="125.08" r="7.20" fill="#f3cece"></circle>
<circle cx="703.40" cy="125.08" r="7.20" fill="#f4bebe"></circle>
<circle cx="750.20" cy="125.08" r="7.20" fill="#fb5e5e"></circle>
<circle cx="765.80" cy="125.08" r="7.20" fill="#f1dede"></circle>
<circle cx="781.40" cy="125.08" r="7.20" fill="#fb5f5f"></circle>
<circle cx="24.80" cy="138.59" r="7.20" fill="#f0eeee"></circle>
<circle cx="40.40" cy="138.59" r="7.20" fill="#f0f0f0"></circle>
<circle cx="56.00" cy="138.59" r="7.20" fill="#f4bdbd"></circle>
<circle cx="71.60" cy="138.59" r="7.20" fill="#fd4545"></circle>
<circle cx="165.20" cy="138.59" r="7.20" fill="#ff2e2e"></circle>
<circle cx="180.80" cy="138.59" r="7.20" fill="#f79797"></circle>
<circle cx="196.40" cy="138.59" r="7.20" fill="#fe3a3a"></circle>
<circle cx="227.60" cy="138.59" r="7.20" fill="#fe3939"></circle>
<circle cx="243.20" cy="138.59" r="7.20" fill="#f3caca"></circle>
<circle cx="258.80" cy="138.59" r="7.20" fill="#f5b2b2"></circle>
<circle cx="321.20" cy="138.59" r="7.20" fill="#f6a8a8"></circle>
<circle cx="336.80" cy="138.59" r="7.20" fill="#f3cbcb"></circle>
<circle cx="368.00" cy="138.59" r="7.20" fill="#fd4d4d"></circle>
<circle cx="383.60" cy="138.59" r="7.20" fill="#f2d6d6"></circle>
<circle cx="399.20" cy="138.59" r="7.20" fill="#f6a3a3"></circle>
<circle cx="461.60" cy="138.59" r="7.20" fill="#f4bdbd"></circle>
<circle cx="477.20" cy="138.59" r="7.20" fill="#f4b9b9"></circle>
<circle cx="524.00" cy="138.59" r="7.20" fill="#fc5252"></circle>
<circle cx="539.60" cy="138.59" r="7.20" fill="#f2d8d8"></circle>
<circle cx="555.20" cy="138.59" r="7.20" fill="#f98181"></circle>
<circle cx="617.60" cy="138.59" r="7.20" fill="#f97a7a"></circle>
<circle cx="633.20" cy="138.59" r="7.20" fill="#f2dada"></circle>
<circle cx="648.80" cy="138.59" r="7.20" fill="#f98181"></circle>
<circle cx="680.00" cy="138.59" r="7.20" fill="#f97979"></circle>
<circle cx="695.60" cy="138.59" r="7.20" fill="#f2dddd"></circle>
<circle cx="711.20" cy="138.59" r="7.20" fill="#fb5f5f"></circle>
<circle cx="758.00" cy="138.59" r="7.20" fill="#f5b3b3"></circle>
<circle cx="773.60" cy="138.59" r="7.20" fill="#f4bcbc"></circle>
<circle cx="17.00" cy="152.10" r="7.20" fill="#fb5b5b"></circle>
<circle cx="32.60" cy="152.10" r="7.20" fill="#f0f0f0"></circle>
<circle cx="48.20" cy="152.10" r="7.20" fill="#f0f0f0"></circle>
<circle cx="63.80" cy="152.10" r="7.20" fill="#f5b6b6"></circle>
<circle cx="79.40" cy="152.10" r="7.20" fill="#fd4949"></circle>
<circle cx="157.40" cy="152.10" r="7.20" fill="#fe3636"></circle>
<circle cx="173.00" cy="152.10" r="7.20" fill="#f79393"></circle>
<circle cx="188.60" cy="152.10" r="7.20" fill="#fd4d4d"></circle>
<circle cx="235.40" cy="152.10" r="7.20" fill="#f5a9a9"></circle>
<circle cx="251.00" cy="152.10" r="7.20" fill="#f4bdbd"></circle>
<circle cx="266.60" cy="152.10" r="7.20" fill="#ff3333"></circle>
<circle cx="313.40" cy="152.10" r="7.20" fill="#fd4545"></circle>
<circle cx="329.00" cy="152.10" r="7.20" fill="#f3cece"></circle>
<circle cx="344.60" cy="152.10" r="7.20" fill="#f88888"></circle>
<circle cx="360.20" cy="152.10" r="7.20" fill="#fd4a4a"></circle>
<circle cx="375.80" cy="152.10" r="7.20" fill="#f4bfbf"></circle>
<circle cx="391.40" cy="152.10" r="7.20" fill="#f5afaf"></circle>
<circle cx="453.80" cy="152.10" r="7.20" fill="#fb6565"></circle>
<circle cx="469.40" cy="152.10" r="7.20" fill="#f3cece"></circle>
<circle cx="485.00" cy="152.10" r="7.20" fill="#fa6e6e"></circle>
<circle cx="531.80" cy="152.10" r="7.20" fill="#f79999"></circle>
<circle cx="547.40" cy="152.10" r="7.20" fill="#f4c2c2"></circle>
<circle cx="625.40" cy="152.10" r="7.20" fill="#f88686"></circle>
<circle cx="641.00" cy="152.10" r="7.20" fill="#f2d3d3"></circle>
<circle cx="656.60" cy="152.10" r="7.20" fill="#f97777"></circle>
<circle cx="672.20" cy="152.10" r="7.20" fill="#fd4444"></circle>
<circle cx="687.80" cy="152.10" r="7.20" fill="#f4bdbd"></circle>
<circle cx="703.40" cy="152.10" r="7.20" fill="#f6a4a4"></circle>
<circle cx="750.20" cy="152.10" r="7.20" fill="#fb5b5b"></circle>
<circle cx="765.80" cy="152.10" r="7.20" fill="#f3cfcf"></circle>
<circle cx="781.40" cy="152.10" r="7.20" fill="#fb5d5d"></circle>
<circle cx="24.80" cy="165.61" r="7.20" fill="#fc5252"></circle>
<circle cx="40.40" cy="165.61" r="7.20" fill="#f2dbdb"></circle>
<circle cx="56.00" cy="165.61" r="7.20" fill="#f0f0f0"></circle>
<circle cx="71.60" cy="165.61" r="7.20" fill="#f2d3d3"></circle>
<circle cx="87.20" cy="165.61" r="7.20" fill="#fa7474"></circle>
<circle cx="102.80" cy="165.61" r="7.20" fill="#fe3d3d"></circle>
<circle cx="134.00" cy="165.61" r="7.20" fill="#fe3434"></circle>
<circle cx="149.60" cy="165.61" r="7.20" fill="#fa6b6b"></circle>
<circle cx="165.20" cy="165.61" r="7.20" fill="#f79b9b"></circle>
<circle cx="180.80" cy="165.61" r="7.20" fill="#fe3f3f"></circle>
<circle cx="227.60" cy="165.61" r="7.20" fill="#f88888"></circle>
<circle cx="243.20" cy="165.61" r="7.20" fill="#f5b6b6"></circle>
<circle cx="258.80" cy="165.61" r="7.20" fill="#fd4242"></circle>
<circle cx="321.20" cy="165.61" r="7.20" fill="#f88c8c"></circle>
<circle cx="336.80" cy="165.61" r="7.20" fill="#f3cece"></circle>
<circle cx="352.40" cy="165.61" r="7.20" fill="#f5b3b3"></circle>
<circle cx="368.00" cy="165.61" r="7.20" fill="#f4bcbc"></circle>
<circle cx="383.60" cy="165.61" r="7.20" fill="#f5abab"></circle>
<circle cx="399.20" cy="165.61" r="7.20" fill="#ff3232"></circle>
<circle cx="461.60" cy="165.61" r="7.20" fill="#f5adad"></circle>
<circle cx="477.20" cy="165.61" r="7.20" fill="#f5abab"></circle>
<circle cx="524.00" cy="165.61" r="7.20" fill="#fd4242"></circle>
<circle cx="539.60" cy="165.61" r="7.20" fill="#f4baba"></circle>
<circle cx="555.20" cy="165.61" r="7.20" fill="#fa7272"></circle>
<circle cx="633.20" cy="165.61" r="7.20" fill="#f88888"></circle>
<circle cx="648.80" cy="165.61" r="7.20" fill="#f3caca"></circle>
<circle cx="664.40" cy="165.61" r="7.20" fill="#f5b1b1"></circle>
<circle cx="680.00" cy="165.61" r="7.20" fill="#f4b8b8"></circle>
<circle cx="695.60" cy="165.61" r="7.20" fill="#f4b8b8"></circle>
<circle cx="711.20" cy="165.61" r="7.20" fill="#fe3f3f"></circle>
<circle cx="758.00" cy="165.61" r="7.20" fill="#f6a6a6"></circle>
<circle cx="773.60" cy="165.61" r="7.20" fill="#f5afaf"></circle>
<circle cx="48.20" cy="179.12" r="7.20" fill="#f5a9a9"></circle>
<circle cx="63.80" cy="179.12" r="7.20" fill="#f0f0f0"></circle>
<circle cx="79.40" cy="179.12" r="7.20" fill="#f0f0f0"></circle>
<circle cx="95.00" cy="179.12" r="7.20" fill="#f3c5c5"></circle>
<circle cx="110.60" cy="179.12" r="7.20" fill="#f6a2a2"></circle>
<circle cx="126.20" cy="179.12" r="7.20" fill="#f69d9d"></circle>
<circle cx="141.80" cy="179.12" r="7.20" fill="#f5afaf"></circle>
<circle cx="157.40" cy="179.12" r="7.20" fill="#f79090"></circle>
<circle cx="219.80" cy="179.12" r="7.20" fill="#fc5858"></circle>
<circle cx="235.40" cy="179.12" r="7.20" fill="#f69d9d"></circle>
<circle cx="251.00" cy="179.12" r="7.20" fill="#fc5555"></circle>
<circle cx="313.40" cy="179.12" r="7.20" fill="#ff2d2d"></circle>
<circle cx="329.00" cy="179.12" r="7.20" fill="#f88b8b"></circle>
<circle cx="344.60" cy="179.12" r="7.20" fill="#f4b9b9"></circle>
<circle cx="360.20" cy="179.12" r="7.20" fill="#f4b8b8"></circle>
<circle cx="375.80" cy="179.12" r="7.20" fill="#f79292"></circle>
<circle cx="391.40" cy="179.12" r="7.20" fill="#ff3232"></circle>
<circle cx="453.80" cy="179.12" r="7.20" fill="#fc5454"></circle>
<circle cx="469.40" cy="179.12" r="7.20" fill="#f6a8a8"></circle>
<circle cx="485.00" cy="179.12" r="7.20" fill="#fc5959"></circle>
<circle cx="531.80" cy="179.12" r="7.20" fill="#fa7272"></circle>
<circle cx="547.40" cy="179.12" r="7.20" fill="#f79898"></circle>
<circle cx="625.40" cy="179.12" r="7.20" fill="#ff2d2d"></circle>
<circle cx="641.00" cy="179.12" r="7.20" fill="#f97b7b"></circle>
<circle cx="656.60" cy="179.12" r="7.20" fill="#f5b6b6"></circle>
<circle cx="672.20" cy="179.12" r="7.20" fill="#f4bebe"></circle>
<circle cx="687.80" cy="179.12" r="7.20" fill="#f5a9a9"></circle>
<circle cx="703.40" cy="179.12" r="7.20" fill="#fc5050"></circle>
<circle cx="750.20" cy="179.12" r="7.20" fill="#fd4b4b"></circle>
<circle cx="765.80" cy="179.12" r="7.20" fill="#f5a9a9"></circle>
<circle cx="781.40" cy="179.12" r="7.20" fill="#fd4d4d"></circle>
<circle cx="56.00" cy="192.62" r="7.20" fill="#fc5656"></circle>
<circle cx="71.60" cy="192.62" r="7.20" fill="#f6a4a4"></circle>
<circle cx="87.20" cy="192.62" r="7.20" fill="#f2d0d0"></circle>
<circle cx="102.80" cy="192.62" r="7.20" fill="#f2d6d6"></circle>
<circle cx="118.40" cy="192.62" r="7.20" fill="#f3c3c3"></circle>
<circle cx="134.00" cy="192.62" r="7.20" fill="#f79898"></circle>
<circle cx="149.60" cy="192.62" r="7.20" fill="#fd4b4b"></circle>
<circle cx="212.00" cy="192.62" r="7.20" fill="#ff2d2d"></circle>
<circle cx="227.60" cy="192.62" r="7.20" fill="#fd4545"></circle>
<circle cx="243.20" cy="192.62" r="7.20" fill="#fe3434"></circle>
<circle cx="321.20" cy="192.62" r="7.20" fill="#ff2d2d"></circle>
<circle cx="336.80" cy="192.62" r="7.20" fill="#fc4f4f"></circle>
<circle cx="352.40" cy="192.62" r="7.20" fill="#fb6464"></circle>
<circle cx="368.00" cy="192.62" r="7.20" fill="#fc5353"></circle>
<circle cx="383.60" cy="192.62" r="7.20" fill="#ff2d2d"></circle>
<circle cx="461.60" cy="192.62" r="7.20" fill="#fd4747"></circle>
<circle cx="477.20" cy="192.62" r="7.20" fill="#fd4242"></circle>
<circle cx="524.00" cy="192.62" r="7.20" fill="#ff2d2d"></circle>
<circle cx="539.60" cy="192.62" r="7.20" fill="#fd4747"></circle>
<circle cx="555.20" cy="192.62" r="7.20" fill="#ff2d2d"></circle>
<circle cx="648.80" cy="192.62" r="7.20" fill="#fd4545"></circle>
<circle cx="664.40" cy="192.62" r="7.20" fill="#fb6161"></circle>
<circle cx="680.00" cy="192.62" r="7.20" fill="#fc5959"></circle>
<circle cx="695.60" cy="192.62" r="7.20" fill="#ff2d2d"></circle>
<circle cx="758.00" cy="192.62" r="7.20" fill="#fd4444"></circle>
<circle cx="773.60" cy="192.62" r="7.20" fill="#fd4444"></circle>
<circle cx="344.60" cy="206.13" r="7.20" fill="#ff2d2d"></circle>
<circle cx="672.20" cy="206.13" r="7.20" fill="#ff2d2d"></circle>
</svg>