<svg width="894" height="894" viewBox="0 0 894 894" fill="none" xmlns="http://www.w3.org/2000/svg">
<path d="M745.244 307.188V736.804C736.552 753.691 719.665 765.363 700.047 770.826H197.917L193.447 768.343C165.137 759.899 147.257 736.308 148.995 709.239V325.316C152.969 295.516 179.789 272.918 213.314 272.918L293.525 272.421L294.519 144.281C296.754 102.809 337.977 73.7544 382.429 73.7544H531.18C578.86 74.0027 617.6 108.024 617.6 150.738L618.097 272.421H679.932C708.49 272.421 733.075 284.838 745.244 307.188ZM565.45 179.544V289.556L579.357 290.053V152.973C579.357 130.126 559.987 108.769 533.167 108.769H377.214C354.615 108.769 332.762 127.146 332.514 147.509L332.017 289.804H343.192L343.689 177.309C343.689 153.718 368.522 125.408 393.852 125.408H515.039C540.865 125.408 565.699 152.228 565.699 179.793L565.45 179.544ZM554.524 290.053V175.571C550.799 156.201 538.382 140.804 517.274 135.341H392.362C371.502 140.059 355.112 156.449 355.112 176.813L354.615 290.301H554.524V290.053ZM683.409 737.301C698.06 737.301 711.47 727.616 711.47 714.206V331.773C711.47 317.618 699.302 306.939 683.409 306.939H216.294C200.4 306.939 187.239 317.121 187.239 331.773V713.958C187.239 728.361 201.642 737.301 216.294 737.301H683.409Z" fill="black"/>
<path d="M683.414 737.305H216.299C201.647 737.305 187.244 728.116 187.244 713.961V331.776C187.244 317.125 200.406 306.943 216.299 306.943H683.166C699.059 306.943 711.476 317.621 711.476 331.776V714.21C711.476 727.868 697.818 737.305 683.166 737.305H683.414ZM224.494 336.743H204.379V371.51H224.494V336.743ZM202.144 389.638V479.783H225.487V389.638H202.144ZM241.381 529.201H201.399V553.29H241.381V529.201ZM239.642 573.901H199.661V598.238H239.642V573.901ZM239.642 618.85H199.661V643.186H239.642V618.85ZM200.406 663.301V687.39H240.636V663.301H200.406ZM648.896 706.015L680.682 677.208H650.386L624.062 706.015H649.144H648.896ZM600.223 706.511L631.264 678.201L601.961 677.456L575.637 706.511H600.223Z" fill="white"/>
<path d="M565.452 179.548C565.452 152.231 540.618 125.163 514.792 125.163H393.605C368.275 125.163 343.442 153.473 343.442 177.064L342.945 289.311H331.77L332.267 147.016C332.267 126.653 354.368 108.276 376.967 108.276H532.92C559.74 108.276 579.11 129.881 579.11 152.479V289.559L565.452 289.063V179.051V179.548Z" fill="white"/>
<path d="M495.673 437.812C511.318 454.202 514.795 478.787 504.365 499.15L497.163 513.057C494.928 517.527 494.183 522.742 495.673 527.708L513.305 590.537C516.782 603.202 507.345 615.618 494.183 615.867L425.395 616.363C412.233 616.363 402.548 603.947 406.025 591.033L423.657 528.453C424.898 523.487 424.402 518.52 422.167 513.802L415.213 500.64C404.535 480.028 408.26 455.195 424.65 438.557L425.892 437.315C445.262 417.697 476.8 417.945 495.673 438.06V437.812Z" fill="black" stroke="#E30613" stroke-width="6.20833" stroke-linecap="round" stroke-linejoin="round"/>
<path d="M225.49 389.634H202.146V479.779H225.49V389.634Z" fill="black"/>
<path d="M239.643 618.845H199.661V643.181H239.643V618.845Z" fill="#E30613"/>
<path d="M239.643 573.901H199.661V598.238H239.643V573.901Z" fill="black"/>
<path d="M241.377 529.2H201.395V553.288H241.377V529.2Z" fill="#E30613"/>
<path d="M240.63 663.297H200.4V687.386H240.63V663.297Z" fill="black"/>
<path d="M648.898 706.012H623.816L650.14 677.206H680.685L648.898 706.012Z" fill="#E30613"/>
<path d="M600.226 706.509L575.641 706.261L601.716 677.454L631.019 678.199L600.226 706.509Z" fill="#E30613"/>
<path d="M224.25 336.741H204.135V371.508H224.25V336.741Z" fill="#E30613"/>
</svg>
