<svg width="1053" height="1053" viewBox="0 0 1053 1053" fill="none" xmlns="http://www.w3.org/2000/svg">
<path d="M221.716 551.658C222.301 558.386 218.206 561.018 212.941 564.236L197.438 573.011C181.351 582.078 163.801 606.063 164.093 612.791V614.253C160.876 616.593 156.488 621.273 155.903 626.831C152.101 660.761 151.808 694.398 154.148 728.328C154.733 735.641 158.243 742.076 162.046 746.171L165.556 750.266C172.576 758.163 181.058 763.428 192.173 765.768L239.851 776.298L279.631 781.856C279.631 781.856 283.141 781.563 284.311 781.271C285.188 785.366 289.868 783.903 292.793 784.488L313.561 786.828L325.553 787.413C332.281 787.706 328.771 807.596 347.491 814.323L378.788 825.731C382.298 826.901 389.611 827.486 393.413 829.826C398.678 833.336 405.406 832.458 413.303 833.921C462.443 842.111 510.706 843.866 560.431 843.573C591.436 843.573 620.686 842.988 651.106 836.846C675.968 831.873 699.953 828.071 725.108 827.193L738.271 813.738L750.263 804.086L762.548 781.271C765.766 791.216 779.806 791.508 787.411 786.828H807.886C810.226 786.828 811.981 785.951 812.273 784.781H816.661C824.851 784.781 834.211 786.536 842.986 783.318C847.081 781.856 849.713 779.516 853.808 780.101C857.318 780.686 860.828 781.271 861.998 785.366L802.621 792.678C791.798 794.141 780.976 792.678 770.738 797.651C759.331 811.983 744.706 829.533 725.108 833.043C671.288 842.696 618.053 848.838 563.356 851.763L505.441 851.178L453.668 848.546L367.966 833.628C357.728 823.976 346.613 820.173 333.743 817.541C331.111 811.398 328.478 800.283 321.751 797.943C295.133 788.583 243.946 792.678 181.936 772.496C160.876 765.476 148.298 752.021 148.006 728.621L147.421 654.033C147.421 625.368 162.631 589.683 184.568 575.936L222.008 552.243L221.716 551.658Z" fill="#952020"/>
<path d="M555.751 260.62V263.545C541.126 261.79 507.196 267.055 494.911 274.66C530.596 265.3 570.668 263.838 595.531 280.218C592.021 281.68 586.756 281.095 583.246 279.34C572.423 273.783 562.186 275.245 551.071 274.368C527.671 272.613 501.931 277 482.333 289.87C479.116 291.918 475.898 293.088 477.068 298.06C458.056 310.345 451.621 331.405 440.213 347.785C436.118 353.928 429.976 360.655 429.683 371.478C423.248 381.13 430.853 392.538 422.663 410.673L417.691 386.98C420.323 386.688 422.371 384.64 421.786 381.13L419.446 363.288C425.588 362.703 424.418 356.268 426.758 351.295L445.478 309.76C450.451 298.938 453.961 292.795 463.028 285.775C491.108 263.838 521.821 256.818 556.043 260.035L555.751 260.62Z" fill="#D32823"/>
<path d="M940.677 734.763L940.092 745.878C935.705 746.756 933.95 751.436 933.95 755.531C933.95 757.286 932.487 758.163 931.902 759.333C925.76 758.748 921.08 763.136 920.495 768.986H914.06L885.395 776.883C881.885 777.761 879.545 779.223 879.252 782.148H874.865C873.987 780.686 871.355 779.516 869.6 780.101C867.845 780.686 867.552 783.026 868.137 784.488L861.41 785.366C860.24 780.978 857.022 780.686 853.22 780.101C849.125 779.516 846.492 781.856 842.397 783.318C833.622 786.536 824.262 784.781 816.072 784.781C816.072 782.441 816.072 780.101 816.072 777.468C819.875 777.468 823.677 776.883 825.14 772.496L861.41 766.353C873.987 772.788 886.857 770.741 900.312 764.306C905.87 761.673 912.305 761.966 915.815 756.993C920.787 749.681 931.025 744.123 931.025 734.763H933.95L940.677 734.471V734.763Z" fill="#C42420"/>
<path d="M555.748 263.833C572.128 265.88 610.445 277.873 618.343 285.185L639.403 304.49L643.498 311.218C644.668 313.265 646.13 315.02 649.055 316.483L666.02 365.623C675.965 366.208 677.428 347.78 689.128 344.563C688.835 345.148 689.128 346.903 689.128 347.78C687.665 347.78 685.91 347.78 685.325 349.243C683.863 352.168 680.938 355.385 680.353 358.603C678.89 367.67 673.918 377.323 663.973 376.153L654.905 343.1C651.395 329.938 643.498 318.238 632.968 312.388C631.505 311.51 627.995 309.755 627.118 307.708C620.39 293.083 607.228 287.818 595.528 279.92C570.665 263.54 530.593 265.003 494.908 274.363C507.193 267.05 541.123 261.493 555.748 263.248V263.833Z" fill="#C42420"/>
<path d="M771.618 320.286C792.385 320.286 811.983 330.816 828.655 343.978C836.553 350.121 839.185 355.093 843.28 364.161C847.083 372.058 853.81 378.786 854.688 387.853H852.348L834.798 362.698C825.73 349.536 813.153 342.223 798.528 335.496L775.42 324.673C763.72 319.116 747.34 320.286 735.64 325.843L702.003 341.931C697.615 343.978 694.105 348.366 689.133 347.488C689.133 346.903 688.84 345.148 689.133 344.271L691.18 340.176C699.663 339.591 706.39 332.571 711.948 326.721H716.628C717.798 328.476 718.968 328.183 718.383 326.136H719.553C723.355 325.843 728.035 325.258 730.083 321.748C730.375 321.748 730.96 321.748 731.253 321.748L734.47 319.701H735.933H771.033L771.618 320.286Z" fill="#D32823"/>
<path d="M868.432 426.758V431.438C868.432 431.438 865.215 429.391 864.045 430.561C859.365 435.826 861.997 443.138 866.97 445.478L868.14 454.253C868.14 454.253 866.677 454.253 866.092 454.253C863.752 453.376 861.997 454.253 861.997 455.716V463.321L847.372 491.986L839.182 511.876C836.55 518.311 826.605 524.746 826.02 533.813C824.85 549.316 852.052 549.901 869.31 556.043C871.357 563.063 883.935 563.941 890.955 573.886C881.01 575.641 872.527 566.866 863.752 563.648C847.665 557.506 821.34 550.778 818.415 539.078C816.952 532.643 821.925 530.596 824.265 526.501L839.475 500.176C848.25 476.483 862.582 441.091 855.855 420.908C854.1 415.058 853.222 412.718 852.93 405.698L852.345 388.441H854.685C855.27 394.291 855.855 401.603 858.487 408.038C864.922 424.418 859.657 432.316 868.432 427.343V426.758Z" fill="#DF2928"/>
<path d="M839.183 511.582L845.618 512.167C845.033 520.942 838.89 527.085 833.04 534.397C826.313 542.587 858.78 542.587 873.405 553.41C871.65 553.41 870.188 553.995 869.31 555.75C852.345 549.315 824.85 548.73 826.02 533.52C826.605 524.452 836.843 517.725 839.183 511.582Z" fill="#952020"/>
<path d="M417.4 363.284H419.448L421.788 381.419C422.08 384.929 420.033 386.977 417.693 387.269L416.815 384.637C416.815 382.004 415.645 379.664 412.72 379.079C410.965 373.229 392.538 351.877 382.885 346.027V342.517L398.388 346.612L417.4 363.577V363.284Z" fill="#DE3C32"/>
<path d="M391.654 335.494C403.646 340.174 414.176 350.997 417.394 363.282L398.381 346.317L383.171 342.222C374.104 335.202 364.451 328.474 352.459 323.794C346.609 321.454 333.446 320.577 327.304 323.209L281.674 341.344C276.701 343.392 271.729 348.949 267.049 347.487C278.164 333.739 295.129 327.889 312.386 321.747C329.644 315.604 348.656 319.114 366.791 326.134L391.654 335.787V335.494Z" fill="#D32823"/>
<path d="M866.091 453.957L866.676 458.637V467.12C864.336 467.997 864.043 470.045 864.043 472.092V473.847C861.996 474.432 861.996 477.065 861.703 478.82V480.575C858.193 482.622 857.023 486.425 857.316 490.227C856.146 495.492 852.928 500.465 850.296 505.437C849.418 506.315 848.541 507.192 847.956 508.07L845.616 511.872L839.181 511.287L847.371 491.397L861.996 462.732V455.127C861.996 455.127 864.043 452.787 866.383 453.665L866.091 453.957Z" fill="#B1312E"/>
<path d="M265.885 546.388C260.62 558.088 239.56 549.605 214.113 567.74L183.693 589.385C175.21 595.528 172.578 608.105 163.803 612.785C163.803 606.058 181.353 582.073 197.148 573.005L212.65 564.23C218.208 561.013 222.01 558.38 221.425 551.653C222.595 552.823 223.18 552.53 223.765 552.53C243.655 556.04 250.383 546.388 265.593 546.095L265.885 546.388Z" fill="#DF2928"/>
<path d="M914.064 768.983C914.064 771.323 912.602 773.078 909.677 773.956L879.257 782.146C879.257 779.221 882.182 777.758 885.399 776.881L914.064 768.983Z" fill="#952020"/>
<path d="M868.143 431.143L866.973 445.183C862 442.843 859.368 435.531 864.048 430.266C865.218 429.096 867.85 430.266 868.143 431.143Z" fill="#B1312E"/>
<path d="M931.904 759.328C929.564 764.008 925.177 768.981 920.497 768.981C921.374 763.423 925.762 758.743 931.904 759.328Z" fill="#952020"/>
<path d="M847.957 508.659C847.957 508.659 849.42 506.904 850.297 506.026C849.712 506.904 848.835 507.781 847.957 508.659Z" fill="#952020"/>
<path d="M383.172 342.224V345.734C342.515 321.164 288.695 328.184 259.445 369.134C233.705 405.404 237.507 466.244 259.445 505.439C265.295 515.969 276.117 523.866 276.41 537.321C276.41 548.436 267.05 555.164 256.812 558.089C205.625 573.591 164.675 597.869 164.675 654.029V728.909C164.675 754.649 196.265 755.234 216.74 763.716C210.89 762.546 204.747 764.886 197.435 761.961L164.967 750.261L161.457 746.166L157.947 707.264V680.061L159.702 634.724L163.797 614.249V612.786C172.572 608.106 175.205 595.236 183.687 589.386L214.107 567.741C239.555 549.606 260.615 558.089 265.88 546.389C267.342 543.171 272.9 537.321 269.097 532.349C243.65 499.881 231.95 460.101 233.705 420.029C237.8 418.274 235.752 412.424 236.63 409.206L247.452 374.106V372.351C250.67 370.304 252.132 366.794 252.132 363.284V360.944C257.397 357.434 262.37 352.754 265.295 347.196C265.587 347.196 266.465 346.904 267.05 347.196C272.022 348.659 276.702 343.101 281.675 341.054L327.305 322.919C333.74 320.286 346.61 321.164 352.46 323.504C364.452 328.476 374.105 335.204 383.172 341.931V342.224Z" fill="#D7483E"/>
<path d="M378.493 826.022L420.905 828.654C429.095 829.239 435.823 830.994 443.135 828.654C451.618 825.729 522.403 840.647 588.508 833.334L686.788 822.512C688.25 824.852 691.468 826.022 694.978 824.559C704.63 820.172 715.16 820.757 724.813 817.539L737.39 813.737L724.228 827.192C699.365 828.069 675.088 831.579 650.225 836.844C619.805 842.987 590.555 843.572 559.55 843.572C509.825 843.572 461.563 842.109 412.423 833.919C404.525 832.749 398.09 833.334 392.533 829.824C388.73 827.484 381.418 826.899 377.908 825.729L378.493 826.022Z" fill="#D8332D"/>
<path d="M443.136 828.656C435.823 830.996 429.096 829.534 420.906 828.656L378.493 826.024L347.196 814.616C339.591 808.474 331.108 788.876 331.108 782.149C331.108 780.686 325.843 780.394 325.843 782.734V787.706L313.266 787.121C303.613 784.781 293.668 780.979 284.016 781.564C282.846 781.856 280.506 782.734 279.336 782.149C270.853 773.666 255.058 779.516 254.181 771.326L334.911 776.299C338.128 785.951 339.591 800.869 349.243 805.256C372.351 815.786 397.213 821.051 422.076 825.439C429.681 826.609 437.286 823.684 443.136 828.656Z" fill="#D7483E"/>
<path d="M825.142 772.782C823.68 777.17 819.878 777.462 816.075 777.755L762.255 781.557L749.97 804.372L737.977 814.025L725.4 817.827C715.455 821.045 705.218 820.46 695.565 824.847C692.055 826.31 688.838 824.847 687.375 822.8C719.258 813.732 751.725 812.855 754.65 776.292L805.253 773.66L825.727 772.49L825.142 772.782Z" fill="#D7483E"/>
<path d="M161.458 746.46C157.948 742.365 154.145 735.93 153.56 728.618C151.22 694.688 151.513 660.758 155.315 627.12C155.9 621.563 160.58 616.883 163.798 614.543L159.703 635.018L157.655 680.355V707.558L161.458 746.46Z" fill="#DF2928"/>
<path d="M216.74 764.008L254.18 771.613C255.057 779.803 270.852 774.245 279.335 782.435L239.555 776.878L191.877 766.348C180.47 764.008 172.28 758.743 165.26 750.845L197.727 762.545C204.747 765.178 210.89 763.13 217.032 764.3L216.74 764.008Z" fill="#DF2928"/>
<path d="M816.076 777.467C816.369 780.1 816.369 782.44 816.076 784.78H811.689C803.499 784.78 794.431 782.147 786.826 786.827C779.221 791.507 765.181 791.215 761.964 781.27L815.784 777.467H816.076Z" fill="#DF2928"/>
<path d="M347.201 814.612C328.481 807.592 331.991 787.995 325.264 787.702V782.73C325.849 780.39 331.114 780.682 331.114 782.145C331.114 789.165 339.304 808.47 347.201 814.612Z" fill="#DF2928"/>
<path d="M811.977 784.776C811.977 784.776 809.93 787.116 807.59 787.116H787.115C794.72 782.144 803.787 784.776 811.977 784.776Z" fill="#C42420"/>
<path d="M313.267 787.117L292.499 784.777C289.574 784.485 284.894 785.655 284.017 781.56C293.669 780.975 303.614 784.485 313.267 787.117Z" fill="#DF2928"/>
<path d="M631.211 317.656C659.876 354.511 664.264 423.541 645.836 464.491L636.184 485.551L614.831 517.726C610.736 523.576 608.104 528.841 609.859 534.984L611.906 542.296C613.369 546.976 616.001 551.071 621.851 553.411L656.951 566.866L683.276 556.921C687.079 555.459 690.004 554.289 691.174 551.364H693.806C696.146 551.364 697.609 548.731 698.486 546.976C703.459 534.691 700.241 523.576 690.004 514.216C687.079 511.584 685.031 503.686 680.059 503.686C679.181 503.686 678.011 502.224 677.426 501.931C677.426 501.639 676.841 500.761 677.426 500.469L664.556 451.329V431.146L668.066 406.284C672.454 371.769 700.826 341.641 735.634 333.451C778.046 323.506 826.601 346.029 840.934 388.149C855.266 430.269 849.416 478.824 822.799 515.386C815.486 525.624 808.466 534.691 815.486 547.854C821.921 560.431 922.541 573.594 923.711 647.596L924.881 721.306C925.466 755.821 898.849 755.236 870.184 764.596L861.116 766.351L824.846 772.494L804.371 773.664L753.769 776.296C750.844 812.859 718.376 813.736 686.494 822.804L588.214 833.626C522.109 840.939 451.324 826.021 442.841 828.946C436.991 823.974 429.094 826.899 421.781 825.729C396.919 821.341 371.764 816.076 348.949 805.546C339.296 801.159 337.834 786.241 334.616 776.589L253.886 771.616L216.446 764.011C195.971 755.529 164.674 754.944 164.674 729.204V654.324C164.674 598.164 205.624 574.179 256.811 558.384C267.049 555.166 276.701 548.731 276.409 537.616C276.409 524.161 265.294 516.264 259.444 505.734C237.506 466.539 233.704 405.699 259.444 369.429C288.694 328.186 342.221 321.166 382.586 346.029C392.531 351.879 410.959 373.231 412.421 379.081C413.006 381.421 413.299 384.054 416.516 384.639L417.394 387.271L422.366 410.964C421.196 413.304 421.781 417.399 421.781 420.031C421.781 426.759 420.026 434.656 424.414 440.506C421.196 458.349 419.441 476.191 411.836 494.034C401.014 518.896 381.416 530.596 385.219 539.956C391.069 554.289 412.129 561.016 414.761 559.846C418.856 562.771 426.754 568.621 432.604 566.866C444.011 563.356 454.834 559.846 465.364 553.704C477.064 546.684 480.574 525.916 472.091 515.094C434.651 467.709 424.414 406.576 440.209 348.369C451.324 331.989 458.051 310.929 477.064 298.644C501.049 283.141 531.469 274.366 560.719 278.754C589.969 283.141 613.954 295.719 630.919 317.656H631.211ZM508.069 308.881C508.069 308.881 504.266 308.881 503.389 311.221C502.804 311.221 502.219 311.514 501.341 311.221C485.254 321.166 470.044 336.669 465.364 355.389L462.731 365.626C460.976 366.211 460.684 368.551 460.684 370.306V376.741C458.344 377.326 458.344 379.666 458.344 381.714C458.344 384.931 458.929 389.611 457.759 392.536C455.126 398.679 454.834 405.114 457.759 410.964C458.929 413.304 458.344 417.106 458.344 419.739C458.344 422.371 458.344 425.296 460.391 426.759V433.486C460.684 435.241 460.684 437.874 463.024 438.166L465.364 449.281C465.364 449.281 466.534 451.621 467.411 452.206V456.009C467.411 456.009 468.874 458.349 469.751 458.934C470.629 462.736 471.799 466.831 474.139 469.756L476.479 472.681L478.819 478.824L481.159 481.456C481.159 481.456 481.159 482.626 481.159 483.211C481.744 484.089 482.914 485.259 483.499 485.844L491.689 495.496C511.286 518.604 539.659 532.059 566.861 518.896C623.314 491.986 647.591 402.189 616.294 341.641C596.989 304.494 547.264 295.426 508.361 309.174L508.069 308.881ZM334.909 527.086C349.826 526.209 361.819 517.726 370.009 508.659C389.606 487.014 398.381 462.736 397.796 433.194C397.796 411.549 393.701 387.564 376.736 372.354C346.024 344.566 297.469 353.341 277.579 388.441C262.954 414.181 261.784 442.261 272.314 469.464C278.164 484.089 283.429 499.299 295.714 509.536C306.829 518.604 318.236 527.964 334.616 527.086H334.909ZM735.634 359.484C725.689 361.239 718.961 368.551 712.234 374.109C689.419 393.121 687.664 440.214 698.486 474.144C707.554 501.931 735.049 530.304 759.326 527.964C814.609 522.114 836.839 434.949 809.929 381.421C791.501 359.191 762.836 351.001 735.634 359.484ZM649.346 800.866L650.809 714.579C650.809 705.804 654.026 698.491 661.631 694.689C668.359 697.029 671.284 702.879 671.576 709.899L672.454 795.894C690.296 794.724 707.261 790.921 723.934 785.071C727.736 783.901 730.076 779.221 730.076 775.419L731.831 689.716C732.709 648.181 709.309 616.006 671.576 600.504L621.851 580.029L601.376 571.254C589.676 566.281 587.629 551.949 586.166 537.324C560.426 550.486 531.469 549.316 504.559 539.079C502.219 554.289 494.029 569.206 480.574 574.764L419.149 599.626C384.926 613.666 359.771 642.331 359.771 680.649V774.834C359.771 780.976 363.574 784.779 368.839 785.949L415.639 795.894V711.654C416.224 704.049 420.904 693.811 429.679 694.104C439.039 694.104 443.134 705.511 443.134 713.994V800.866C513.041 814.321 581.194 814.029 649.639 800.574L649.346 800.866ZM252.131 675.091L253.009 743.244C279.919 749.679 306.244 752.604 334.031 753.189L337.249 674.506C339.589 632.971 362.404 599.919 401.014 579.444C380.246 577.104 365.914 565.111 363.281 542.881C343.684 553.704 323.794 552.241 303.026 543.466C299.224 554.581 294.251 568.914 282.259 573.886L224.344 597.286C200.944 609.571 189.244 630.046 189.536 656.079L190.414 727.449C203.576 733.006 215.861 736.224 229.901 737.101L232.241 673.336C232.241 667.194 237.506 663.099 242.186 663.099C246.866 663.099 252.131 667.194 252.424 674.214L252.131 675.091ZM732.416 616.884C732.416 618.639 733.879 620.101 734.756 621.271C735.341 622.149 736.219 623.026 737.096 623.904L743.824 639.406C743.824 639.406 745.286 641.454 745.871 642.331V644.086L752.306 664.854L754.354 743.829L754.939 750.556C754.939 750.556 755.816 752.896 757.279 752.896H761.666C767.809 752.311 774.536 754.359 780.094 751.141C790.624 751.141 804.371 749.094 813.731 747.046C818.996 745.876 830.404 747.046 833.036 741.196L834.791 680.649C835.084 669.826 840.934 661.636 850.586 662.514C853.804 662.514 857.021 665.439 858.776 669.241C859.069 670.119 860.239 670.996 861.116 671.874V675.969V712.531V735.346C861.116 739.734 869.891 736.809 872.816 735.346C878.666 732.714 888.904 733.884 896.509 728.619C897.386 674.214 909.671 616.006 856.436 593.776L800.569 570.376C793.549 567.451 790.624 557.506 787.991 551.949V546.099C787.991 544.636 784.774 543.759 783.019 545.514L770.149 549.024C768.394 549.609 766.346 549.609 765.176 551.364H744.701L725.689 544.636C724.226 565.404 706.676 578.566 684.154 580.321C704.336 590.559 720.131 601.089 731.539 617.176L732.416 616.884Z" fill="#1B1414"/>
<path d="M440.507 348.072C424.712 406.28 434.949 467.412 472.389 514.797C480.872 525.62 477.362 546.387 465.662 553.407C455.132 559.55 444.309 563.06 432.902 566.57C427.052 568.325 419.154 562.475 415.059 559.55C419.447 557.21 423.249 558.965 427.929 562.182L455.717 553.407C465.077 550.482 467.709 543.755 467.417 535.565V532.932C467.417 532.932 469.464 530.885 469.757 529.715C470.049 527.96 469.172 526.205 467.709 526.205C460.689 518.015 452.499 509.532 447.819 498.71L436.704 472.97C433.487 476.772 430.562 479.697 429.977 482.037L427.929 465.365L419.739 492.86C417.692 499.295 412.427 503.975 413.304 510.995C398.094 523.865 394.877 534.102 385.517 540.245C381.714 530.885 401.312 519.185 412.134 494.322C419.739 476.772 421.494 458.637 424.712 440.795C425.882 433.775 429.392 425.877 422.079 420.32C422.079 417.687 421.494 413.885 422.664 411.252C430.854 393.117 423.249 382.002 429.684 372.057C430.269 361.235 436.119 354.507 440.214 348.365L440.507 348.072Z" fill="#D7483E"/>
<path d="M595.529 280.51C607.229 288.408 620.392 293.38 627.119 308.298C627.997 310.053 631.507 312.1 632.969 312.978L630.922 317.95C613.957 296.013 589.094 283.435 560.722 279.048C532.349 274.66 501.052 283.143 477.067 298.938C475.604 293.966 478.822 292.795 482.332 290.748C501.929 277.878 527.669 273.49 551.069 275.245C562.477 276.123 572.714 274.953 583.244 280.218C586.754 281.973 592.019 282.558 595.529 281.095V280.51Z" fill="#D7483E"/>
<path d="M233.707 420.031C234.292 403.651 236.34 387.563 247.455 374.108L236.632 409.208C235.755 412.426 237.51 417.983 233.707 420.031Z" fill="#D32823"/>
<path d="M247.454 372.643C247.454 369.133 248.917 365.331 252.134 363.576C252.134 367.086 250.672 370.596 247.454 372.643Z" fill="#D32823"/>
<path d="M252.139 360.949C255.356 355.684 260.621 351.004 265.301 347.201C262.376 352.759 257.404 357.439 252.139 360.949Z" fill="#D32823"/>
<path d="M852.343 388.145L852.928 405.402C852.928 412.422 853.805 415.055 855.853 420.612C862.58 440.795 848.248 476.187 839.473 499.88L824.263 526.205C821.923 530.592 816.95 532.347 818.413 538.782C821.338 550.482 847.663 557.21 863.75 563.352C872.525 566.862 881.008 575.637 890.953 573.59L892.415 574.175L920.788 607.227C930.148 621.56 925.468 639.402 928.685 654.905C931.318 667.775 931.61 677.72 931.61 690.297V734.465C931.61 743.825 921.08 749.382 916.108 756.695C910.843 754.94 906.748 758.742 902.068 760.497C891.538 764.592 880.423 762.252 870.77 764.3C899.435 754.94 926.053 755.232 925.468 721.01L924.298 647.3C923.128 573.297 822.8 560.135 816.073 547.557C809.053 534.395 816.073 525.035 823.385 515.09C850.003 478.235 856.145 430.85 841.52 387.852C826.895 344.855 778.34 323.21 736.22 333.155C701.413 341.345 673.04 371.472 668.653 405.987L665.435 430.85C658.415 425.292 664.85 403.647 665.435 386.097C665.435 383.465 661.633 378.785 664.265 376.445C674.21 377.907 679.475 367.962 680.645 358.895C683.863 357.14 687.373 353.045 685.618 349.535C686.203 348.072 688.25 347.78 689.42 348.072C694.393 348.95 697.61 344.562 702.29 342.515L735.928 326.427C747.628 320.87 764.008 319.7 775.708 325.257L798.815 336.08C813.148 342.807 825.725 350.12 835.085 363.282L852.635 388.437L852.343 388.145Z" fill="#D7483E"/>
<path d="M899.73 576.807C914.94 591.14 930.15 610.445 933.367 632.967L934.245 705.507V730.37V735.342H931.32V690.882C931.32 678.305 931.027 668.36 928.395 655.49C925.177 639.987 929.857 622.145 920.497 607.812L892.125 574.76C893.88 575.637 897.682 575.345 899.437 577.1L899.73 576.807Z" fill="#DF2928"/>
<path d="M915.816 757.281C912.306 762.254 905.871 761.961 900.314 764.594C886.859 770.736 873.989 773.076 861.411 766.641L870.479 764.886C880.131 762.839 891.246 765.179 901.776 761.084C906.749 759.329 910.551 755.526 915.816 757.281Z" fill="#DF2928"/>
<path d="M663.978 376.446C661.345 379.078 665.148 383.466 665.148 386.098C664.563 403.648 658.128 425.293 665.148 430.851V451.033C658.713 457.761 661.93 466.828 663.393 475.311C665.148 486.426 667.78 494.908 677.725 500.173C677.14 500.466 677.433 501.343 677.725 501.636C677.725 502.806 677.725 504.853 680.358 503.391C685.038 503.391 687.085 511.288 690.303 513.921C700.833 523.281 704.05 534.396 698.785 546.681H694.105C694.105 540.246 694.105 536.151 690.303 532.056L678.895 518.893C667.78 505.731 662.808 488.766 659.883 472.678C656.08 470.338 655.203 477.651 647.305 490.521C643.795 491.983 641.455 494.323 637.36 494.908C638.53 491.983 639.115 488.473 636.483 485.548L646.135 464.488C664.855 423.538 660.175 354.216 631.51 317.653L633.558 312.681C644.088 318.823 651.985 330.231 655.495 343.393L664.563 376.446H663.978Z" fill="#D8332D"/>
<path d="M680.648 358.896C681.233 355.679 684.158 352.169 685.62 349.536C687.375 353.046 684.158 357.434 680.648 358.896Z" fill="#D32823"/>
<path d="M933.951 730.376V705.514C937.168 712.826 937.168 723.064 933.951 730.376Z" fill="#C42420"/>
<path d="M416.816 384.637C413.891 384.052 413.598 381.419 412.721 379.079C415.646 379.664 416.816 382.297 416.816 384.637Z" fill="#D32823"/>
<path d="M649.351 800.861C580.614 814.316 512.461 814.609 443.139 801.154V714.281C442.846 706.091 438.459 694.684 429.391 694.391C420.616 694.391 415.936 704.336 415.936 711.941V796.181L368.844 786.236C363.286 785.066 359.776 781.264 359.776 775.121V680.936C359.776 642.619 384.931 613.661 419.154 599.914L480.579 575.051C494.034 569.494 502.224 554.576 504.564 539.366C531.474 549.604 560.431 550.774 586.171 537.611C587.926 552.236 589.974 566.569 601.381 571.541L621.856 580.316L671.581 600.791C709.314 616.294 732.421 648.469 731.836 690.004L730.081 775.706C730.081 779.801 727.741 784.189 723.939 785.359C707.266 790.916 690.301 795.011 672.459 796.181L671.581 710.186C671.581 703.166 668.656 697.316 661.636 694.976C654.031 698.486 650.814 706.091 650.814 714.866L649.351 801.154V800.861Z" fill="#FAFAFA"/>
<path d="M483.206 485.843L480.866 483.211C480.866 483.211 480.866 481.748 480.866 481.456C480.574 480.286 479.696 479.408 478.526 478.823L476.186 472.681C476.186 472.681 474.724 470.633 473.846 469.756C471.506 466.831 470.336 462.736 469.459 458.933C468.874 457.763 467.996 456.886 467.119 456.008V452.206C467.119 452.206 465.949 449.866 464.779 449.281L462.439 438.166C462.439 438.166 465.364 436.118 464.486 434.656C463.609 432.901 461.269 432.901 460.099 433.486V426.758C461.561 425.881 463.024 423.248 462.439 421.201C461.854 419.738 459.221 419.446 457.759 419.738C457.759 417.106 458.344 413.303 457.174 410.963C461.269 406.283 461.269 397.216 457.174 392.536C458.344 389.611 457.759 384.931 457.759 381.713C458.929 382.006 461.561 381.713 462.146 380.251C462.731 379.081 460.684 377.326 459.806 376.741V370.306H463.316C464.194 370.306 465.071 368.551 464.194 367.673L462.146 365.626L464.779 355.388C465.949 353.633 467.996 351.878 470.336 351.878C472.091 351.878 475.016 355.388 477.064 355.973C484.376 358.313 488.179 350.123 491.396 344.858C498.124 333.743 503.389 323.798 500.756 311.221C501.634 311.806 502.511 311.221 502.804 311.221C504.851 311.221 506.899 310.928 507.484 308.881C546.386 295.133 596.111 304.201 615.416 341.348C646.714 402.188 622.436 491.693 565.984 518.603C538.781 531.473 510.409 518.311 490.811 495.203L482.621 485.551L483.206 485.843Z" fill="#FEFDFE"/>
<path d="M252.134 675.093C252.134 667.78 246.869 663.978 241.897 663.978C236.924 663.978 232.244 668.073 231.952 674.215L229.612 737.98C215.572 737.103 203.287 733.885 190.124 728.328L189.247 656.958C189.247 630.925 200.654 610.45 224.054 598.165L281.969 574.765C293.962 569.793 298.934 555.46 302.737 544.345C323.504 553.12 343.394 554.583 362.992 543.76C365.624 565.99 379.664 577.983 400.724 580.323C362.114 600.505 339.299 633.85 336.959 675.385L333.742 754.068C305.954 753.483 279.629 750.265 252.719 744.123L251.842 675.97L252.134 675.093Z" fill="#FAFAFA"/>
<path d="M783.903 545.51C783.903 548.435 787.705 550.19 788.875 551.945C791.508 557.502 794.433 567.447 801.453 570.372L857.32 593.772C910.555 616.002 898.27 674.21 897.393 728.615C889.788 734.172 879.55 732.71 873.7 735.342H862.293V712.235C869.605 711.65 868.435 699.657 866.68 687.08C866.095 682.4 866.68 677.427 862 675.965V671.87C862 671.87 860.83 669.53 859.66 669.237C857.905 665.435 854.688 662.802 851.47 662.51C841.818 661.632 835.968 669.822 835.675 680.645C817.833 683.57 824.56 702.582 818.125 719.255C824.56 723.35 826.608 731.832 821.343 737.097C819.588 738.852 815.785 739.73 814.908 741.192C814.03 742.362 814.323 745.58 814.908 747.335C805.548 749.09 791.8 751.722 781.27 751.43C774.835 751.43 768.108 749.382 762.843 752.892H758.455L756.115 750.845L755.53 744.117C758.455 744.41 762.55 740.315 761.673 736.22C760.21 729.2 765.768 723.642 765.768 718.67V700.535C765.768 694.1 766.938 685.032 764.305 678.597L752.605 650.225C751.143 646.715 749.973 644.082 746.755 644.375V642.62C746.755 642.62 745.585 640.28 744.415 639.695L737.688 624.192C737.688 624.192 736.225 622.437 735.348 621.56C734.763 620.39 733.3 618.635 733.008 617.172C732.13 611.907 734.178 604.01 732.13 597.867L725.403 579.44C723.648 574.76 720.138 570.08 722.77 564.815C731.838 547.265 740.028 562.182 746.17 551.36H766.645C768.693 551.36 770.74 551.36 771.618 549.02L784.488 545.51H783.903Z" fill="#FAFAFA"/>
<path d="M334.915 527.082C318.535 527.959 307.127 518.599 296.012 509.532C283.727 499.294 278.462 484.084 272.612 469.459C261.79 442.257 263.252 414.469 277.877 388.437C297.767 353.044 346.03 344.562 377.035 372.349C394 387.559 397.802 411.544 398.095 433.189C398.387 462.439 389.905 487.009 370.307 508.654C362.117 517.722 350.125 526.204 335.207 527.082H334.915Z" fill="#FAFAFA"/>
<path d="M712.238 374.105C721.598 376.737 729.788 382.88 733.298 375.567C735.931 370.302 734.761 364.452 735.638 359.48C762.841 350.997 791.506 359.48 809.933 381.417C836.551 434.945 814.321 522.11 759.331 527.96C735.053 530.592 707.558 501.927 698.491 474.14C687.668 440.21 689.423 393.117 712.238 374.105Z" fill="#FAFAFA"/>
<path d="M467.413 535.569C467.413 544.052 464.781 550.487 455.713 553.412L427.926 562.187C423.246 559.262 419.151 557.507 415.056 559.554C412.716 560.724 391.656 553.997 385.513 539.664C394.873 533.522 397.798 523.284 413.301 510.414L422.368 499.007C422.368 510.122 404.526 520.067 399.846 537.032C399.846 544.929 412.423 544.929 417.396 546.392C436.701 552.242 455.128 549.902 467.413 535.277V535.569Z" fill="#D32823"/>
<path d="M690.011 532.058C693.813 536.445 693.521 540.248 693.813 546.683V551.07H691.473L675.093 554.58C659.006 560.43 644.673 557.213 629.463 549.608L612.206 541.71L610.158 534.398C614.838 534.983 616.301 531.765 618.641 527.378L637.361 494.325C641.456 493.74 643.796 491.4 647.306 489.938L623.028 529.718C617.178 539.37 641.456 557.798 686.793 541.125C690.303 539.955 690.303 534.105 690.303 531.473L690.011 532.058Z" fill="#D32823"/>
<path d="M745.58 551.366C739.438 562.189 731.248 547.271 722.18 564.821C719.548 570.086 723.058 574.474 724.813 579.446L731.54 597.874C733.588 604.016 731.54 611.914 732.418 617.179C721.01 601.091 705.215 590.561 685.033 580.324C707.555 578.569 725.105 565.114 726.568 544.639L745.58 551.366Z" fill="#EAE9EA"/>
<path d="M835.085 680.648L833.33 741.195C830.697 747.338 819.29 746.168 814.025 747.045C813.732 745.29 813.44 742.365 814.025 740.903C814.902 739.44 818.705 738.563 820.46 736.808C825.725 731.835 823.97 723.06 817.242 718.965C823.677 702.293 817.242 683.28 834.792 680.355L835.085 680.648Z" fill="#F5F4F4"/>
<path d="M754.65 743.828L752.603 664.853L746.168 644.085C749.385 644.085 750.555 646.425 752.018 649.935L763.718 678.308C766.35 684.743 765.18 693.81 765.18 700.245V718.38C765.18 723.353 759.33 728.91 760.793 735.93C761.67 739.733 757.575 744.12 754.65 743.828Z" fill="#EAE9EA"/>
<path d="M465.365 355.091C470.045 336.664 485.255 321.161 501.342 310.924C503.975 323.209 498.71 333.446 491.982 344.561C488.765 349.826 484.962 358.016 477.65 355.676C475.602 355.091 472.677 351.581 470.922 351.581C468.582 351.581 466.535 353.336 465.365 355.091Z" fill="#EAE9EA"/>
<path d="M691.468 551.363C690.298 554.288 687.373 555.458 683.571 556.921L657.246 566.866L622.146 553.411C616.296 551.071 613.663 546.976 612.201 542.296L629.458 550.193C644.376 557.506 658.708 561.016 675.088 555.166L691.468 551.656V551.363Z" fill="#D7483E"/>
<path d="M637.064 494.913L618.344 527.965C616.004 532.06 614.834 535.57 609.861 534.985C608.106 528.843 610.739 523.578 614.834 517.728L636.186 485.553C639.111 488.478 638.234 491.988 637.064 494.913Z" fill="#D7483E"/>
<path d="M677.722 500.466C667.777 495.201 665.145 486.426 663.39 475.603C661.927 467.121 658.71 458.053 665.145 451.326L678.015 500.466H677.722Z" fill="#D7483E"/>
<path d="M712.24 374.108C718.968 368.551 725.695 361.238 735.64 359.483C734.763 364.456 735.64 370.598 733.3 375.571C729.79 382.883 721.6 376.741 712.24 374.108Z" fill="#EAE9EA"/>
<path d="M861.704 712.24V675.678C866.384 677.433 865.507 682.113 866.092 686.793C867.847 699.663 868.724 711.655 861.704 711.948V712.24Z" fill="#DBDADA"/>
<path d="M457.76 411.253C454.835 405.111 455.127 398.676 457.76 392.826C462.147 397.506 462.147 406.573 457.76 411.253Z" fill="#EAE9EA"/>
<path d="M424.712 440.508C420.325 434.658 422.08 426.761 422.08 420.033C429.392 425.591 425.882 433.488 424.712 440.508Z" fill="#D32823"/>
<path d="M780.391 751.142C774.834 754.36 767.814 752.312 761.964 752.605C767.521 749.095 774.249 750.85 780.391 751.142Z" fill="#EAE9EA"/>
<path d="M460.397 426.756C458.057 425.293 458.35 422.368 458.35 419.736C459.812 419.151 462.445 419.736 463.03 421.198C463.907 423.538 462.445 425.878 460.397 426.756Z" fill="#EAE9EA"/>
<path d="M788.874 551.951C787.704 550.196 784.194 548.734 783.901 545.516C785.364 543.469 788.874 544.346 788.874 546.101V551.951Z" fill="#EAE9EA"/>
<path d="M873.404 735.342C870.479 736.512 861.997 739.437 861.997 735.342H873.404Z" fill="#DBDADA"/>
<path d="M460.688 370.305C460.688 368.55 460.687 366.21 462.735 365.625L464.783 367.672C464.783 367.672 464.782 370.305 463.905 370.305H460.688Z" fill="#EAE9EA"/>
<path d="M458.345 381.709C458.345 379.954 458.345 377.614 460.393 376.736C461.27 377.321 463.318 378.784 462.733 380.246C461.855 382.001 459.515 382.001 458.345 381.709Z" fill="#EAE9EA"/>
<path d="M462.735 438.167C460.687 437.874 460.395 435.242 460.395 433.487C461.565 433.194 463.905 432.902 464.782 434.657C465.367 435.827 463.027 437.289 462.735 438.167Z" fill="#EAE9EA"/>
<path d="M698.489 546.974C697.612 548.729 696.149 551.361 693.809 551.361V546.974H698.489Z" fill="#D7483E"/>
<path d="M771.028 549.023C770.151 551.363 768.103 551.363 766.056 551.363C767.226 549.608 769.273 549.608 771.028 549.023Z" fill="#EAE9EA"/>
<path d="M680.06 503.682C677.427 505.145 677.427 503.097 677.427 501.927C678.012 501.927 679.182 503.682 680.06 503.682Z" fill="#D7483E"/>
<path d="M508.072 308.882C507.194 310.637 505.147 311.222 503.392 311.222C504.269 308.882 506.609 309.467 508.072 308.882Z" fill="#EAE9EA"/>
<path d="M476.482 472.389L474.142 469.464C474.142 469.464 475.897 471.219 476.482 472.389Z" fill="#EAE9EA"/>
<path d="M469.755 458.935C469.755 458.935 468 457.18 467.415 456.01C468.292 456.888 469.17 457.765 469.755 458.935Z" fill="#EAE9EA"/>
<path d="M467.12 452.208C467.12 452.208 465.365 450.453 465.072 449.283C465.95 449.868 467.12 451.038 467.12 452.208Z" fill="#EAE9EA"/>
<path d="M861.416 671.584C861.416 671.584 859.661 669.829 859.076 668.951C860.246 669.244 861.124 670.414 861.416 671.584Z" fill="#DBDADA"/>
<path d="M736.811 624.195C736.811 624.195 735.056 622.44 734.471 621.562C735.348 622.44 736.226 623.025 736.811 624.195Z" fill="#EAE9EA"/>
<path d="M745.873 642.333C745.873 642.333 744.118 640.286 743.826 639.408C744.703 639.993 745.873 641.163 745.873 642.333Z" fill="#EAE9EA"/>
<path d="M757.284 752.892C757.284 752.892 754.944 752.015 754.944 750.552L757.284 752.892Z" fill="#EAE9EA"/>
<path d="M483.208 485.843C483.208 485.843 481.746 483.795 480.868 483.21L483.208 485.843Z" fill="#EAE9EA"/>
<path d="M480.873 481.459L478.533 478.826C478.533 478.826 480.288 480.289 480.873 481.459Z" fill="#EAE9EA"/>
<path d="M467.413 526.205V533.225V535.858C455.128 550.483 436.7 552.53 417.395 546.973C412.715 545.51 400.138 545.51 399.845 537.613C404.525 520.648 422.368 510.703 422.368 499.588C426.463 494.615 428.51 487.595 429.973 482.038C430.558 479.698 433.483 476.773 436.7 472.97L447.815 498.71C452.495 509.533 460.393 518.015 467.705 526.205H467.413Z" fill="#201F1F"/>
<path d="M429.976 481.745C428.514 487.302 426.466 494.322 422.371 499.295L413.304 510.702C412.426 503.975 417.691 499.002 419.739 492.567L427.929 465.072L429.976 481.745Z" fill="#DF2928"/>
<path d="M467.415 532.935V525.915C469.17 525.915 470.047 527.67 469.755 529.425C469.755 530.595 468.877 531.765 467.415 532.642V532.935Z" fill="#D32823"/>
<path d="M690.005 532.06C690.005 534.692 690.005 540.542 686.495 541.712C641.158 558.385 616.88 539.957 622.73 530.305L647.008 490.525C654.905 477.655 655.783 470.342 659.585 472.682C662.218 489.062 667.19 506.027 678.598 518.897L690.005 532.06Z" fill="#201F1F"/>
</svg>
