<svg width="75" height="75" viewBox="0 0 75 75" fill="none" xmlns="http://www.w3.org/2000/svg">
<path d="M49.0625 3.0415C49.1042 3.18734 49.25 3.24984 49.3959 3.229C49.4375 3.229 49.4792 3.20817 49.5209 3.229C49.7292 3.479 50.0625 3.6665 50.0417 4.02067C49.125 4.24984 48.5209 3.18734 47.7917 3.4165C47.4167 3.5415 47.125 3.18734 46.9167 3.18734C45.3959 3.229 44.8334 2.37484 44.3959 2.0415C43.4167 1.31234 41.3542 1.81234 40.4375 1.70817L39.0625 2.20817L36 2.24984C35.5834 1.93734 35.0417 1.83317 34.5417 1.93734C33.7709 2.12484 33.0625 2.06234 32.2709 2.08317C31.8542 2.08317 31.4584 2.27067 31.0209 2.08317C30.4792 2.7915 29.75 3.229 28.8959 3.354C28.7917 3.354 28.75 3.52067 28.7709 3.64567C28.7709 3.52067 28.625 3.56234 28.6667 3.6665C28.1459 3.4165 27.6042 3.37484 27.0209 3.62484C26.2292 3.74984 25.4584 3.95817 24.875 4.5415C24.1042 4.49984 23.4792 4.70817 23.0417 5.27067C21.8334 5.27067 21.0209 6.479 19.9584 6.99984C19.1042 7.43734 18.0417 7.99984 17.5834 8.70817C16.6875 9.08317 15.7917 9.56234 15.2084 10.3332C14.6875 11.0207 13.9584 11.479 13.3959 12.0832L10.7084 14.8957C10.2917 15.3123 10.25 16.104 9.41671 16.1665C9.56254 16.8332 8.97921 17.104 8.52087 17.2498L8.62504 16.4165C8.70837 15.7707 10.875 13.2498 11.9167 12.1873C13.6459 10.4582 15.375 8.7915 17.3334 7.45817C17.4167 7.52067 17.5417 7.479 17.5625 7.43734C17.6042 7.37484 17.625 7.2915 17.6042 7.229L17.8959 7.08317L18.0834 6.9165C18.0834 6.9165 18.25 6.87484 18.3334 6.87484C18.4375 6.87484 18.5417 6.83317 18.5417 6.729C18.6042 6.52067 18.875 6.52067 19 6.4165C19.3542 6.4165 19.7292 6.24984 19.8542 5.9165L20 5.7915C20.2709 5.7915 20.5209 5.68734 20.6667 5.45817H20.7709C20.7709 5.45817 20.9584 5.39567 21 5.2915H21.1042C21.1042 5.2915 21.2709 5.20817 21.3125 5.12484H21.4167C21.7084 5.06234 22.1042 4.99984 22.125 4.64567H22.2292C22.5209 4.64567 22.6875 4.43734 22.7917 4.18734L23.2292 4.14567C23.8125 4.37484 24.2917 4.20817 24.8125 3.81234L25.875 3.02067L27.625 2.4165L32.9375 1.1665L36 0.666504C36.7917 0.541504 37.75 0.541504 38.5417 0.666504L41.9375 1.14567L45.2084 1.87484C46.5417 2.1665 47.8542 2.39567 49.0417 2.99984L49.0625 3.0415Z" fill="#D32823"/>
<path d="M50.0416 3.99982C50.2916 4.27066 50.6666 4.12482 50.9791 3.99982C50.9166 4.16649 51.0208 4.37482 51.2291 4.33316C51.3125 4.33316 51.4166 4.29149 51.5 4.18732L51.8333 4.14566C51.8333 4.14566 51.9375 4.14566 51.9791 4.14566L52.1041 4.47899C52.3333 5.04149 52.9166 5.29149 53.4791 5.58316C53.6666 5.68732 53.7916 6.06232 53.9583 6.14566C54.1666 6.22899 54.4166 6.20816 54.7291 6.10399C55.0208 6.68732 55.5208 7.14566 56.1041 7.02066L56.2083 7.14566C56.1666 7.45816 56.4166 7.54149 56.6666 7.70816L58.7291 9.04149C58.7291 9.04149 58.8958 9.22899 59 9.20816C59.0625 9.20816 59.125 9.12482 59.0833 9.04149C59.875 9.29149 59.8958 10.479 60.7708 10.9582C60.875 11.4582 61.3958 11.6248 61.75 11.979C62.2083 12.4373 62.4791 13.1248 63.1458 13.1665C63.1458 13.229 63.1666 13.3123 63.2291 13.354C63.2916 13.5415 63.4166 13.9582 63.6458 14.104C64.5208 14.6665 64.9583 15.5207 65.4791 16.354C65.9375 17.0623 66.5625 17.6457 66.9375 18.3957C67.0625 18.604 67.1666 18.8748 67.1458 19.1457C67.1458 19.2707 67.1041 19.5415 67.1875 19.6665C67.2708 19.7707 67.625 19.7707 67.7083 19.9165L68.6458 21.7082C68.8958 22.1873 69.2083 22.3123 69.3125 22.9165C69.3541 23.229 69.25 23.729 69.3125 23.979C69.625 24.9165 69.7916 25.8748 70.3125 26.6873C70.7083 26.9165 71.1458 27.0832 71.0208 27.7915L70.6666 28.729C70.4583 28.6248 70.375 28.4165 70.3125 28.1248C69.1041 23.1457 66.7083 18.6457 63.4166 14.7082L59.8125 11.0415C58.4791 9.68732 56.9166 8.66649 55.2916 7.66649C50.125 4.43732 44.3541 2.62482 38.25 2.54149C34.9375 2.49982 31.8125 2.70816 28.7708 3.66649C28.7291 3.54149 28.7708 3.39566 28.8958 3.37482C29.75 3.24982 30.4791 2.81232 31.0208 2.10399C31.4583 2.29149 31.8541 2.10399 32.2708 2.10399C33.0625 2.10399 33.7708 2.14566 34.5416 1.95816C35.0625 1.83316 35.5833 1.95816 36 2.27066L39.0625 2.22899L40.4375 1.72899C41.3541 1.83316 43.4166 1.31232 44.3958 2.06232C44.8333 2.39566 45.3958 3.24982 46.9166 3.20816C47.125 3.20816 47.3958 3.56232 47.7916 3.43732C48.5416 3.20816 49.125 4.27066 50.0416 4.04149V3.99982Z" fill="#DE3C32"/>
<path d="M64.4166 61.4792C64.4166 61.2917 64.5208 61.1667 64.625 61.0208C65.1875 60.2917 65.9166 59.5417 66.4166 58.6667L68.0833 55.6875C68.5 54.9375 68.7708 54.2917 69.2291 53.5833C70.25 52.0417 70.6041 50.1875 71.2083 48.3958C71.0833 47.3958 71.3333 46.4375 71.9791 45.6667L72.3541 43.2917C72.3541 43.2917 72.3541 43.2292 72.3958 43.2083C72.6875 42.5625 72.8125 41.75 72.5208 41.0625C72.625 40.9792 72.625 40.8125 72.6875 40.7083C72.75 40.6042 72.875 40.5208 72.8958 40.375C72.9167 40.2292 72.75 40.1667 72.625 40.1875V39.875C72.7916 39.75 72.9583 39.5 72.9583 39.2292L72.8542 35.0208L72.8125 34.0625C72.8125 33.875 72.8125 33.6875 72.6458 33.5833L72.3541 31.5625C72.2708 30.9583 71.6666 30.6458 71.6041 30.125L71.2708 27.2083L70.7916 25.5833C70.6041 24.9792 70.1875 24.5 69.7708 24.0208C70.1875 22.7083 68.8125 21.3542 68.0625 19.625C67.8958 19.25 67.5208 19.1458 67.1875 19.1875C67.1875 18.9167 67.0833 18.6458 66.9792 18.4375C67.9792 18.2292 66.3333 16.9583 65.8125 16.1042C65.125 15 64.5416 13.7917 63.2708 13.4167C63.2291 13.375 63.1875 13.2917 63.1875 13.2292L61.8125 11.5417C61.5416 11.1875 61.2083 10.9583 60.8125 11.0208C59.9375 10.5417 59.9166 9.33333 59.125 9.10417C59 8.75 58.6458 8.625 58.3333 8.41667C57.6458 7.95833 57 7.45833 56.25 7.22917L56.1458 7.10417C55.5833 6.39583 55.2083 6.20833 54.8333 5.75C55.0625 5.79167 55.2916 5.89583 55.5416 6.0625L58.1041 7.85417L59.7083 9C60.7083 9.97917 61.7083 10.8333 62.7708 11.7292L63.8333 13.0833C64.7291 13.7292 65.2291 14.6042 65.8333 15.4583C66.5625 16.4583 67.375 17.3542 67.9166 18.5C68.4166 19.5417 69.0208 20.5 69.5833 21.5C70.5417 23.2083 71.0208 25.0417 71.6041 26.9167C72.1875 28.7917 72.6041 30.5208 72.75 32.5C72.75 32.6458 72.8125 32.8542 72.9166 32.9167C73 32.9583 73.125 32.9167 73.2708 32.8542V41.5L72.9583 42.3333C72.625 44.6667 71.9583 46.8333 71.375 49.1042C70.7916 51.375 69.9583 53.1667 68.8125 55.0833C68.3333 55.875 68.0417 56.7083 67.5 57.5C66.625 58.75 65.9791 60.0833 64.8958 61.2083C64.75 61.3542 64.6666 61.5417 64.4375 61.5208L64.4166 61.4792Z" fill="#C42420"/>
<path d="M58.75 66.146C58.3959 66.5002 58 66.9168 58.0625 67.4168C58.0625 67.4793 58 67.5835 57.9584 67.6252C57.625 67.4793 57.4375 67.8127 57.1875 67.9377C56.7709 68.1668 56.5209 68.2502 56.2917 68.5627C55.7709 69.2502 54.8542 69.5627 54.0625 69.9793C52.4584 70.8335 50.8959 71.6043 49.1667 72.2085C46.1875 73.2085 43.25 73.9793 40.1667 74.2502C40.3959 73.9377 40.9167 74.0627 41.125 73.7293C41.25 73.521 41.2292 73.271 41.1667 73.0418L43.7709 72.5835L46.8542 71.7502C48.5209 71.2918 50.1875 70.646 51.7709 69.9377C52.6875 69.521 53.4375 69.0002 54.375 68.646C55.7292 68.1252 57.1042 66.1877 58.7917 66.146H58.75Z" fill="#DF2928"/>
<path d="M4.22914 47.229C4.47914 47.729 4.45831 48.2707 4.60414 48.854C4.77081 49.5207 5.20831 50.104 5.31248 50.8123C5.37498 51.229 5.68748 51.7082 5.70831 52.0832C5.70831 52.4998 5.60414 52.7707 5.72914 53.1665C5.85414 53.5623 6.35414 53.5832 6.62498 53.7915L8.08331 56.4165C9.43748 58.8957 10.5833 60.2498 12.6458 62.1665C13.0208 62.5207 13.2916 62.9165 13.75 63.0415C13.7916 63.0832 13.8958 63.1457 13.8333 63.2498L16.0625 65.7082C16.5 66.1873 17.0833 66.479 17.6458 66.9165C17.8541 67.0832 18.5625 66.979 18.5625 67.3957C18.6041 67.4582 18.6458 67.5623 18.7291 67.5832L19.0208 67.7082C19.375 68.8123 20.625 69.5623 20.4791 68.8332L20.7708 68.8748L20.8125 69.6665C20.2291 69.6248 19.9375 69.0415 19.3333 69.0207C19.3125 69.0207 19.25 69.0207 19.2291 69.0207C18.625 68.3123 17.75 67.8332 16.9583 67.3748C16.8958 67.4373 16.8541 67.4165 16.8125 67.4165C16.7916 67.1248 16.5208 66.9582 16.2291 66.9373C16.2083 66.9373 16.1875 66.9373 16.1666 66.9373C15.9791 66.4998 15.5833 65.9582 15.125 65.9582H15.0208C15.0208 65.9582 14.9166 65.8332 14.8541 65.7915C14.8541 65.7707 14.8541 65.729 14.8541 65.7082C14.875 65.4373 14.75 65.2082 14.5 65.0415C13.5208 64.354 13.0416 63.5832 12.1458 62.9998L12 62.9165C11.4166 62.0207 10.1666 60.979 9.85414 60.0415C9.62498 59.354 9.20831 58.9582 8.64581 58.6457C8.41665 58.5207 8.33331 57.9165 7.89581 58.0832L7.95831 57.8957C7.24998 56.3957 6.35414 54.9165 5.52081 53.3748C5.37498 53.104 5.31248 52.8123 5.04164 52.729C5.04164 52.6873 5.04164 52.604 5.04164 52.5832C5.02081 52.2707 5.16664 51.729 4.95831 51.3957C3.89581 49.7082 3.62498 47.3957 3.89581 47.3123C4.02081 47.2707 4.14581 47.2498 4.27081 47.229H4.22914Z" fill="#DF2928"/>
<path d="M8.62499 16.4377L8.52083 17.271L8.37499 17.7085L7.31249 18.771C6.58333 19.5002 6.29166 20.5835 5.93749 21.5418C5.52083 21.7502 5.56249 22.1668 5.43749 22.4168C5.16666 22.9377 4.85416 23.396 4.97916 24.0418C4.37499 24.8127 4.06249 26.0002 4.06249 27.0002V28.5418C4.06249 28.9793 3.91666 29.521 3.20833 29.5627C2.81249 30.6877 2.41666 31.8543 2.39583 33.0418L2.12499 34.0418V36.2502L2.16666 40.2918C2.16666 40.771 2.58333 41.146 2.45833 41.7918C2.33333 42.4377 2.43749 43.1252 2.64583 43.6668C2.74999 43.896 2.83333 44.2293 2.87499 44.4585C2.99999 45.021 2.97916 45.6043 3.37499 46.2085C3.56249 45.9793 3.64583 45.771 3.68749 45.646L3.99999 45.7918C3.99999 46.2502 3.99999 46.8127 4.20833 47.2293C4.08333 47.2293 3.95833 47.2502 3.83333 47.3127C3.56249 47.4168 3.83333 49.7085 4.89583 51.396C5.10416 51.7293 4.95833 52.2918 4.97916 52.5835C4.77083 52.5002 4.56249 52.2502 4.49999 51.9585C4.10416 50.0002 3.10416 48.1252 2.97916 46.771C2.89583 45.896 2.68749 45.1877 2.41666 44.3752C1.74999 42.3543 1.79166 39.0627 1.72916 36.6043C1.68749 34.4585 2.02083 32.4793 2.49999 30.396C3.72916 25.146 5.10416 21.4585 8.06249 16.9168C8.22916 16.6668 8.29166 16.4377 8.58333 16.396L8.62499 16.4377Z" fill="#C42420"/>
<path d="M41.1459 73.0623C41.2084 73.2915 41.2292 73.5415 41.1042 73.7498C40.8959 74.0832 40.375 73.9582 40.1459 74.2707C38.25 74.4373 36.2709 74.4582 34.375 74.2707C34.2292 74.0207 33.9167 74.0415 33.6875 74.104C33.6459 74.104 33.5834 74.104 33.5834 74.0415L30.1667 73.3123C29.75 73.229 29.6459 73.0207 29.3334 72.8748C28.5834 72.4998 27.0625 72.4165 26.9584 71.479L29.5209 72.1873C32.7292 73.0832 35.375 73.354 38.75 73.2082L41.1667 73.104L41.1459 73.0623Z" fill="#DE3C32"/>
<path d="M64.625 61.0205C64.5208 61.1663 64.4375 61.2913 64.4166 61.4788C64.375 61.833 64 62.0205 63.7916 62.3121C63.125 63.2288 62.4791 63.9788 61.625 64.708C60.4583 65.6871 59.3958 66.7913 58.0625 67.4371C58 66.9371 58.3958 66.5205 58.75 66.1663C58.8958 66.0205 59.1666 65.8955 59.2083 65.6663C59.6458 65.6455 59.9791 65.2704 60.0416 64.8538C60.75 63.7079 61.9583 63.2496 62.9166 61.9371C63.1875 61.5621 63.4583 61.1663 63.8958 61.0205C64.1041 60.958 64.375 61.0205 64.6458 61.0205H64.625Z" fill="#D32823"/>
<path d="M22.2917 69.3747L22.6459 69.4163C22.5209 69.7288 22.8334 69.7705 23.0209 69.8955C23.6667 70.3955 24.3125 70.583 25.0417 70.5205C25.0834 70.5205 25.1459 70.5205 25.2084 70.458C25.1667 71.0413 25.9375 70.8538 26.625 71.4788C26.4792 71.7705 26.2709 71.2705 25.0417 71.333H24.5625C24.5625 71.1455 24.4584 71.0205 24.2292 70.8955C24.0417 70.7913 23.7917 70.8955 23.75 71.1663C23.6042 71.0413 23.25 70.9997 23.0625 70.9997H22.9584C22.8334 70.833 22.6459 70.6872 22.4375 70.6663H22.1667L21.9584 70.333C22.0417 70.333 22.1459 70.3538 22.2084 70.333C22.3542 70.2705 22.3542 70.0413 22.1459 69.9997C21.9792 69.9788 21.8542 70.0205 21.8125 70.083C21.7709 70.1455 21.7917 70.2497 21.8125 70.333H21.6875C21.5625 70.1663 21.375 70.0622 21.1667 70.0205C21.125 70.0205 21.0834 70.0205 21.0417 70.0205L20.875 69.6872L20.8334 68.8955C21.2917 68.958 21.5209 69.2705 22.3334 69.3538L22.2917 69.3747Z" fill="#DE3C32"/>
<path d="M26.625 71.479C26.625 71.479 26.875 71.4165 26.9583 71.4373C27.0625 72.3957 28.5833 72.4582 29.3333 72.8332C29.625 72.979 29.7291 73.1873 30.1666 73.2707L33.5833 73.9998C32.5208 74.0415 31.4583 73.8332 30.375 73.5207L25.375 72.104L25.0208 71.3123C26.2708 71.2498 26.4583 71.729 26.6041 71.4582L26.625 71.479Z" fill="#DF2928"/>
<path d="M52.5 4.49984H52.6042L52.8125 4.6665L53.1042 4.81234C53.1042 4.81234 53.2292 4.979 53.3125 4.979H53.4167C53.4167 4.979 53.5417 5.104 53.625 5.14567H53.7292C53.7709 5.33317 53.9375 5.43734 54.125 5.45817H54.5209C54.5209 5.45817 54.625 5.62484 54.7084 5.6665C54.7292 5.6665 54.7709 5.6665 54.7917 5.6665C55.1667 6.12484 55.5417 6.31234 56.1042 7.02067C55.5209 7.14567 55 6.68734 54.7292 6.104C54.4167 6.20817 54.1875 6.24984 53.9584 6.14567C53.7709 6.06234 53.6667 5.68734 53.4792 5.58317C52.9167 5.27067 52.3334 5.02067 52.1042 4.479H52.5V4.49984Z" fill="#D32823"/>
<path d="M11.9792 62.9374C10.5833 62.0624 8.91667 59.6457 7.875 58.1041C8.3125 57.9374 8.39583 58.5416 8.625 58.6666C9.1875 58.9791 9.60417 59.3749 9.83333 60.0624C10.1458 60.9999 11.375 62.0416 11.9792 62.9374Z" fill="#C42420"/>
<path d="M7.95837 57.9167C7.64587 57.875 7.45837 57.5833 7.29171 57.2708C6.77087 56.2083 6.12504 55.2917 5.64587 54.2292L5.02087 52.75C5.31254 52.8333 5.35421 53.125 5.50004 53.3958C6.35421 54.9167 7.25004 56.3958 7.93754 57.9167H7.95837Z" fill="#C42420"/>
<path d="M14.8333 65.7288C13.7917 64.8538 12.625 64.2288 12.125 63.0205C13.0208 63.583 13.5 64.3747 14.4792 65.0622C14.7292 65.2497 14.8542 65.4788 14.8333 65.7288Z" fill="#C42420"/>
<path d="M23.75 71.1667C23.9792 71.3958 24.25 71.4792 24.5625 71.3542H25.0417L25.3958 72.125C24.5833 71.8958 23.375 71.6875 23.0625 71C23.25 71 23.6042 71.0417 23.75 71.1667Z" fill="#C42420"/>
<path d="M25.8958 3.0625L24.8333 3.85417C24.3125 4.25 23.8125 4.41667 23.25 4.1875C23.375 3.9375 23.6875 3.91667 23.9583 3.79167C24.6458 3.5 25.2083 3.08333 25.8958 3.0625Z" fill="#C42420"/>
<path d="M51.8125 4.1875L51.4791 4.22917C51.4166 4.02083 51.1666 3.95833 50.9791 4.04167C50.6666 4.14583 50.2916 4.29167 50.0416 4.04167C50.0416 3.6875 49.75 3.5 49.5208 3.25C50.3125 3.4375 51.1458 3.72917 51.8125 4.22917V4.1875Z" fill="#C42420"/>
<path d="M16.1667 66.9582C15.7083 66.7707 15.2917 66.4582 15.125 65.979C15.6042 65.979 16 66.5207 16.1667 66.9582Z" fill="#C42420"/>
<path d="M19.2292 69.0418L17.2083 67.7918C17.0417 67.6877 16.9167 67.6043 16.9583 67.396C17.75 67.8543 18.625 68.3335 19.2292 69.0418Z" fill="#C42420"/>
<path d="M20.8334 69.6875L21 70.0208L19.625 69.4375C19.4375 69.3542 19.3334 69.1875 19.3334 69.0625C19.9375 69.0833 20.2292 69.6667 20.8125 69.7083L20.8334 69.6875Z" fill="#C42420"/>
<path d="M16.8333 67.4377C16.5417 67.4377 16.3125 67.2502 16.25 66.9585C16.5417 66.9585 16.8125 67.1252 16.8333 67.4377Z" fill="#C42420"/>
<path d="M57.9584 67.6248C57.5209 68.0831 56.8542 68.2498 56.2917 68.5623C56.5209 68.2498 56.7709 68.1664 57.1875 67.9373C57.4375 67.7914 57.625 67.4789 57.9584 67.6248Z" fill="#D32823"/>
<path d="M19.8542 5.93751C19.7292 6.27085 19.375 6.43751 19 6.43751C19.2708 6.22918 19.4583 5.91668 19.8542 5.93751Z" fill="#C42420"/>
<path d="M34.3958 74.2501C34.1666 74.2292 33.875 74.2709 33.7083 74.0834C33.9375 74.0417 34.25 74.0209 34.3958 74.2501Z" fill="#DF2928"/>
<path d="M49.3958 3.229C49.25 3.24984 49.1042 3.18734 49.0625 3.0415C49.1667 3.08317 49.3333 3.06234 49.3958 3.229Z" fill="#C42420"/>
<path d="M17.3333 7.47917C17.3333 7.47917 17.5 7.29167 17.625 7.25C17.625 7.3125 17.625 7.39583 17.5833 7.45833C17.5416 7.5 17.4375 7.5625 17.3541 7.47917H17.3333Z" fill="#C42420"/>
<path d="M52.5 4.5H52.1042L51.9792 4.1875C52.1875 4.25 52.375 4.35417 52.5209 4.5H52.5Z" fill="#C42420"/>
<path d="M21.6458 70.3335C21.4167 70.3335 21.2083 70.2293 21.125 70.021C21.3333 70.0627 21.5208 70.1668 21.6458 70.3335Z" fill="#C42420"/>
<path d="M22.9375 70.979C22.7084 70.979 22.5 70.8748 22.4167 70.6665C22.625 70.6665 22.8125 70.8332 22.9375 70.979Z" fill="#C42420"/>
<path d="M18.3542 6.89583C18.3542 6.89583 18.5417 6.8125 18.5625 6.75C18.5625 6.875 18.4584 6.91667 18.3542 6.89583Z" fill="#C42420"/>
<path d="M15.0208 66.0002C15.0208 66.0002 14.875 65.9168 14.8541 65.8335C14.9166 65.8752 14.9791 65.9377 15.0208 66.0002Z" fill="#C42420"/>
<path d="M54.125 5.45801C53.9375 5.45801 53.7917 5.33301 53.7292 5.14551C53.875 5.20801 54.0209 5.31217 54.125 5.45801Z" fill="#C42420"/>
<path d="M22.1458 70.6455C21.9791 70.6455 21.7916 70.5205 21.7708 70.333H21.9583L22.1666 70.6455H22.1458Z" fill="#C42420"/>
<path d="M53.2916 4.97917C53.2916 4.97917 53.125 4.89583 53.0833 4.8125L53.2916 4.97917Z" fill="#C42420"/>
<path d="M70.6667 28.7289C70.5 29.1664 70.7084 29.7081 70.8542 30.1664C70.875 30.2289 70.9375 30.3122 71 30.3539L71.0625 31.1456C71.9375 35.9581 71.8125 40.8331 70.7084 45.6456C69.1042 52.7081 65.5834 59.0414 60.2084 63.8956C50.6459 72.5622 37.1667 75.4372 25.2084 70.4581C25.1667 70.4997 25.1042 70.5206 25.0417 70.5206C24.9375 70.2914 24.6459 70.2914 24.3959 70.1664L22.6459 69.3956L22.2917 69.3539C21.6042 68.7497 20.7292 68.3956 19.8959 67.8747C17.6875 66.5206 15.8125 64.8331 13.8542 63.2914C13.9375 63.1872 13.8334 63.1039 13.7709 63.0831C13.5834 62.6872 13.2084 62.3747 12.875 62.0206C8.56252 57.4997 5.83335 52.2706 4.33335 46.2081C4.27085 45.9372 4.20835 45.7706 4.10419 45.6247C3.79169 43.6872 3.41669 41.7497 3.41669 39.6872V35.3122C3.41669 33.0206 3.79169 30.7081 4.43752 28.5206L5.54169 24.6872C5.62502 24.4164 5.79169 24.1247 5.91669 23.8747C6.95835 21.7497 7.89585 19.5414 9.35419 17.5622L10.8125 15.6039C12.8125 12.9372 15.625 10.2497 18.4167 8.39558C19.4792 7.68724 20.4584 6.99974 21.6042 6.41641C23.9167 5.27057 26.1875 4.22891 28.6459 3.66641C28.6042 3.56224 28.75 3.52057 28.75 3.64557C31.8125 2.68724 34.9167 2.47891 38.2292 2.52058C44.3334 2.58308 50.0834 4.41641 55.2709 7.64558C56.8959 8.64558 58.4584 9.66641 59.7917 11.0206L63.3959 14.6872C66.6875 18.6247 69.0625 23.1456 70.2917 28.1039C70.375 28.4164 70.4375 28.6039 70.6459 28.7081L70.6667 28.7289ZM18.7084 12.8956C17.9375 13.2914 17.4167 13.9997 16.7084 14.6872C17.3334 15.1039 17.7917 15.4581 18.1667 16.0414C18.4792 16.5414 19 16.8122 19.3959 17.2289C20.2917 18.1664 21.1042 19.1456 22.1042 19.9997C22.9167 20.7081 23.6042 21.4581 24.375 22.2081L26.2709 24.0206L29.4584 27.1664C30.3959 28.0831 31.2917 28.9581 32.2084 29.8956L33.75 31.4372L39.0625 36.8956C39.4167 37.2497 39.6875 37.5206 40.0625 37.8747L48.8542 46.6039L49.5417 47.2914L52.9375 50.6247C53.5209 51.2081 54.0625 51.7497 54.6459 52.3122L57.5625 55.1872C58.6042 56.2081 59.4792 57.3122 60.6459 58.1872C61.1042 57.6247 61.5209 57.1247 61.7917 56.5414C61.75 56.4997 61.7709 56.4581 61.7917 56.4164C62.0417 56.3747 62.2709 56.2289 62.3334 55.9581V55.8539C62.5834 55.8122 62.5625 55.5831 62.6459 55.4581C64.8125 52.2289 66.4584 48.6456 67.1875 44.8331C67.2917 44.6872 67.4167 44.4789 67.4375 44.2706L67.4792 43.8122C67.7709 42.5622 68.0417 41.2706 68.0625 39.9789L68.1042 35.9372C68.1042 34.6456 67.7917 33.3122 67.5625 32.0414C67.5625 31.9581 67.4584 31.8331 67.4792 31.7289C67.5209 31.5414 67.4792 31.3331 67.3125 31.2289V30.7706C67.3334 30.6247 67.2917 30.4997 67.1667 30.4164C67.2084 29.7914 66.9792 29.2081 66.7709 28.5831L66.0209 26.4164C65.3959 24.6039 64.625 22.8956 63.5 21.3956C63.5417 21.3539 63.5625 21.2706 63.5625 21.2289L62.5625 19.7081C61.6667 18.3331 60.75 16.9997 59.6042 15.9164C59.5625 15.8747 59.4584 15.8331 59.4167 15.7706C59.2292 15.4372 58.9375 15.1664 58.625 14.9581C58.5625 14.9164 58.5417 14.8331 58.5 14.7914C57.875 14.0414 57.1459 13.3956 56.3334 12.8539C56.3125 12.8747 56.2709 12.8747 56.25 12.8539C55.9167 12.3331 55.3334 11.8956 54.7709 11.6247C54.7292 11.6039 54.6667 11.5622 54.6459 11.4997C52.8959 10.3539 51.0834 9.18724 49.0625 8.37474C48.5625 8.18724 48.1042 8.08307 47.6875 7.95807H47.6042C47.4792 7.70807 47.25 7.64558 46.9584 7.56224C44.2709 6.74974 41.6459 6.06224 38.7917 5.95807C31.4375 5.68724 24.3542 8.20807 18.75 12.8331L18.7084 12.8956ZM7.58335 44.0622V44.3539L8.29169 47.3539C8.33335 47.4789 8.47919 47.5622 8.52085 47.6039V47.7497C8.52085 47.9789 8.54169 48.2081 8.68752 48.3747C8.75002 48.4372 8.79169 48.6039 8.81252 48.7081C8.89585 48.9789 8.95835 49.2914 9.16669 49.4997V49.6664C9.16669 49.9372 9.20835 50.2289 9.41669 50.3747C12.1042 56.4164 16.4792 61.5414 22.1459 65.0622C23 65.6039 23.7292 65.9372 24.6459 66.3331C26.875 67.2706 29.0834 68.3122 31.4584 68.6247C33.75 69.1456 36.2084 69.4997 38.6875 69.3122C44.0625 68.8956 47.5834 67.7914 52.25 65.2914C54.3334 64.1664 56.1459 62.7081 57.8959 61.0831C58.125 60.8747 57.6667 60.3122 57.4375 60.2914C57.2709 60.2914 57.1459 59.9372 57 59.7914L51.5834 54.3956C51.2292 54.0414 50.7292 53.8539 50.5625 53.3539C50.4584 53.0622 50.0834 52.9372 49.875 52.7081L49.75 52.5622L48.2709 51.0622L46.8334 49.6664C46.6042 49.3331 46.2917 49.0831 46 48.8122L45.8542 48.6872C45.8542 48.6872 45.6875 48.5622 45.6667 48.4997C45.5834 48.2914 45.375 48.1664 45.2292 48.0206L44.2084 47.0622L44.0625 46.9164L43.25 46.0831C43.25 46.0831 43.1459 45.9997 43.1042 45.9372C42.9375 45.6664 42.6667 45.4789 42.4375 45.2706L42.2917 45.1247C41.3542 44.2289 40.1667 42.9581 39.0834 41.8539L29.5209 32.3331L22.6875 25.5206L20.0209 22.8539C19.4167 22.2497 18.8125 21.7081 18.25 21.0622C17.7292 20.4581 17.0209 20.0622 16.5625 19.3747C16.1459 18.7497 15.5209 18.3539 15.0834 17.8331C14.9167 17.6456 14.7917 17.4372 14.5625 17.3331C14.5417 17.2914 14.5 17.2289 14.4375 17.2081C14 17.1456 12.4792 19.3539 11.7709 20.5622C10.3125 23.0831 9.04169 25.6039 8.18752 28.3956C6.68752 33.2706 6.37502 38.3122 7.25002 43.3122C7.31252 43.6247 7.43752 43.8331 7.60419 43.9789L7.58335 44.0622Z" fill="white"/>
<path d="M28.6667 3.68766C26.2083 4.25016 23.9375 5.27099 21.625 6.43766C20.4583 7.02099 19.5 7.70849 18.4375 8.41682C15.6458 10.271 12.8333 12.9585 10.8333 15.6252L9.375 17.5835C7.91667 19.5418 6.97917 21.771 5.9375 23.896L5.5 23.6877L5.5625 23.0835C5.72917 23.1252 5.91667 23.0835 5.97917 22.9377C6.02083 22.8335 5.97917 22.5418 6.04167 22.4585C6.60417 21.5835 6.64583 20.4377 6.97917 20.021C7.52083 19.3543 8.54167 18.771 8.39583 17.7085L8.54167 17.271C9 17.1252 9.58333 16.8543 9.4375 16.1877C10.2708 16.1252 10.3333 15.3335 10.7292 14.9168L13.4167 12.1043C14 11.5002 14.7292 11.0418 15.2292 10.3543C15.8333 9.56266 16.7292 9.10432 17.6042 8.72932C18.0417 8.02099 19.1042 7.45849 19.9792 7.02099C21.0417 6.47932 21.875 5.29182 23.0625 5.29182C23.5 4.72932 24.1458 4.52099 24.8958 4.56266C25.4583 3.97932 26.2292 3.79182 27.0417 3.64599C27.6042 3.39599 28.1458 3.43766 28.6875 3.68766H28.6667Z" fill="#DE3C32"/>
<path d="M72.3541 31.5209L71.3541 31.4167C71.3541 31.4167 71.3333 31.2292 71.2291 31.1459C71.1875 31.125 71.1041 31.1042 71.0416 31.125L70.9791 30.3334C70.9791 30.3334 70.9166 30.1667 70.8333 30.1459C70.6875 29.6875 70.4791 29.1667 70.6458 28.7084L71 27.7709C71.1041 27.0625 70.6875 26.8959 70.2916 26.6667C69.7708 25.8334 69.6041 24.8959 69.2916 23.9584C69.2083 23.7084 69.3125 23.1875 69.2916 22.8959C69.2083 22.2917 68.875 22.1667 68.625 21.6875L67.6875 19.8959C67.6041 19.75 67.25 19.75 67.1666 19.6459C67.0833 19.5209 67.125 19.2709 67.125 19.125C67.4583 19.1042 67.8333 19.1875 68 19.5625C68.75 21.2917 70.125 22.6459 69.7083 23.9584C70.125 24.4167 70.5625 24.9167 70.7291 25.5209L71.2083 27.1459L71.5416 30.0625C71.6041 30.5834 72.2083 30.8959 72.2916 31.5L72.3541 31.5209Z" fill="#DF2928"/>
<path d="M66.9375 18.3957C66.5416 17.6665 65.9375 17.0623 65.4791 16.354C64.9375 15.5207 64.5 14.6665 63.6458 14.104C63.4166 13.9582 63.2916 13.5415 63.2291 13.354C64.5 13.729 65.0833 14.9373 65.7708 16.0415C66.2916 16.8957 67.9375 18.1665 66.9375 18.3748V18.3957Z" fill="#DF2928"/>
<path d="M63.1459 13.1872C62.4792 13.1455 62.1875 12.458 61.75 11.9997C61.3959 11.6455 60.875 11.458 60.7709 10.9789C61.1667 10.9164 61.4792 11.1664 61.7709 11.4997L63.1459 13.1872Z" fill="#DF2928"/>
<path d="M59.0833 9.04183C59.0833 9.04183 59.0625 9.2085 59 9.2085C58.8958 9.22933 58.7916 9.0835 58.7291 9.04183L56.6666 7.7085C56.4166 7.54183 56.1666 7.4585 56.2083 7.146C56.9583 7.37516 57.6041 7.87516 58.2916 8.3335C58.6041 8.54183 58.9791 8.646 59.0833 9.021V9.04183Z" fill="#D32823"/>
<path d="M51.5 4.2085C51.5 4.2085 51.3334 4.3335 51.2292 4.35433C51.0209 4.37516 50.9167 4.18766 50.9792 4.021C51.1875 3.9585 51.4375 4.021 51.4792 4.2085H51.5Z" fill="#D32823"/>
<path d="M72.3542 43.2708L71.9792 45.6458C71.3333 46.4167 71.1042 47.375 71.2083 48.375C70.6042 50.1667 70.25 52.0208 69.2292 53.5625C68.7708 54.2708 68.5 54.9167 68.0833 55.6667L66.4167 58.6458C65.9375 59.5208 65.1875 60.2708 64.625 61C64.375 60.9583 64.0833 60.9167 63.875 61L65.2708 58.7917C65.75 58.0833 66.0833 57.3125 66.7708 56.7292C67.2083 55.2917 68.125 54.125 68.7917 52.8542L69.4375 51.0417L70 49.375L71.1458 44.9792L71.3958 43.5208L72.3333 43.25L72.3542 43.2708Z" fill="#DF2928"/>
<path d="M72.3542 31.5208L72.6459 33.5417C72.6667 33.7083 72.5625 33.9583 72.8125 34.0208L72.8542 34.9792C72.4375 35.2708 72.6875 35.7708 72.7084 36.1667L72.7709 37.5625C72.8125 38.2083 72.5209 38.8125 72.625 39.4583C72.3334 39.5208 72.1667 39.4792 71.9792 39.4583L71.9167 35.7708C71.9167 34.8333 71.7292 33.9792 71.7917 33.0208C71.8125 32.4167 71.4792 31.875 71.3542 31.375L72.3542 31.4792V31.5208Z" fill="#DE3C32"/>
<path d="M72.6458 39.854V40.1665C72.5625 40.2915 72.4583 40.3957 72.25 40.4373C72.375 40.7498 72.5416 40.6873 72.6875 40.6873C72.625 40.7915 72.625 40.9582 72.5208 41.0415C71.9375 41.5415 72.0208 42.5415 72.3958 43.1873C72.3541 43.1873 72.3541 43.2498 72.3541 43.2707L71.4166 43.5415C71.625 42.3332 71.9375 40.8748 71.9583 39.8748H72.625L72.6458 39.854Z" fill="#DE3C32"/>
<path d="M72.6459 39.8543H71.9792V39.5002C72.1667 39.5002 72.3334 39.5418 72.625 39.5002C72.5209 38.8543 72.7917 38.2502 72.7709 37.6043L72.7084 36.2085C72.7084 35.8127 72.4375 35.2918 72.8542 35.021L72.9584 39.2293C72.9584 39.521 72.7917 39.7502 72.6459 39.8752V39.8543Z" fill="#DF2928"/>
<path d="M72.5209 41.042C72.8125 41.7295 72.6875 42.542 72.3959 43.1878C72.0209 42.542 71.9375 41.542 72.5209 41.042Z" fill="#DF2928"/>
<path d="M72.6666 40.6876C72.5416 40.6876 72.3541 40.7501 72.2291 40.4376C72.4375 40.3959 72.5416 40.2918 72.6041 40.1668C72.7291 40.1459 72.8958 40.2293 72.875 40.3543C72.8541 40.5001 72.7291 40.5834 72.6666 40.6876Z" fill="#DF2928"/>
<path d="M72.7917 34.0417C72.5417 33.9583 72.6458 33.7083 72.625 33.5625C72.7917 33.6667 72.7917 33.875 72.7917 34.0417Z" fill="#DF2928"/>
<path d="M71.3542 31.4167C71.4792 31.9167 71.8333 32.4583 71.7917 33.0625C71.75 34.0208 71.9167 34.875 71.9167 35.8125L71.9792 39.5V39.8542C71.9375 40.8542 71.625 42.3333 71.4167 43.5208L71.1667 44.9792L70.0208 49.375L69.4583 51.0417L68.8125 52.8542C68.1458 54.1458 67.2292 55.3125 66.7917 56.7292C66.125 57.3125 65.7708 58.0833 65.2917 58.7917L63.8958 61C63.4792 61.1458 63.2083 61.5208 62.9167 61.9167C61.9792 63.2292 60.75 63.6875 60.0417 64.8333C59.6042 64.8958 59.2917 65.25 59.2083 65.6458C59.1458 65.8958 58.8958 66 58.75 66.1458C57.0625 66.1875 55.6875 68.125 54.3333 68.6458C53.3958 69 52.6667 69.5208 51.7292 69.9375C50.1458 70.6458 48.4792 71.3125 46.8125 71.75L43.7292 72.5833L41.125 73.0417L38.7083 73.1458C35.3333 73.2917 32.6875 73.0208 29.4792 72.125L26.9167 71.4167C26.9167 71.4167 26.6667 71.4167 26.5833 71.4583C25.8958 70.8542 25.125 71.0417 25.1667 70.4375C37.1458 75.4167 50.6042 72.5417 60.1667 63.875C65.5417 59 69.0625 52.6667 70.6667 45.625C71.7708 40.7917 71.8958 35.9167 71.0208 31.125C71.0833 31.125 71.1667 31.125 71.2083 31.1458C71.3125 31.2083 71.3125 31.3125 71.3333 31.4167H71.3542Z" fill="#D7483E"/>
<path d="M13.7708 63.0835C13.3125 62.9377 13.0416 62.5627 12.6666 62.2085C10.6041 60.2918 9.45829 58.9377 8.10413 56.4585L6.64579 53.8335C6.37496 53.6252 5.87496 53.6043 5.74996 53.2085C5.62496 52.8127 5.74996 52.521 5.72913 52.1252C5.72913 51.7502 5.39579 51.271 5.33329 50.8543C5.22913 50.1252 4.79163 49.5418 4.62496 48.896C4.47913 48.3127 4.47913 47.771 4.24996 47.271C4.04163 46.8543 4.04163 46.2918 4.04163 45.8335C4.04163 45.771 4.04163 45.6877 4.10413 45.646C4.20829 45.7918 4.27079 45.9585 4.33329 46.2293C5.83329 52.2918 8.56246 57.521 12.875 62.0418C13.2083 62.396 13.5833 62.7085 13.7708 63.1043V63.0835Z" fill="#D7483E"/>
<path d="M22.2916 69.3748C21.4791 69.2915 21.2291 68.979 20.7916 68.9165L20.5 68.8748C20.3333 68.1873 19.625 68.0207 19.0416 67.7498L18.75 67.6248C18.75 67.6248 18.5833 67.4998 18.5833 67.4373C18.5833 67.0207 17.875 67.1248 17.6666 66.9582C17.1041 66.5207 16.5208 66.2498 16.0833 65.7498L13.8541 63.2915C15.8333 64.854 17.6875 66.5415 19.8958 67.8748C20.7291 68.3957 21.6041 68.7498 22.2916 69.354V69.3748Z" fill="#D7483E"/>
<path d="M20.4792 68.875C20.625 69.6042 19.375 68.875 19.0209 67.75C19.625 68 20.3125 68.1875 20.4792 68.875Z" fill="#DE3C32"/>
<path d="M18.7292 67.625C18.7292 67.625 18.6042 67.5 18.5625 67.4375C18.5625 67.5 18.6875 67.6042 18.7292 67.625Z" fill="#DE3C32"/>
<path d="M4.4375 28.5208C3.79167 30.7292 3.4375 33.0208 3.4375 35.3125C3.375 35.3125 3.22917 35.3125 3.1875 35.3125C3.125 35.3542 3.10417 35.4792 3.10417 35.625L3.02083 41.8125C3.02083 42.4792 2.91667 43.0833 2.66667 43.6458C2.4375 43.125 2.33333 42.4167 2.47917 41.7708C2.625 41.125 2.20833 40.7708 2.1875 40.2708L2.125 36.2292C3.39583 35.7083 2.41667 34.6875 2.79167 33.875C2.95833 33.5208 2.77083 33.0417 2.41667 33C2.41667 31.8125 2.83333 30.6458 3.22917 29.5208C3.9375 29.4583 4.0625 28.9375 4.0625 28.5H4.4375V28.5208Z" fill="#DF2928"/>
<path d="M3.41663 35.3125V39.6875C3.41663 41.75 3.77079 43.6875 4.08329 45.625C4.02079 45.6667 4.02079 45.75 4.02079 45.8125L3.70829 45.6667C3.91663 45.1042 3.39579 44.7292 2.89579 44.4792C2.85413 44.25 2.77079 43.9167 2.66663 43.6875C2.89579 43.125 2.99996 42.5208 3.02079 41.8542L3.10413 35.6667C3.10413 35.5208 3.10413 35.4167 3.18746 35.3542C3.22913 35.3125 3.37496 35.3125 3.43746 35.3542L3.41663 35.3125Z" fill="#DE3C32"/>
<path d="M5.52083 23.1043C5.52083 22.896 5.72917 22.5627 5.4375 22.4168C5.5625 22.1668 5.52083 21.7502 5.9375 21.5418C6.3125 20.5835 6.60417 19.5002 7.3125 18.771L8.375 17.7085C8.52083 18.771 7.5 19.3543 6.95833 20.021C6.625 20.4377 6.5625 21.5835 6.02083 22.4585C5.95833 22.5418 6.02083 22.8335 5.95833 22.9377C5.89583 23.0627 5.70833 23.146 5.54167 23.0835L5.52083 23.1043Z" fill="#DF2928"/>
<path d="M5.91667 23.896C5.79167 24.146 5.625 24.4377 5.54167 24.7085C4.6875 25.3543 4.6875 26.5418 4.0625 27.021C4.0625 26.021 4.375 24.8335 4.97917 24.0627C5.10417 23.9585 5.41667 23.9377 5.47917 23.7085L5.91667 23.9168V23.896Z" fill="#DF2928"/>
<path d="M2.10419 36.2708V34.0625L2.39585 33.0625C2.75002 33.0833 2.93752 33.5833 2.77085 33.9375C2.39585 34.75 3.37502 35.7708 2.10419 36.2917V36.2708Z" fill="#D32823"/>
<path d="M4.4375 28.5208H4.0625V27C4.6875 26.5208 4.66667 25.3333 5.54167 24.6875L4.4375 28.5208Z" fill="#DE3C32"/>
<path d="M3.70831 45.646C3.66665 45.771 3.58331 45.9793 3.39581 46.2085C3.02081 45.6043 3.02081 45.0002 2.89581 44.4585C3.39581 44.7085 3.91665 45.0835 3.70831 45.646Z" fill="#DF2928"/>
<path d="M5.52083 23.1042L5.45833 23.7083C5.41666 23.9375 5.10416 23.9792 4.95833 24.0625C4.85416 23.4167 5.16666 22.9583 5.41666 22.4375C5.70833 22.5833 5.5 22.8958 5.5 23.125L5.52083 23.1042Z" fill="#D32823"/>
<path d="M60.0416 64.8335C59.9791 65.2502 59.6458 65.6252 59.2083 65.646C59.2916 65.2293 59.6041 64.896 60.0416 64.8335Z" fill="#DF2928"/>
<path d="M25.0417 70.5207C24.2917 70.5623 23.6667 70.3748 23.0208 69.8957C22.8542 69.7707 22.5208 69.729 22.6458 69.4165L24.3958 70.1873C24.6667 70.3123 24.9375 70.3123 25.0417 70.5415V70.5207Z" fill="#D7483E"/>
<path d="M24.5625 71.3538C24.25 71.4788 23.9792 71.3955 23.75 71.1663C23.8125 70.8747 24.0417 70.7913 24.2292 70.8955C24.4375 71.0205 24.5417 71.1455 24.5625 71.3538Z" fill="#DF2928"/>
<path d="M21.9583 70.3332H21.7708C21.7708 70.3332 21.7708 70.1457 21.7708 70.0832C21.8125 70.0207 21.9375 69.9582 22.1041 69.9998C22.3125 70.0415 22.3125 70.2707 22.1666 70.3332C22.1041 70.354 22 70.3332 21.9166 70.3332H21.9583Z" fill="#DF2928"/>
<path d="M29.5209 32.3958L30.9167 34.1249L36.5834 39.8749C38.1875 41.4999 39.75 42.9999 41.4792 44.4999C41.75 44.7291 41.8542 45.2291 42.2917 45.1666L42.4375 45.3124C42.5834 45.6041 42.8125 45.8333 43.1042 45.9791C43.125 46.0208 43.2084 46.0833 43.25 46.1249C43.3542 46.5208 43.6667 46.9166 44.0625 46.9583L44.2084 47.1041C44.2709 47.5833 44.7709 47.9374 45.2292 48.0624C45.375 48.2083 45.5834 48.3124 45.6667 48.5416C45.7084 48.6249 45.7709 48.6874 45.8542 48.7291L46 48.8541C46.1459 49.2499 46.5417 49.4166 46.8334 49.7083L48.2709 51.1041C48.6459 51.6874 49.1667 52.2083 49.75 52.6041L49.875 52.7499C50 53.0416 50.1667 53.4166 50.5625 53.3958C50.75 53.8958 51.2292 54.0833 51.5834 54.4374L57 59.8333C57.1459 59.9791 57.2709 60.3124 57.4375 60.3333C57.375 60.8124 56.8125 60.2083 55.9375 60.2083C55.3334 59.9999 55.1459 59.3541 54.6459 58.9374L52.8125 57.3958C52.4584 57.1041 52.25 56.7291 51.8334 56.5833V56.4583L51.6042 56.3124L50.8125 55.6666C50.6875 55.2916 50.9584 54.7916 50.875 54.3958C50.1042 53.1041 49.125 54.0624 48.5417 53.3749C48.0417 52.7499 47.3334 52.2708 46.8125 51.6874L45.6459 50.3749C45.6459 49.4374 45.1459 48.6249 44.3125 48.1041L43.4792 47.5833C43.2084 47.4166 43.4167 46.2499 41.5625 46.2916C41.5 46.2083 41.3542 46.0624 41.25 45.9999C41.3334 45.5624 41.1459 45.2708 40.8542 44.9166C40.5625 44.5624 40.4167 43.9999 39.9792 43.6874L38.9792 43.4374C39.0209 42.9583 38.5417 42.8124 38.3125 42.6458C38.1875 41.0416 36.4167 41.1874 35.375 39.1458C35.1042 38.6041 34.5834 38.5416 34.0625 38.4999C33.0834 37.1666 33 36.5208 31.4167 35.3124C30.8125 34.8541 30.4792 34.1458 29.9792 33.5416C29.4584 33.4999 29 33.6041 28.6042 33.3749C28.5417 33.3749 28.4375 33.3749 28.3959 33.4166C28.3959 33.1249 28.2084 33.0208 27.9792 32.8124L26.2709 31.2291C26.0625 31.0416 25.6875 30.7916 25.5417 30.5833L24.6875 29.3749C25.625 28.2083 24.0834 28.4999 23.1459 26.9583C22.75 26.3124 21.9584 25.9583 21.5209 25.3958C21.1875 24.9791 20.875 24.7499 20.5209 24.3958C19.9375 23.8124 19.4167 22.9791 18.5209 22.9583L18.3542 22.7708C18.375 22.2916 17.7709 21.9999 17.5625 21.6249C17.3334 21.2291 17.2292 20.8541 16.75 20.8958L16.5625 20.8124C16.5625 20.6458 16.5209 20.4791 16.4375 20.3749C16.2709 20.1458 16.0417 20.1458 15.8125 20.2499L15.2917 19.3749C15.2917 18.9583 15.125 18.6041 14.9167 18.2916C14.875 18.2083 14.8125 18.0833 14.8334 17.9791C14.8334 17.8958 14.9375 17.8541 15.0209 17.8749C15.4584 18.3749 16.0834 18.7916 16.5 19.4166C16.9584 20.1041 17.6667 20.5208 18.1875 21.1041C18.75 21.7499 19.3542 22.3124 19.9584 22.8958L22.625 25.5624L29.4584 32.3749L29.5209 32.3958Z" fill="#DE3C32"/>
<path d="M14.9583 18.3123C15.1667 18.6248 15.3333 18.979 15.3333 19.3957L14.7917 18.8957C14.2708 18.979 13.9167 19.604 13.9167 20.0832C13.9167 20.1248 13.9167 20.1457 13.9167 20.1665C13.8125 20.1665 13.75 20.2498 13.75 20.354V20.4582C13.625 20.5207 13.5625 20.6665 13.5625 20.8123H13.4583C13.2917 20.8123 13.2292 20.9998 13.2708 21.1457C12.0208 22.4998 11.5417 24.9998 10.3333 26.729C10.1875 26.9373 9.91667 26.9582 9.8125 27.4165C9.52083 28.5623 8.875 29.2498 8.625 30.0623L9.08333 30.3332V31.479V31.7915C8.875 32.1457 8.6875 32.729 8.95833 33.104C8.875 33.3332 8.89583 33.6457 8.8125 33.9165C8.41667 34.229 8.29167 34.9582 8.625 35.354C8.5625 35.4373 8.60417 35.6248 8.60417 35.7082C8.54167 35.7082 8.4375 35.7082 8.39583 35.7082C8.3125 35.7498 8.33333 35.8957 8.33333 35.979C7.89583 38.1873 8.20833 40.3123 8.75 42.4373C9.29167 44.5623 9.02083 46.8332 9.625 47.854C9.9375 48.3957 10.1875 48.7082 9.91667 49.354C10.375 49.4373 10.4792 49.9373 10.6875 50.2082C11.4167 51.1457 11.875 52.104 12.0417 53.2498C11.8542 53.2915 11.6042 53.2498 11.5833 53.0832L11.5 52.4582C11.0208 51.6457 10.5208 50.9373 10.1458 50.0832C10.0208 49.8123 9.79167 49.6873 9.5625 49.6873H9.41667C9.4375 49.4998 9.41667 49.3123 9.25 49.2082C9.20833 48.9998 9.08333 48.8332 8.89583 48.729C8.875 48.6457 8.83333 48.479 8.77083 48.3957C9 48.3332 8.9375 48.1665 8.875 48.0623C8.79167 47.9165 8.72917 47.8332 8.60417 47.7707V47.6248C8.54167 46.604 8.20833 45.1248 7.625 44.3748V44.0832L7.1875 40.9998V35.6873C7.1875 33.3957 8.27083 28.4998 9.27083 26.479L11.4167 22.1457C11.8125 21.3332 12.25 20.5415 12.75 19.8123L13.9167 18.104C14.3125 18.2707 14.625 18.5207 15.0208 18.3332L14.9583 18.3123Z" fill="#DF2928"/>
<path d="M19.7916 12.375C19.9375 12.4375 20.0208 12.4375 20.0833 12.4792C20.4791 12.75 20.0208 13.3333 19.8958 13.6875C19.7083 14.2083 19.0625 14.3542 19.0625 14.7708C19.0625 15.2708 21.2708 16.7083 22.1875 18C22.0416 18.4167 22.5208 19.0208 23.1458 18.8958C22.2708 17.6458 23.0416 17 23.0833 15.9792L23.3958 15.6875C23.6666 15.6875 24.125 15.75 24.375 15.5208C24.5833 15.3542 24.5416 14.9792 24.5833 14.8125L25.6458 14.5625C25.8125 14.5208 26.0208 14.5625 26.1666 14.5208C26.25 14.4792 26.3333 14.3958 26.3125 14.2083C26.8125 14.2917 27.3958 14.1875 27.9166 14.125V14.3958C26.125 14.3958 23.0208 16.6042 23.625 19.1458C23.8125 19.8958 24.6666 20.2292 25.2916 20.8542C25.5208 21.1667 25.8125 21.5417 26.0833 21.8333C26.5416 22.3333 27.0208 22.75 27.625 23.2083C27.875 23.3958 28.0416 23.75 28.3958 23.7292C28.6458 24.3542 29.2083 24.8125 29.6875 25.2917C30.0208 27.3333 30.375 26.8333 30.9583 27.1667C31.2916 27.3542 31.4791 27.875 31.9166 27.7292C31.9583 27.7292 32.0208 27.7917 32.125 27.7292C32.1666 28.6875 33.3333 28.6042 33.0416 29.8958L31.9583 29.0417C31.6041 28.7708 31.4583 28.5625 31.125 28.25L28.5833 25.8125L26.7291 24.1042C26.5833 23.9583 26.4375 23.9167 26.2708 24.0417L24.375 22.2292C23.6041 21.4792 22.9166 20.7292 22.1041 20.0208C21.1041 19.1458 20.2916 18.1875 19.3958 17.25C19 16.8333 18.4791 16.5625 18.1666 16.0625C17.7916 15.4792 17.3333 15.125 16.7083 14.7083C17.4166 14 17.9583 13.2917 18.7083 12.9167C19.1458 12.6875 19.4791 12.5 19.7916 12.375Z" fill="#D8332D"/>
<path d="M57.4583 60.3127C57.6875 60.3335 58.1667 60.8752 57.9167 61.1043C56.1875 62.7293 54.3542 64.1877 52.2708 65.3127C47.6042 67.8127 44.0833 68.9168 38.7083 69.3335C36.2292 69.521 33.7708 69.1877 31.4792 68.646C31.4792 68.4377 31.2083 68.1877 31.0417 68.2293C30.3958 68.4168 30.2292 67.6877 29.9167 67.5627C29.4375 67.3752 28.9583 67.3335 28.5208 67.0002C28.3125 66.8335 27.7083 66.9377 27.6875 66.4793H28.4167H28.7292C28.7292 66.6252 28.8542 66.6877 29.0417 66.7918L30.8542 67.5418C31.3958 67.771 31.9167 67.771 32.3125 68.1877C32.6458 68.146 33.1667 68.021 33.5417 68.271C34.4583 67.9585 35.3542 68.271 35.6458 67.9377C35.7292 67.9377 35.875 67.9168 35.9583 67.9377C36.4375 68.1668 37.125 68.1668 37.5833 67.9168H37.8958H40C40.0833 67.9793 40.1875 68.0627 40.2708 68.0835C40.4792 68.1043 40.5833 67.9168 40.5 67.7502H41.1458C41.2917 67.7502 41.4167 67.7293 41.4583 67.5835H42.2708H42.4375H42.75C42.9583 67.9585 43.4583 67.6252 43.7083 67.6252C44.5 67.6252 44.875 67.2293 45.4375 66.9168C46.5208 66.3127 47.8958 66.4585 49.0208 66.1877C49.8125 65.9793 50.4167 65.6252 51.1042 65.3543C51.6042 65.146 51.8333 64.8127 52.2292 64.521C52.7917 64.1252 53.4167 63.9793 53.8125 63.3335C54.0208 63.0002 55.1042 63.1043 55.1042 62.8127V62.3335L56.2292 61.4377C56.4167 61.2918 56.375 60.9377 56.2708 60.7918C56.2292 60.7085 56.0625 60.646 55.9167 60.6668C55.9167 60.646 55.9167 60.6043 55.9167 60.5835V60.2085C56.7708 60.2085 57.3333 60.8127 57.3958 60.3335L57.4583 60.3127Z" fill="#D8332D"/>
<path d="M59.5416 16.3751V16.6043C59.625 17.396 60.7291 18.0835 61.2291 19.2293C61.4583 19.7501 61.7291 19.9793 62.2916 19.8543L63 20.8751C63.1458 21.1043 63.3125 21.2293 63.5208 21.2501C63.5208 21.3126 63.4791 21.396 63.4583 21.4168C62.5833 22.3751 64.1875 22.9376 64.9166 24.9376L65.3541 26.1251C65.7083 27.0835 66.3333 28.0626 66.1041 29.146C65.9166 30.0418 66.3958 31.3751 67.2291 31.3751L67.2708 31.7501C67.2708 31.7501 67.1458 31.8751 67.1667 31.9585C67.1875 32.021 67.2708 32.0626 67.3125 32.0835C67.1875 32.5418 67.4791 33.0418 67.5416 33.5418L67.7708 35.4793C67.7708 35.6251 67.75 35.8543 67.8541 35.9376C67.8958 35.9793 68 35.9793 68.0833 35.9585L68.0416 40.0001C67.625 39.9168 67.8125 40.6251 67.5208 40.771C67.4375 40.8126 67.2292 40.771 67.1667 40.6876C67.1042 40.6043 67.25 40.396 67.2916 40.271C67.5625 39.5835 67.1666 38.7501 67.3333 38.0626C67.5416 37.2293 67.2708 36.521 66.8333 35.9376C66.6875 35.7501 66.9375 35.1043 66.4791 35.1251C66.4791 35.0418 66.5 34.896 66.4791 34.8126C66.8125 34.1043 66.7291 33.2085 66.3333 33.3543V33.0418C66.4583 32.9793 66.5416 32.7918 66.4791 32.646C66.4375 32.5418 66.2708 32.521 66.1666 32.5418L66.125 32.0835C66.375 32.0835 66.2708 31.8335 66.1041 31.9168L66 31.5835C66.2083 31.5835 66.1458 31.3751 66 31.4376C65.9166 31.2501 65.8333 31.021 65.8541 30.8126C65.8541 30.6668 65.8541 30.521 65.6875 30.4585V30.0001C65.6875 29.3335 65.625 28.5626 65.2083 28.0418V27.9168C65.25 27.3751 65.0416 26.7293 64.5625 26.4376V26.3335C64.6041 25.8335 64.3541 25.2501 63.875 25.0001C63.8333 24.8543 63.7291 24.7085 63.75 24.5418C63.7708 24.396 63.75 24.2085 63.5833 24.1876V24.1043C63.5833 24.1043 63.5 23.9168 63.4166 23.8751C62.9583 23.6043 62.9791 22.9793 62.6875 22.5418L60.2083 18.8543L57.8125 15.9585L55.1875 13.7501L52.7083 11.9585C53.4375 11.8335 53.75 12.4793 54.5208 12.4585C54.6666 12.896 55.375 13.021 55.6458 13.2293C56.2083 14.0835 56.8958 14.6668 57.7083 15.2293C58.1458 15.521 58.875 16.6043 59.5625 16.3543L59.5416 16.3751Z" fill="#D32823"/>
<path d="M11.9792 53.2502V53.7085C11.9792 53.7085 11.9375 53.8752 11.9792 53.9585C12.0208 54.0627 12.1875 54.1043 12.2917 54.0627L12.5208 54.8752C12.6875 55.396 13.1875 55.771 13.5208 56.1877L14.0208 56.7918C14.1875 56.9793 14.4375 57.271 14.5417 57.5418C14.75 58.0835 15.1458 58.2293 15.4792 58.5627L16.4167 59.5627C16.5833 59.7502 17.0417 60.0002 17.1875 60.2293C17.5417 60.771 19.1667 62.1252 20.0208 62.6252L21.9792 63.7293C22.5833 64.0627 22.875 64.6043 23.5625 64.9377L24.9375 65.6252C25.8333 66.0627 26.7292 66.4793 27.6875 66.5002C27.7292 66.9585 28.3125 66.8543 28.5208 67.021C28.9792 67.3752 29.4583 67.4168 29.9167 67.5835C30.2292 67.7085 30.3958 68.4168 31.0417 68.2502C31.2083 68.2085 31.4792 68.4585 31.4792 68.6668C29.1042 68.3543 26.9167 67.3335 24.6667 66.3752C23.75 65.9793 23.0208 65.646 22.1667 65.1043C16.5 61.5835 12.125 56.4377 9.4375 50.4168C9.54167 50.1877 9.5 49.9168 9.47917 49.7085C9.70833 49.7085 9.9375 49.8335 10.0625 50.1043C10.4375 50.9585 10.9375 51.6668 11.4167 52.4793L11.5 53.1043C11.5 53.2502 11.7708 53.3127 11.9583 53.271L11.9792 53.2502Z" fill="#DE3C32"/>
<path d="M47.5416 8.00004H47.625C47.6458 8.27087 47.8958 8.41671 48.1666 8.47921C49.4791 8.83338 50.5625 9.41671 51.6875 10.0834L53.8541 11.3334C54.1041 11.4792 54.3125 11.625 54.5833 11.5834C54.5833 11.6459 54.6666 11.6875 54.7083 11.7084C54.9791 12.3334 55.6041 12.6459 56.1875 12.9375C56.1875 12.9375 56.2291 12.9375 56.2708 12.9375C56.7708 13.7292 57.6666 14.75 58.4375 14.875C58.4791 14.9167 58.5208 15 58.5625 15.0417C58.5416 15.2917 58.625 15.5209 58.7916 15.6875C58.9583 15.8334 59.1458 15.875 59.3541 15.8334C59.3958 15.8959 59.5 15.9375 59.5416 15.9792V16.3959C58.8333 16.6459 58.1041 15.5625 57.6666 15.2709C56.8541 14.7084 56.1458 14.125 55.6041 13.2709C55.3333 13.0625 54.6458 12.9375 54.4791 12.5C53.7083 12.5 53.3958 11.875 52.6666 12C51.6875 11.2917 50.1458 10.8334 48.7291 10.0209C46.8958 8.95837 44.875 8.47921 42.7708 8.10421L41.1041 7.97921C40.7708 7.95837 40.2916 8.06254 40.1458 7.64588C41.75 7.58338 42.8125 8.10421 43.2916 7.60421C42.9583 7.35421 42.7708 7.18754 42.7708 6.95838C43.4166 6.91671 44.0625 7.22921 44.75 7.39588L46.4375 7.79171C46.8333 7.89588 47.1666 8.10421 47.5208 8.04171L47.5416 8.00004Z" fill="#DE3C32"/>
<path d="M33.0625 29.8748L34.625 31.5415L36.7292 33.7707C37.4792 34.5832 38.25 35.4373 39.1459 36.0623C39.5625 36.354 39.7709 36.9165 40.2709 37.1873C41.125 37.6457 41.5417 38.604 42.2917 39.1873C42.9167 39.6665 43.4584 39.9998 43.9375 40.6457C44.1667 40.9582 44.5417 41.1665 44.75 41.6248L45.6667 42.3957C45.6042 42.8748 45.9792 43.104 46.2917 43.4373C47.25 44.4998 48.1042 45.5207 49.1042 44.6873C49.2084 44.7707 49.4375 44.8123 49.5209 44.854C49.5209 44.979 49.6667 45.2082 49.5625 45.3332L48.9167 46.2498C49 46.354 49.0417 46.5623 48.875 46.6248L40.0834 37.8957C39.7292 37.5415 39.4375 37.2707 39.0834 36.9165L33.7709 31.4582L32.2292 29.9165C31.3125 28.979 30.4167 28.1248 29.4792 27.1873L26.2917 24.0415C26.4792 23.8957 26.6042 23.9582 26.75 24.104L28.6042 25.8123L31.1459 28.2498C31.4792 28.5832 31.6459 28.7707 31.9792 29.0415L33.0625 29.8957V29.8748Z" fill="#DE3C32"/>
<path d="M67.4583 43.8752L67.4167 44.3335C67.1042 44.4168 67.2083 44.6877 67.1667 44.896C66.4375 48.7085 64.7917 52.2918 62.625 55.521C62.4792 55.4377 62.3125 55.521 62.2917 55.6043C62.2917 55.7293 62.2917 55.8335 62.3125 55.9168V56.021C62 55.9793 61.8333 56.2293 61.75 56.4793C61.75 56.521 61.7292 56.5627 61.75 56.6043L61.2083 57.0835C61.0417 57.2502 60.7708 57.3335 60.5625 57.2918C60.4167 57.2502 60.3333 56.9168 60.1667 56.771C59.7083 56.3543 59.1458 56.0835 58.9375 55.521C59.5208 55.5627 59.9167 56.4168 60.75 56.6252C61.1458 56.5418 61.1667 55.8543 61.3542 55.6252L62.4167 54.2502L63.1667 52.2502L63.7708 51.3127C64.3542 51.3127 65.0625 49.9793 64.6458 49.3752C65.6875 47.0627 66 44.6252 66.5208 42.021C66.8333 42.4168 67.1875 42.6877 67.375 42.9585C67.3958 43.2085 67.0625 43.7085 67.4375 43.896L67.4583 43.8752Z" fill="#DF2928"/>
<path d="M52.6459 48.5627C52.5625 48.6877 52.375 49.146 52.5417 49.2502C53.4167 49.7502 53.9167 50.4585 54.5 51.1877L56.5834 52.9585L57.1667 53.7085C57.4375 54.0418 57.6667 54.5418 58.0625 54.6668C58.1459 55.1252 58.4792 55.4793 58.9167 55.521C58.9167 55.521 58.9584 55.521 58.9792 55.521C59.1875 56.0835 59.75 56.3543 60.2084 56.771C60.375 56.9168 60.4375 57.2502 60.6042 57.2918C60.7917 57.3335 61.0834 57.2502 61.25 57.0835L61.7917 56.6043C61.5209 57.1877 61.0834 57.6877 60.6459 58.2502C59.4792 57.3752 58.6042 56.271 57.5625 55.2502L54.6459 52.3752C54.0625 51.7918 53.5209 51.2502 52.9375 50.6877L49.5417 47.3543C49.5625 47.2293 49.625 47.2085 49.6667 47.2085C49.75 47.2085 49.9584 47.2502 49.9792 47.3127C50.2292 47.8752 50.6875 47.896 51.1459 48.1043C51.6667 48.3335 52.0834 48.5835 52.625 48.6043L52.6459 48.5627Z" fill="#DE3C32"/>
<path d="M66.5 35.1663C66.9583 35.1455 66.7083 35.7913 66.8542 35.9788C67.2917 36.5622 67.5417 37.2913 67.3542 38.1038C67.1875 38.7913 67.5833 39.6247 67.3125 40.3122C67.2708 40.4372 67.1042 40.6247 67.1875 40.7288C67.25 40.833 67.4583 40.8538 67.5416 40.8122C67.8333 40.6663 67.6458 39.958 68.0625 40.0413C68.0625 41.333 67.7708 42.6247 67.4792 43.8747C67.1042 43.6663 67.4583 43.1663 67.4167 42.9372C67.25 42.6663 66.875 42.4163 66.5625 41.9997C66.0417 44.6038 65.7292 47.0413 64.6875 49.3538L63.8125 51.2913L63.2083 52.2288L62.4583 54.2288L61.3958 55.6038C61.2083 55.833 61.2083 56.5205 60.7917 56.6038C59.9583 56.4163 59.5625 55.5413 58.9792 55.4997C58.9792 55.4997 58.9375 55.4997 58.9167 55.4997C58.8125 55.0205 58.4792 54.7705 58.0625 54.6455C57.6458 54.5205 57.4375 54.0205 57.1667 53.6872L56.5833 52.9372L54.5 51.1663C53.8958 50.4163 53.3958 49.7288 52.5417 49.2288C52.375 49.1247 52.5417 48.6663 52.6458 48.5413C52.6875 48.4163 52.625 48.1872 52.625 48.0622V18.5413C52.625 18.3122 52.5417 18.0413 52.7292 17.8955C52.7708 18.4163 52.9375 18.9372 52.9167 19.5205L52.8542 21.3538V25.6247C52.875 26.1663 52.8542 26.5413 52.8958 27.1247C52.9583 27.833 52.5208 28.6872 52.8542 29.4372C53.0208 29.8122 52.8125 30.1455 52.8125 30.5205V34.6872C52.8125 35.083 53.0417 35.458 52.7917 35.8747C52.7292 36.0205 52.9375 36.4163 52.9375 36.6455V48.6663L60.4792 56.1663L61.5625 54.6247C62.125 53.833 62.5417 53.1038 62.9583 52.2705L64.0625 49.9997C64.7708 48.5622 65.25 47.1247 65.5833 45.5413C65.9167 43.958 66.4375 42.5413 66.4583 40.958L66.5208 35.1872L66.5 35.1663Z" fill="#C42420"/>
<path d="M47.5416 7.99993C47.1875 8.06243 46.8541 7.83326 46.4583 7.74993L44.7708 7.3541C44.0833 7.18743 43.4375 6.89576 42.7916 6.91659C42.5416 6.91659 40.25 6.12493 37.375 6.5416C36.5416 6.6666 35.8333 6.62493 34.9791 6.5416C33.1666 6.37493 31.1041 7.14576 29.2291 7.58326C27.9583 7.87493 26.8125 8.27076 25.7083 8.95826C23.5625 9.8541 21.5208 10.9374 19.7916 12.4166C19.4791 12.5416 19.125 12.7291 18.7083 12.9583C24.2916 8.33326 31.375 5.81243 38.75 6.08326C41.625 6.18743 44.2291 6.87493 46.9166 7.68743C47.2083 7.77076 47.4375 7.83326 47.5625 8.06243L47.5416 7.99993Z" fill="#D7483E"/>
<path d="M14.5625 17.396C14.2916 17.5835 14.0625 17.8127 13.875 18.0835L12.7083 19.7918C12.1875 20.5418 11.7708 21.3335 11.375 22.1252L9.22914 26.4585C8.22914 28.4793 7.1458 33.3752 7.1458 35.6668V40.9793L7.60414 44.0627C7.43747 43.9168 7.31247 43.7085 7.24997 43.396C6.37497 38.396 6.68747 33.3543 8.18747 28.4793C9.04164 25.6668 10.3125 23.146 11.7708 20.646C12.4791 19.4377 14 17.2293 14.4375 17.2918C14.4791 17.2918 14.5208 17.3543 14.5625 17.4168V17.396Z" fill="#D7483E"/>
<path d="M67.1459 30.4583C67.1459 30.6042 67.1459 30.75 67.3125 30.8125V31.2708L67.25 31.3958C66.3959 31.3958 65.9375 30.0625 66.125 29.1667C66.3542 28.0833 65.7292 27.1042 65.375 26.1458L64.9375 24.9583C64.2084 22.9792 62.5834 22.3958 63.4792 21.4375C64.625 22.9375 65.375 24.6458 66 26.4583L66.75 28.625C66.9584 29.25 67.2084 29.8333 67.1459 30.4583Z" fill="#DE3C32"/>
<path d="M51.6667 46.5627C51.9167 47.2918 51.5417 47.7502 52.625 48.0835C52.625 48.2085 52.7083 48.4377 52.6458 48.5627C52.125 48.5627 51.6875 48.2918 51.1667 48.0627C50.7083 47.8543 50.25 47.8335 50 47.271C49.9583 47.2085 49.7708 47.146 49.6875 47.1668C49.6458 47.1668 49.5833 47.1877 49.5625 47.3127L48.875 46.6252C49.0625 46.5418 49 46.3543 48.9167 46.2502L49.5625 45.3335C50.1667 46.0002 50.75 46.6877 51.5833 47.1252L51.6875 46.5418L51.6667 46.5627Z" fill="#D8332D"/>
<path d="M42.2916 45.1663C41.8541 45.2497 41.7708 44.7497 41.4791 44.4997C39.75 42.9997 38.1875 41.4997 36.5833 39.8747L30.9166 34.1247L29.5208 32.3955L39.0833 41.9163C40.1666 43.0205 41.3541 44.2913 42.2916 45.1872V45.1663Z" fill="#D7483E"/>
<path d="M54.6041 11.5625C54.3333 11.6042 54.125 11.4583 53.875 11.3125L51.7083 10.0625C50.5625 9.41667 49.4791 8.8125 48.1875 8.45833C47.9166 8.39583 47.6666 8.25 47.6458 8C48.0625 8.125 48.5416 8.22917 49.0208 8.41667C51.0416 9.22917 52.8541 10.3958 54.6041 11.5417V11.5625Z" fill="#D7483E"/>
<path d="M68.1042 35.979C68.1042 35.979 67.9167 35.979 67.875 35.9582C67.7708 35.8748 67.8125 35.6457 67.7917 35.4998L67.5625 33.5623C67.5 33.0623 67.2292 32.5832 67.3333 32.104H67.5417C67.7917 33.354 68.1042 34.6665 68.0833 35.979H68.1042Z" fill="#C42420"/>
<path d="M63.5416 21.271C63.3125 21.2502 63.1666 21.1252 63.0208 20.896L62.3125 19.8752C61.6458 18.896 60.875 18.0002 60.2083 16.9377C60.0625 16.7293 59.7708 16.6252 59.5833 16.6043V16.3752V15.9585C60.7291 17.0418 61.6458 18.3752 62.5416 19.7502L63.5416 21.271Z" fill="#D7483E"/>
<path d="M8.54165 47.625C8.54165 47.625 8.33331 47.5 8.31248 47.375L7.58331 44.375C8.14581 45.1458 8.49998 46.625 8.54165 47.625Z" fill="#D7483E"/>
<path d="M15.0625 17.896C15.0625 17.896 14.875 17.9168 14.875 18.0002C14.875 18.1043 14.9166 18.2293 14.9583 18.3127C14.5833 18.4793 14.2708 18.2293 13.8541 18.0835C14.0416 17.8127 14.25 17.5835 14.5416 17.396C14.7708 17.5002 14.8958 17.7085 15.0625 17.896Z" fill="#D8332D"/>
<path d="M58.4584 14.8335C57.6875 14.7085 56.7917 13.6877 56.2917 12.896C57.1042 13.4377 57.8334 14.0835 58.4584 14.8335Z" fill="#D7483E"/>
<path d="M59.3958 15.8127C59.1875 15.8543 58.9791 15.8127 58.8333 15.6668C58.6458 15.5002 58.5625 15.271 58.6041 15.021C58.9375 15.2085 59.2083 15.5002 59.3958 15.8335V15.8127Z" fill="#D7483E"/>
<path d="M56.2084 12.9167C55.625 12.625 55 12.3125 54.7292 11.6875C55.3125 11.9375 55.875 12.375 56.2084 12.9167Z" fill="#D7483E"/>
<path d="M9.52085 49.6875C9.52085 49.8958 9.58335 50.1667 9.47919 50.3958C9.27085 50.25 9.22919 49.9583 9.22919 49.6875H9.39585H9.54169H9.52085Z" fill="#D7483E"/>
<path d="M8.72917 48.396C8.58333 48.2293 8.5625 48.0002 8.5625 47.771C8.6875 47.8335 8.75 47.9377 8.83333 48.0627C8.89583 48.1668 8.95833 48.3335 8.72917 48.396Z" fill="#D7483E"/>
<path d="M67.4583 31.7708C67.4583 31.875 67.5208 32 67.5417 32.0833H67.3333C67.3333 32.0833 67.2083 32.0208 67.1875 31.9583C67.1458 31.875 67.25 31.8125 67.2917 31.75H67.4583V31.7708Z" fill="#DE3C32"/>
<path d="M50.5625 53.3748C50.1875 53.3748 50.0208 53.0207 49.875 52.729C50.0833 52.9582 50.4583 53.0832 50.5625 53.3748Z" fill="#D7483E"/>
<path d="M62.6458 55.5C62.5625 55.625 62.5625 55.8542 62.3542 55.8959C62.3333 55.8125 62.3125 55.7084 62.3333 55.5834C62.3333 55.4792 62.5208 55.4167 62.6667 55.5H62.6458Z" fill="#DE3C32"/>
<path d="M62.3334 55.9997C62.2709 56.2705 62.0417 56.4164 61.7917 56.458C61.875 56.208 62.0417 55.958 62.3334 55.9997Z" fill="#DE3C32"/>
<path d="M67.4583 31.771H67.2917L67.25 31.396L67.2917 31.271C67.4583 31.3752 67.5 31.5835 67.4583 31.771Z" fill="#C42420"/>
<path d="M45.2291 48.0623C44.7708 47.9373 44.2916 47.5623 44.2083 47.104L45.2291 48.0623Z" fill="#D7483E"/>
<path d="M9.37498 49.6875H9.20831V49.5208V49.1875C9.35415 49.3125 9.39581 49.5 9.37498 49.6667V49.6875Z" fill="#DE3C32"/>
<path d="M9.20835 49.2083V49.5417C8.97919 49.3333 8.93752 49.0208 8.85419 48.75C9.04169 48.8542 9.16669 49.0208 9.20835 49.2292V49.2083Z" fill="#D7483E"/>
<path d="M44.0833 46.9583C43.6666 46.9167 43.3541 46.5208 43.2708 46.125L44.0833 46.9583Z" fill="#D7483E"/>
<path d="M67.3125 30.8127C67.1667 30.7502 67.1458 30.6043 67.1458 30.4585C67.2708 30.5418 67.3125 30.6668 67.3125 30.8127Z" fill="#C42420"/>
<path d="M67.1875 44.8955C67.2292 44.6872 67.125 44.4372 67.4375 44.333C67.4375 44.5413 67.3125 44.7288 67.1875 44.8955Z" fill="#C42420"/>
<path d="M71 30.354C71 30.354 70.875 30.229 70.8541 30.1665C70.9166 30.1873 70.9791 30.2915 71 30.354Z" fill="#C42420"/>
<path d="M45.875 48.708C45.875 48.708 45.7292 48.6038 45.6875 48.5205C45.7083 48.583 45.8125 48.6455 45.875 48.708Z" fill="#D7483E"/>
<path d="M46.8333 49.6877C46.5417 49.4168 46.1667 49.2293 46 48.8335C46.2708 49.1043 46.6042 49.3543 46.8333 49.6877Z" fill="#D7483E"/>
<path d="M49.75 52.583C49.1875 52.1872 48.6458 51.6663 48.2708 51.083L49.75 52.583Z" fill="#D7483E"/>
<path d="M43.125 45.9792C42.8334 45.8542 42.6042 45.6042 42.4584 45.3125C42.6875 45.5208 42.9584 45.7083 43.125 45.9792Z" fill="#D7483E"/>
<path d="M41.3125 46.0002C41.0833 45.9377 40.9375 45.8127 40.7083 45.6043L28.6458 33.396C29.0416 33.6252 29.5 33.5418 30.0208 33.5627C30.5208 34.146 30.8541 34.8752 31.4583 35.3335C33.0416 36.5418 33.1041 37.1877 34.1041 38.521C34.6041 38.5627 35.125 38.6252 35.4166 39.1668C36.4791 41.2085 38.2291 41.0627 38.3541 42.6668C38.6041 42.8127 39.0625 42.9793 39.0208 43.4585L40.0208 43.7085C40.4583 44.021 40.5833 44.5627 40.8958 44.9377C41.2083 45.3127 41.375 45.5835 41.2916 46.021L41.3125 46.0002Z" fill="#D32823"/>
<path d="M24.7083 29.3962C24.4583 29.042 24.0625 28.792 23.7083 28.542C23.75 28.2087 23.4791 28.1045 23.25 27.8753C22.7083 27.3545 22.2708 26.667 21.6041 26.4587C21.4166 26.3962 21.2291 26.3337 21.1458 26.1253L20.9583 25.9587L20.8333 25.7712C20.8333 25.417 20.6458 25.1878 20.3333 24.9795C19.875 24.6462 20.0208 23.7087 19.0625 23.8962L18.7291 23.7087C18.7291 23.7087 18.625 23.5837 18.5416 23.5212C18.5416 23.4795 18.5416 23.417 18.5416 23.3753V22.9795C19.4583 23.0003 19.9583 23.8545 20.5625 24.417C20.9166 24.7712 21.2291 25.0003 21.5625 25.417C22 25.9795 22.7916 26.3337 23.1875 26.9795C24.1041 28.5003 25.6666 28.2087 24.7291 29.3962H24.7083Z" fill="#D32823"/>
<path d="M15.3334 19.3957L15.8542 20.2707C16.0209 20.5415 16.3125 20.7082 16.6042 20.8332L16.7917 20.9165C16.7917 21.1873 16.9584 21.354 17.1459 21.5832L17.8334 22.4998C18 22.729 18.1875 22.8332 18.3959 22.7915L18.5625 22.979V23.3748C17.6667 22.979 16.8542 21.7498 16.0834 20.9998C15.5417 20.479 14.9792 20.1248 14.5834 19.3748L13.9167 20.0415C13.9167 19.5623 14.2917 18.9373 14.7917 18.854L15.3334 19.354V19.3957Z" fill="#C42420"/>
<path d="M50.8542 55.6458C50.4167 55.2917 50.0209 55 49.5834 54.7292C49.2917 54.5417 49.1042 53.8958 48.6042 53.8542V53.375C49.1667 54.0625 50.1459 53.1042 50.9167 54.3958C51 54.7708 50.7292 55.2917 50.8542 55.6667V55.6458Z" fill="#B1312E"/>
<path d="M45.7083 50.3543C45.5416 50.1668 45.3125 50.1251 45.1875 49.896C44.7291 49.0626 43.9583 48.396 43.2083 47.7918L42.7708 47.4585C42.7708 47.4585 42.6666 47.3335 42.5833 47.2918C42.25 46.9793 41.875 46.6876 41.6041 46.3126C43.4583 46.271 43.25 47.4168 43.5208 47.6043L44.3541 48.1251C45.1666 48.6251 45.6875 49.4585 45.6875 50.396L45.7083 50.3543Z" fill="#DF2928"/>
<path d="M18.3959 22.7917C18.1667 22.8334 18 22.7293 17.8334 22.5001L17.1459 21.5834C16.9584 21.3334 16.7917 21.1668 16.7917 20.9168C17.2709 20.8751 17.375 21.2501 17.6042 21.6459C17.8125 22.0209 18.4167 22.3126 18.3959 22.7917Z" fill="#D32823"/>
<path d="M16.6042 20.8331C16.3125 20.7081 16.0209 20.5414 15.8542 20.2706C16.0834 20.1664 16.3125 20.1665 16.4792 20.3956C16.5625 20.4998 16.625 20.6665 16.6042 20.8331Z" fill="#D32823"/>
<path d="M18.5417 23.396C18.5417 23.396 18.5417 23.5002 18.5417 23.5418C18.5833 23.6252 18.6458 23.6877 18.7292 23.7293L19.0625 23.9168C19.375 24.5627 20.1875 25.3127 20.8333 25.7918L20.9583 25.9793L21.1458 26.146C21.2292 26.3543 21.4167 26.4168 21.6042 26.4793C21.6042 26.7085 21.9375 26.9793 22.125 27.1668V37.4585V55.8335C22.125 58.4793 21.8542 62.146 23.7917 62.9377L23.875 63.0627L24.0417 63.5418C24.125 63.771 24.2083 64.0002 24.4583 64.2502C23.9167 64.396 23.6875 64.1668 23.3958 64.0835L22.9792 63.9585C22.875 63.5418 22.5 63.2918 22.1042 63.2918H21.9792L21.7917 63.1043L21.6458 62.9585L21.4583 62.7918L18.8333 60.9168C18.1458 60.4377 17.6875 59.8127 17.125 59.2502C15.9792 58.1043 15 56.9377 14.2083 55.5418C13.8542 54.9377 13.3333 54.4585 12.9167 53.9168C12.2083 53.0002 11.9583 51.8752 11.4583 50.8335C10.6875 49.2293 9.77082 47.7085 9.47915 45.9168L8.60415 40.6668C8.31249 38.9585 8.52082 37.3127 8.56249 35.6877C8.56249 35.5835 8.54165 35.396 8.58332 35.3335C8.89582 34.896 8.64582 34.3543 8.77082 33.896C8.85415 33.6252 8.83332 33.3127 8.91665 33.0835C9.08332 32.6668 9.04165 32.2293 9.04165 31.771V31.4585C9.47915 29.8752 9.37499 28.3752 10.3125 26.7085C11.5208 24.9793 12 22.4793 13.25 21.1252C13.3333 21.021 13.4167 20.9168 13.4375 20.7918H13.5417C13.7083 20.7918 13.7292 20.6043 13.7292 20.4377V20.3335C13.7292 20.3335 13.875 20.2293 13.8958 20.146C13.8958 20.1252 13.8958 20.0835 13.8958 20.0627L14.5625 19.396C14.9583 20.1252 15.5417 20.5002 16.0625 21.021C16.8333 21.771 17.625 23.0002 18.5208 23.396H18.5417Z" fill="#201F1F"/>
<path d="M8.56249 35.6875C8.52082 37.2917 8.33332 38.9375 8.60416 40.6667L9.47916 45.9167C9.77082 47.7083 10.6875 49.2292 11.4583 50.8333C11.9583 51.875 12.2083 53 12.9167 53.9167C13.3333 54.4583 13.8333 54.9375 14.2083 55.5417C15.0208 56.9375 16 58.1042 17.125 59.25C17.6875 59.8125 18.1458 60.4167 18.8333 60.9167L21.4583 62.7917L21.6458 62.9583L21.7917 63.1042C21.7917 63.1042 21.8958 63.2708 21.9792 63.2708H22.1042C22.2917 63.625 22.6042 63.8333 22.9792 63.9375L23.3958 64.0625C23.6875 64.5625 24.3333 64.625 24.875 64.7083H24.9583C24.9792 64.9167 25.125 65.0625 25.3542 65.1667L27.3958 66.0417C27.75 66.1875 28.2083 66.1458 28.375 66.5208H27.6458C26.7083 66.4792 25.7917 66.0625 24.8958 65.625L23.5208 64.9375C22.8333 64.6042 22.5417 64.0625 21.9375 63.7292L19.9792 62.625C19.1042 62.1458 17.5 60.7917 17.1458 60.2292C17 60 16.5625 59.75 16.375 59.5625C16.4583 58.7917 15.8125 58.4167 15.3333 57.875C14.9167 57.4167 14.6458 56.7708 13.9792 56.7917L13.4792 56.1875C13.5833 56.0417 13.6667 55.8958 13.6667 55.75C13.6667 55.7083 13.0208 54.6875 13.0833 54.7292C12.8958 54.625 12.5833 54.7292 12.4792 54.875L12.25 54.0625L12.1875 53.8333C12.1875 53.8333 12 53.6875 11.8958 53.7083V53.25C11.7708 52.1042 11.3125 51.1458 10.5833 50.2083C10.375 49.9375 10.25 49.4375 9.81249 49.3542C10.1042 48.7083 9.83332 48.3958 9.52082 47.8542C8.91666 46.8333 9.16666 44.4583 8.64582 42.4375C8.10416 40.3125 7.79166 38.1875 8.22916 35.9792C8.22916 35.8958 8.22916 35.75 8.29166 35.7083C8.33332 35.6875 8.43749 35.6875 8.49999 35.7083L8.56249 35.6875Z" fill="#D32823"/>
<path d="M10.3125 26.729C9.37502 28.3957 9.50002 29.8957 9.06252 31.479V30.3332L8.60419 30.0623C8.83335 29.2498 9.50002 28.5623 9.79169 27.4165C9.89585 26.9582 10.1875 26.9373 10.3125 26.729Z" fill="#D32823"/>
<path d="M8.58335 35.3335C8.25002 34.9377 8.39585 34.2085 8.77085 33.896C8.64585 34.3335 8.87502 34.896 8.58335 35.3335Z" fill="#D32823"/>
<path d="M8.93752 33.0835C8.66669 32.7085 8.85419 32.1252 9.06252 31.771C9.06252 32.2293 9.10419 32.6668 8.93752 33.0835Z" fill="#D32823"/>
<path d="M13.25 21.1458C13.1875 20.9792 13.2708 20.8125 13.4375 20.8125C13.4167 20.9375 13.3333 21.0625 13.25 21.1458Z" fill="#C42420"/>
<path d="M13.5417 20.8122C13.5417 20.6663 13.6042 20.5413 13.7292 20.458C13.7292 20.6038 13.6875 20.8122 13.5417 20.8122Z" fill="#C42420"/>
<path d="M13.7292 20.3545C13.7292 20.3545 13.7917 20.167 13.8959 20.167C13.8542 20.2503 13.7917 20.3128 13.7292 20.3545Z" fill="#C42420"/>
<path d="M40.1667 7.58302C40.3125 7.99968 40.7917 7.87468 41.125 7.91635L42.7917 8.04135C44.875 8.41635 46.9167 8.89552 48.75 9.95802C50.1667 10.7705 51.7084 11.2289 52.6875 11.9372L55.1667 13.7289L57.7917 15.9372L60.1875 18.833L62.6667 22.5205C62.9583 22.958 62.9375 23.583 63.3959 23.8539C63.4584 23.8955 63.5209 24.0205 63.5625 24.083V24.1664C63.5625 24.3122 63.625 24.4372 63.75 24.5205C63.7084 24.6872 63.8334 24.8539 63.875 24.9789C63.9792 25.4789 64.1667 25.9789 64.5625 26.3122V26.4164C64.5208 26.9372 64.8334 27.5205 65.2084 27.8955V28.0205C65.1459 28.6664 65.3542 29.3955 65.6875 29.9789V30.4372C65.6875 30.583 65.7292 30.708 65.8542 30.7914C65.8542 30.9997 65.9167 31.2289 66 31.4164V31.5622L66.125 31.8955V32.0622L66.1875 32.5205C66.1875 32.708 66.25 32.8747 66.3334 33.0205V33.333C66.3334 33.833 66.25 34.333 66.4792 34.7914C66.5209 34.8747 66.4792 35.0205 66.4792 35.1039L66.4167 40.8747C66.4167 42.458 65.8542 43.9164 65.5417 45.458C65.2292 46.9997 64.7292 48.4789 64.0209 49.9164L62.9167 52.1872C62.5 53.0205 62.0834 53.7705 61.5209 54.5414L60.4375 56.083L52.8959 48.583V36.5622C52.8959 36.3539 52.6875 35.958 52.75 35.7914C53 35.3747 52.75 34.9997 52.75 34.6039V30.4372C52.75 30.083 52.9792 29.7497 52.8125 29.3539C52.4792 28.6039 52.9167 27.7497 52.8542 27.0414C52.7917 26.458 52.8542 26.083 52.8334 25.5414V21.2705L52.875 19.4372C52.8958 18.8539 52.7292 18.333 52.6875 17.8122C52.625 16.958 52.2292 16.208 51.5834 15.5622C51.0209 14.9997 50.5417 14.1872 49.8334 13.8122C48.5834 13.1247 47.0834 13.0414 45.625 13.0414H31.2917L28.0209 13.1247C26.8959 13.1455 25.6667 13.3747 24.7917 14.1039C24.75 14.1455 24.7084 14.2705 24.7084 14.333C24.2084 14.6664 23.7292 15.1247 23.3959 15.6247L23.0834 15.9164C22.5209 16.4164 22.4375 17.208 22.1667 17.9372C21.25 16.6455 19.0417 15.208 19.0417 14.708C19.0417 14.2914 19.6875 14.1455 19.875 13.6247L21.0625 12.9164C21.8959 12.3955 22.5417 11.6872 23.4375 11.2497C25.5417 10.2289 27.5417 9.14552 29.8125 8.45802C31.1875 8.04135 32.5834 7.99968 33.9792 7.77052C35.4584 7.52052 36.875 7.24968 38.375 7.39552C39 7.45802 39.5834 7.54135 40.1459 7.52052L40.1667 7.58302Z" fill="#201F1F"/>
<path d="M52.7292 17.8958C52.5208 18.0417 52.6042 18.3125 52.6042 18.5417C52.2917 17.4583 52.5 16.9792 51.3958 16.0625C50.3958 15.2292 49.1458 13.875 48.2292 14.2917C48.125 14.3542 47.875 14.3542 47.7708 14.3542L47.625 14.2292C47.625 14.2292 47.4167 14.2292 47.4375 14.3542C46.2708 14.3542 45.1458 14.2917 43.875 14.3125L27.9375 14.3958V14.125C28.1042 14.1042 28.4583 14.0833 28.6667 13.9583C28.8333 13.875 28.7708 13.375 28.5625 13.3125C28.3958 13.2708 28.2292 13.2083 28.0417 13.2083L31.3125 13.125H45.6458C47.1042 13.125 48.6042 13.2083 49.8542 13.8958C50.5625 14.2917 51.0625 15.0833 51.6042 15.6458C52.25 16.2917 52.6458 17.0417 52.7083 17.8958H52.7292ZM29.4583 13.1875L29.375 13.3125L29.4583 13.3958L29.5417 13.3125L29.4583 13.1875Z" fill="#D32823"/>
<path d="M42.7917 6.91674C42.7917 7.12507 42.9792 7.29174 43.3125 7.56257C42.8125 8.06257 41.75 7.56257 40.1667 7.60424C39.6042 7.60424 39.0209 7.54174 38.3959 7.47924C36.8959 7.31257 35.4792 7.58341 34 7.85424C32.5209 8.12507 31.2084 8.14591 29.8334 8.54174C27.5834 9.20841 25.5625 10.3126 23.4584 11.3334C22.5625 11.7709 21.9167 12.4792 21.0834 13.0001L19.8959 13.7084C20.0209 13.3542 20.4792 12.7709 20.0834 12.5001C20.0417 12.4584 19.9375 12.4584 19.7917 12.3959C21.5209 10.9376 23.5625 9.85424 25.7084 8.93757C26.8125 8.25007 27.9584 7.85424 29.2292 7.56257C31.1042 7.14591 33.1459 6.35424 34.9792 6.52091C35.8334 6.60424 36.5417 6.64591 37.375 6.52091C40.25 6.10424 42.5417 6.91674 42.7917 6.89591V6.91674Z" fill="#DF2928"/>
<path d="M28.0417 13.1875C28.2292 13.1875 28.3958 13.2708 28.5625 13.2917C28.7917 13.3333 28.8333 13.8542 28.6667 13.9375C28.4583 14.0417 28.1042 14.0625 27.9167 14.1042C27.4167 14.1667 26.8333 14.2708 26.3125 14.1875C25.7917 14.1042 25.3542 13.9583 24.8125 14.1667C25.6875 13.4375 26.9167 13.2292 28.0417 13.1875Z" fill="#C42420"/>
<path d="M22.1875 17.9793C22.4375 17.271 22.5417 16.4793 23.1042 15.9585C23.0417 16.9585 22.2708 17.6252 23.1667 18.8752C22.5417 19.0002 22.0625 18.396 22.2083 17.9793H22.1875Z" fill="#C42420"/>
<path d="M24.6042 14.8127C24.5625 14.9793 24.6042 15.3543 24.3959 15.521C24.125 15.7293 23.6875 15.6668 23.4167 15.6877C23.75 15.1877 24.2292 14.7293 24.7292 14.396L24.6042 14.8127Z" fill="#C42420"/>
<path d="M26.3333 14.1877C26.3333 14.3752 26.2916 14.4585 26.1875 14.5002C26.0416 14.5627 25.8333 14.5002 25.6666 14.5418L24.6041 14.7918L24.7291 14.3752C24.7291 14.3752 24.7708 14.1877 24.8125 14.146C25.3541 13.9377 25.7916 14.0835 26.3125 14.1668L26.3333 14.1877Z" fill="#D32823"/>
<path d="M27.9166 65.1878C27.9166 65.292 28.0625 65.3545 28.2291 65.3545H32.125C32.2916 65.3545 32.4166 65.292 32.4375 65.1878L35.0208 65.2503H41.6041C41.875 65.2503 42.1458 65.1462 42.4375 65.2295C43.5 65.5212 44.6458 65.2712 45.8125 65.3545C45.9583 65.3545 46.1041 65.2087 46.1458 65.167H48.2708L48.1875 65.8337C48.1666 65.8337 48.125 65.8337 48.1041 65.8337C47.9166 65.792 47.6666 65.792 47.5625 66.0003C46.3958 66.417 45.0625 66.8128 43.8333 67.0628L42.5833 67.3128L41.2916 67.4587C40.9166 67.5003 40.5416 67.5628 40.3333 67.7712H40.0208C39.7708 67.4795 39.4166 67.6878 39.0416 67.7712C38.6666 67.8545 38.1875 67.6462 37.9166 67.9378H37.6041C37.125 67.9378 36.6041 67.9378 36.1458 67.7503C35.8333 67.6253 35.4375 67.4587 35.1666 67.792H34.375C34.2291 67.5628 33.9166 67.3962 33.7291 67.6253H33.25C32.9375 67.292 32.375 67.1878 31.9583 67.292C31.8125 67.3128 31.625 67.3337 31.5 67.292C31.3541 67.0628 30.9375 66.8337 30.7083 67.0003C30.6041 66.9587 30.4583 66.9587 30.3541 66.8545C30.1041 66.5837 29.7291 66.5212 29.3541 66.5212H29.0625L27.0208 65.6045C27.0833 65.292 27.4583 65.3337 27.6041 65.292L27.9166 65.2087V65.1878Z" fill="#201F1F"/>
<path d="M55.9792 60.5625C55.9792 60.5625 55.9792 60.625 55.9792 60.6458C56.0208 60.9167 55.875 61.0833 55.6042 61.2083C54.8958 61.5417 54.4375 62.1875 53.7917 62.6042L52.3333 63.5417C52.1667 63.6458 51.875 63.5833 51.8333 63.8958H51.7083C51.375 64.0417 51.0417 64.1667 50.625 64.125C50.6667 63.75 50.8333 63.6458 50.9792 63.5L51.0417 63.2708C51.1875 63.1875 51.3125 63.0625 51.375 62.9167H51.4792C51.6458 62.9167 51.7083 62.75 51.6875 62.5833C51.6875 62.5417 51.6875 62.4583 51.6875 62.4167C51.8958 62.3958 51.9167 62.0833 52 61.9792C52.375 61.8333 52.5625 61.3125 52.625 60.875L52.6667 60.5C52.8542 60.4167 52.8125 60.1667 52.8125 60V59.375C52.8333 58.9375 53.0208 58.5208 52.9583 58.0625C53.2083 58.1042 53.375 58.2083 53.5833 58.4167L55.4375 60.2917C55.6042 60.4583 55.8333 60.5417 56.0208 60.5625H55.9792Z" fill="#201F1F"/>
<path d="M42.7709 67.6043L44.5625 67.2085C44.2917 67.0002 44.0625 67.0835 43.8542 67.0627C45.0834 66.8127 46.4167 66.4377 47.5834 66.0002C47.7292 65.9377 48.0209 66.0627 48.125 65.8335C48.1459 65.8335 48.1875 65.8335 48.2084 65.8335C48.8959 65.6252 49.5209 65.2293 50.2084 64.8752L51.2917 64.3335C51.5209 64.2293 51.6875 64.1252 51.6875 63.896H51.8125C52.0209 63.8752 52.1875 63.7085 52.3125 63.5418L53.7709 62.6043C54.4167 62.1877 54.875 61.5418 55.5834 61.2085C55.8542 61.0835 56.0209 60.9168 55.9584 60.646C56.1042 60.646 56.25 60.6877 56.3125 60.771C56.3959 60.9168 56.4375 61.271 56.2709 61.4168L55.125 62.3127V62.7918C55.1667 63.0627 54.0625 62.9585 53.8542 63.3127C53.4584 63.9585 52.8334 64.1043 52.2709 64.5002C51.875 64.7918 51.625 65.1252 51.1459 65.3335C50.4584 65.6252 49.8542 65.9793 49.0625 66.1668C47.9375 66.4585 46.5625 66.3127 45.4792 66.896C44.9167 67.2085 44.5417 67.6043 43.75 67.6043C43.4792 67.6043 43 67.9377 42.7917 67.5627L42.7709 67.6043Z" fill="#C42420"/>
<path d="M29.0625 66.4788H29.3542C29.625 66.708 30 66.7913 30.3542 66.8122C30.4584 66.9163 30.6042 66.9163 30.7084 66.958L31.5 67.2497C31.625 67.2913 31.8125 67.2705 31.9584 67.2497C32.3542 67.4788 32.8125 67.583 33.25 67.583H33.7292C33.875 67.8122 34.1667 67.7497 34.375 67.7497H35.1667C35.3542 67.7497 35.5209 67.7705 35.6459 67.9163C35.3542 68.2705 34.4584 67.9163 33.5417 68.2497C33.1875 67.9997 32.6667 68.1455 32.3125 68.1663C31.8959 67.7497 31.3959 67.7497 30.8542 67.5205L29.0417 66.7705C28.8334 66.6872 28.7084 66.6247 28.7292 66.458H29.0625V66.4788Z" fill="#D32823"/>
<path d="M55.9583 60.1875V60.5625C55.7917 60.5417 55.5833 60.4792 55.3958 60.2917L53.5417 58.4167C53.3333 58.2083 53.1458 58.0833 52.9167 58.0625C52.8125 58.0625 52.7083 57.9167 52.625 57.875C52.3125 57.7083 52.1875 57.3542 52.0208 57.0625C51.9375 56.9167 51.8958 56.7292 51.875 56.5625C52.2917 56.6875 52.4792 57.0833 52.8542 57.375L54.6875 58.9167C55.1667 59.3333 55.375 59.9792 55.9792 60.1875H55.9583Z" fill="#C42420"/>
<path d="M43.8542 67.0628C44.0417 67.0837 44.2917 67.0003 44.5625 67.2087L42.7709 67.6045H42.4584V67.4378L42.625 67.292L43.875 67.042L43.8542 67.0628Z" fill="#D32823"/>
<path d="M40.0417 67.7706V67.9373H37.9375C38.2083 67.6456 38.6667 67.8331 39.0625 67.7706C39.4583 67.7081 39.7917 67.479 40.0417 67.7706Z" fill="#952020"/>
<path d="M42.6041 67.292L42.4375 67.4378L42.2708 67.6045H41.4583C41.3125 67.6045 41.1875 67.6253 41.1458 67.7712H40.5H40.3333C40.5416 67.5628 40.9375 67.5003 41.2916 67.4587L42.5833 67.3128L42.6041 67.292Z" fill="#952020"/>
<path d="M37.625 67.9163C37.1667 68.1663 36.4792 68.1663 36 67.9372L36.1667 67.708C36.625 67.8747 37.1458 67.9163 37.625 67.8955V67.9163Z" fill="#D32823"/>
<path d="M26.0833 64.729C26.0833 64.729 26.2708 64.6665 26.3333 64.6874C26.4791 64.729 26.6666 64.7707 26.7916 64.854C26.9375 64.9582 27.0833 65.0207 27.2916 65.0207H27.5625L27.625 65.2499C27.4791 65.2915 27.1041 65.2499 27.0416 65.5624L29.0833 66.4582H28.75L28.4375 66.479C28.2708 66.104 27.8125 66.1457 27.4583 65.9999L25.4166 65.1249C25.1875 65.0207 25.0416 64.8749 25.0208 64.6874L26.8541 65.3957C26.7291 64.8957 26.3125 64.9165 26.125 64.729H26.0833Z" fill="#952020"/>
<path d="M36.1667 67.7292L36 67.9584C36 67.9584 35.7709 67.9376 35.6875 67.9584C35.5625 67.8126 35.375 67.7917 35.2084 67.7917C35.4792 67.4792 35.875 67.6459 36.1875 67.7501L36.1667 67.7292Z" fill="#952020"/>
<path d="M40.3541 67.75H40.5208C40.6041 67.9167 40.5 68.1042 40.2916 68.0833C40.2083 68.0833 40.1041 67.9792 40.0208 67.9167V67.75H40.3541Z" fill="#D32823"/>
<path d="M41.4792 67.604C41.4375 67.7498 41.2917 67.7707 41.1667 67.7707C41.2084 67.6248 41.3542 67.604 41.4792 67.604Z" fill="#C42420"/>
<path d="M42.4583 67.6042H42.2916L42.4583 67.4375V67.6042Z" fill="#C42420"/>
<path d="M62.3125 19.875C61.75 19.9792 61.4791 19.7708 61.25 19.25C60.75 18.1042 59.6458 17.3958 59.5833 16.625C59.7708 16.6458 60.0625 16.7292 60.2083 16.9583C60.875 18.0208 61.6458 18.9167 62.3125 19.8958V19.875Z" fill="#DE3C32"/>
<path d="M66.4792 34.854C66.25 34.3956 66.3334 33.8748 66.3334 33.3956C66.7292 33.2498 66.8125 34.1456 66.4792 34.854Z" fill="#C42420"/>
<path d="M65.6667 30.0208C65.3333 29.4375 65.125 28.7083 65.1875 28.0625C65.6042 28.6042 65.6667 29.375 65.6667 30.0208Z" fill="#C42420"/>
<path d="M65.1875 27.9377C64.7917 27.5627 64.5 26.9585 64.5208 26.4585C65 26.771 65.2292 27.4168 65.1875 27.9377Z" fill="#C42420"/>
<path d="M64.5417 26.3333C64.1459 26 63.9584 25.5 63.8542 25C64.3334 25.2292 64.5625 25.8333 64.5417 26.3333Z" fill="#C42420"/>
<path d="M66.3333 33.0624C66.2292 32.9166 66.2083 32.7291 66.1875 32.5624C66.2917 32.5416 66.4583 32.5624 66.5 32.6666C66.5625 32.8124 66.4583 32.9999 66.3542 33.0624H66.3333Z" fill="#C42420"/>
<path d="M63.75 24.5417C63.6458 24.4583 63.5833 24.3333 63.5833 24.1875C63.75 24.2083 63.7708 24.3958 63.75 24.5417Z" fill="#C42420"/>
<path d="M65.8334 30.8332C65.7084 30.7498 65.6667 30.6248 65.6667 30.479C65.8125 30.5415 65.8334 30.6873 65.8334 30.8332Z" fill="#C42420"/>
<path d="M66.1458 32.1041V31.9374C66.2916 31.8541 66.3958 32.1041 66.1458 32.1041Z" fill="#C42420"/>
<path d="M66.0208 31.604V31.4582C66.1666 31.4165 66.2291 31.604 66.0208 31.604Z" fill="#C42420"/>
<path d="M63.5625 24.1042C63.5625 24.1042 63.4583 23.9167 63.3958 23.875C63.5 23.9167 63.5416 24 63.5625 24.1042Z" fill="#C42420"/>
<path d="M16.4375 59.5623L15.5 58.5623C15.1667 58.2082 14.7709 58.0623 14.5625 57.5415C14.4584 57.2707 14.2084 56.979 14.0417 56.7915C14.7084 56.7915 14.9792 57.4165 15.3959 57.8748C15.8542 58.3957 16.5209 58.7915 16.4375 59.5623Z" fill="#DF2928"/>
<path d="M13.5417 56.1665C13.2084 55.7498 12.6875 55.3748 12.5417 54.854C12.6459 54.7082 12.9792 54.604 13.1459 54.7082C13.0625 54.6665 13.7292 55.6873 13.7292 55.729C13.7292 55.8748 13.6459 56.0207 13.5417 56.1665Z" fill="#DF2928"/>
<path d="M12.2917 54.0625C12.1667 54.1042 12.0208 54.0625 11.9792 53.9583C11.9375 53.875 11.9583 53.7917 11.9583 53.7083C12.0625 53.6875 12.2292 53.7292 12.25 53.8333L12.3125 54.0625H12.2917Z" fill="#DF2928"/>
<path d="M63.8125 51.271L64.6875 49.3335C65.1042 49.9377 64.4167 51.271 63.8125 51.271Z" fill="#D32823"/>
<path d="M58.9375 55.5002C58.5 55.4585 58.1666 55.1043 58.0833 54.646C58.5 54.771 58.8541 55.021 58.9375 55.5002Z" fill="#DF2928"/>
<path d="M51.8542 56.5832C51.8958 56.7498 51.9167 56.9373 52 57.0832C51.9167 57.229 51.7708 57.2915 51.625 57.2915V56.479H51.8125V56.604L51.8542 56.5832Z" fill="#D7483E"/>
<path d="M51.8333 56.4587H51.6458V56.292L51.8333 56.4587Z" fill="#B1312E"/>
<path d="M52.6041 18.5414V48.0622C51.5416 47.7289 51.9166 47.2706 51.6666 46.5414C51.625 46.4581 51.6666 46.2289 51.6666 46.1248C51.7291 46.1248 51.8541 46.1456 51.8958 46.1248C51.9375 46.0831 52 45.9789 52 45.7914L51.9166 22.1873L51.7708 18.1248C51.75 17.4789 51.2708 16.8539 50.8333 16.6039L50.7083 16.4581C50.2291 15.4789 49.2708 14.7289 48.2708 14.2914C49.1875 13.8539 50.4375 15.2081 51.4375 16.0623C52.5416 16.9789 52.3333 17.4581 52.6458 18.5414H52.6041Z" fill="#DE3C32"/>
<path d="M45.1875 49.8752C44.4375 49.3752 43.4166 48.4585 43.2083 47.771C43.9583 48.3543 44.7291 49.021 45.1875 49.8752Z" fill="#C42420"/>
<path d="M42.7708 47.4587L42.5833 47.292C42.5833 47.292 42.7083 47.3962 42.7708 47.4587Z" fill="#C42420"/>
<path d="M52.6041 59.3958C52.6041 59.3958 52.7291 59.3958 52.7916 59.3958V60.0208C52.6041 59.9583 52.4166 60.0625 52.4375 60.2708C52.4375 60.3541 52.5 60.4583 52.6041 60.5208L52.5625 60.8958C52.3125 60.8333 52 60.7708 51.7291 60.9375C51.8541 61.3958 51.9166 61.6666 51.9375 62C51.8541 62.1041 51.8333 62.4166 51.625 62.4375H51.3958C51.3958 62.4375 51.2708 62.5833 51.2916 62.6666C51.2916 62.7083 51.3333 62.7916 51.4375 62.7708V62.9166H51.3333C51.1458 62.9166 51.0416 63.0833 51 63.2708L50.9375 63.5C50.4791 63.2916 50.375 63.8541 49.8958 63.9166C49.7291 63.9375 49.6041 64.0833 49.5416 64.25C49.5416 64.2916 49.4583 64.3541 49.4166 64.375L49.2083 64.5625H48.9791C48.4791 64.6458 48.0208 64.5625 47.4375 64.6041C47.3541 64.6041 45.9375 65.0625 45.9791 64.9583C45.9583 65.0208 45.9583 65.125 45.9791 65.1875H45.6458C45.6458 65.1875 45.6666 65 45.6458 64.9583C45.6041 64.8958 45.4791 64.8541 45.3541 64.8541H44.2083C44.1666 64.1875 45.3958 64.875 45.3333 64.2291H46.625C46.9583 64.25 47.0625 64.0833 47.1458 63.9375C47.3541 63.8958 47.6666 63.9375 47.8958 63.8125L47.9375 64.125C47.9375 64.125 48 64.3125 48.1458 64.25C48.25 64.2083 48.2916 64.0625 48.25 63.9375C49.9791 63.8333 50.9166 62.4375 51.5 60.7083L51.8333 59.7291C52 59.4583 52.2916 59.3333 52.5833 59.4166L52.6041 59.3958Z" fill="#DF2928"/>
<path d="M51.8542 59.708L51.5208 60.6872C50.9375 62.4163 50 63.8122 48.2708 63.9163C48.2083 63.9163 48.1042 63.8747 48.0625 63.8538C48.1458 63.6663 48.3542 63.5205 48.5833 63.4372C50 62.9163 50.8333 61.8538 51.3333 60.4788C51.5 59.9997 51.6875 59.6872 51.6875 59.208C51.8333 59.333 51.875 59.5205 51.875 59.708H51.8542Z" fill="#D7483E"/>
<path d="M52.625 57.8955V59.3955C52.3125 59.333 52.0208 59.458 51.8541 59.708C51.8541 59.5205 51.8125 59.3122 51.6666 59.208V57.2913C51.7916 57.2913 51.9166 57.2288 52.0208 57.083C52.2083 57.3747 52.3125 57.7497 52.625 57.8955Z" fill="#DE3C32"/>
<path d="M23.7291 28.5415H23.5625H23.25C23.25 28.354 23.2083 28.104 23.0833 27.9998C22.9583 27.8957 22.6458 27.8332 22.4375 27.9373L22.4791 38.354C22.4791 38.854 22.6666 39.2707 22.5208 39.7707C22.3541 40.4373 22.5208 41.104 22.5625 41.7915L22.6458 45.6457C22.6458 46.354 22.6666 46.8957 22.6458 47.604L22.5208 54.7498L22.4791 59.0623C22.4791 60.1873 23.1041 61.229 23.4166 62.2498L23.6041 62.2915C23.6041 62.2915 23.5833 62.4165 23.6041 62.4582L23.8333 62.9373C21.8958 62.1457 22.1666 58.4582 22.1666 55.8332V37.4582V27.1665C21.9791 26.979 21.6458 26.7082 21.6458 26.479C22.3333 26.6873 22.75 27.3957 23.2916 27.8957C23.5208 28.1248 23.7916 28.229 23.75 28.5623L23.7291 28.5415Z" fill="#C42420"/>
<path d="M20.8541 25.7915C20.2083 25.3124 19.3958 24.5624 19.0833 23.9165C20.0416 23.7082 19.8958 24.6665 20.3541 24.9999C20.6666 25.229 20.8541 25.4582 20.8541 25.7915Z" fill="#C42420"/>
<path d="M18.7291 23.729C18.7291 23.729 18.5833 23.6248 18.5416 23.5415C18.6041 23.5832 18.6666 23.6457 18.7291 23.729Z" fill="#C42420"/>
<path d="M25.5417 64.3962C25.3959 64.3962 25.125 64.3128 24.9584 64.3128C24.8542 64.3128 24.8959 64.6462 24.8959 64.667C24.3542 64.5837 23.7084 64.542 23.4167 64.0212C23.7084 64.1045 23.9375 64.3337 24.4792 64.1878C24.25 63.9378 24.1667 63.7087 24.0625 63.4795C24.5209 63.6045 25.1667 64.0212 25.5417 64.3753V64.3962Z" fill="#952020"/>
<path d="M24.875 63.4163C24.875 63.4163 25 63.4997 25.0416 63.5413C25.1041 63.8955 25.5 63.958 25.8333 63.9163H26.0416C26 64.1247 26.0208 64.3538 26.1041 64.5622H25.8125C25.8541 64.4163 25.7708 64.3747 25.6875 64.3747H25.5416C25.1875 64.0413 24.5208 63.6247 24.0625 63.4997L23.8958 63.0205C24.25 63.0622 24.5416 63.2705 24.875 63.3955V63.4163Z" fill="#C42420"/>
<path d="M24.2916 62.4165C24.4166 62.6873 24.75 62.8957 25 63.0415L24.875 63.4165C24.5416 63.2915 24.25 63.0832 23.8958 63.0415L23.8125 62.9165L23.5833 62.4373H24.3125L24.2916 62.4165Z" fill="#DF2928"/>
<path d="M22.9791 63.9167C22.6041 63.7917 22.2916 63.6042 22.1041 63.25C22.5208 63.25 22.875 63.5 22.9791 63.9167Z" fill="#952020"/>
<path d="M21.9791 63.2292C21.9791 63.2292 21.8125 63.125 21.7916 63.0625L21.9791 63.2292Z" fill="#952020"/>
<path d="M25.5417 64.3957H25.6875C25.6875 64.3957 25.6875 64.6457 25.7292 64.6665C25.7708 64.6665 25.8333 64.5832 25.8125 64.5207H26.1042L26.0625 64.7082C26.25 64.9165 26.6875 64.8748 26.7917 65.3748L24.9583 64.6665H24.875C24.875 64.6665 24.8333 64.2915 24.9375 64.2915C25.1042 64.2915 25.375 64.354 25.5208 64.3748L25.5417 64.3957Z" fill="#201F1F"/>
<path d="M48.25 14.2915C49.25 14.7498 50.1875 15.479 50.6875 16.4582C50.1666 15.8332 49.625 15.1248 48.7708 14.8123C48.3958 14.6665 48 14.6457 47.7708 14.354C47.8958 14.354 48.1458 14.354 48.2291 14.2915H48.25Z" fill="#D7483E"/>
<path d="M47.7709 14.354H47.4584C47.4375 14.2499 47.5625 14.1665 47.6459 14.229L47.7917 14.354H47.7709Z" fill="#DE3C32"/>
<path d="M29.4583 13.1875L29.5417 13.3125L29.4583 13.375L29.375 13.3125L29.4583 13.1875Z" fill="#C42420"/>
<path d="M50.9375 63.4998C50.8125 63.6457 50.625 63.7498 50.5833 64.1248C51 64.1665 51.3333 64.0415 51.6667 63.9165C51.6667 64.1457 51.5 64.229 51.2708 64.354L50.1875 64.8957C49.4792 65.2498 48.875 65.6457 48.1875 65.854L48.2708 65.1873C48.5417 65.1873 48.875 64.8332 48.9792 64.604H49.2083C49.2083 64.604 49.375 64.479 49.4167 64.3957C49.4583 64.354 49.5208 64.3123 49.5417 64.2707C49.6458 64.2707 49.7708 64.2498 49.8542 64.1457C49.8958 64.0832 49.9167 63.9998 49.9167 63.9373C50.4167 63.8748 50.5 63.3123 50.9583 63.5207L50.9375 63.4998Z" fill="#952020"/>
<path d="M36 65.021H36.4792H37H40.8334H41.3125C41.4584 65.021 41.5834 65.0418 41.625 65.271H35.0417C35.2709 64.9377 35.6667 65.0418 36 65.0418V65.021Z" fill="#952020"/>
<path d="M44.2292 64.8544H45.375C45.5 64.8335 45.625 64.8752 45.6667 64.9377C45.7083 64.9794 45.6875 65.1252 45.6667 65.1669L43.2708 65.1252C42.9792 65.1252 42.625 64.8752 42.4583 65.2085C42.1667 65.1252 41.8958 65.2085 41.625 65.2502C41.5833 65.0419 41.4583 65.0002 41.3125 65.0002C42.375 64.5835 43.25 64.8752 44.2083 64.8544H44.2292Z" fill="#C42420"/>
<path d="M49 64.5625C48.8958 64.8125 48.5833 65.1458 48.2917 65.1458H46.1667H46C46 65.0833 46 64.9792 46 64.9167C45.9583 65 47.375 64.5625 47.4583 64.5625C48.0208 64.5 48.5 64.6042 49 64.5625Z" fill="#C42420"/>
<path d="M28.25 65.1875H30.3542H32.4583C32.4167 65.2917 32.3125 65.3542 32.1458 65.3542H28.25C28.0833 65.3542 27.9583 65.2917 27.9375 65.1875H28.25Z" fill="#952020"/>
<path d="M45.6667 65.1872H46H46.1667C46.125 65.2289 45.9792 65.3747 45.8334 65.3747C44.6667 65.2914 43.5209 65.5414 42.4584 65.2497C42.625 64.8956 42.9792 65.1664 43.2709 65.1664L45.6667 65.2081V65.1872Z" fill="#952020"/>
<path d="M33.2709 67.5831C32.8334 67.5831 32.375 67.4789 31.9792 67.2498C32.4167 67.1664 32.9584 67.2498 33.2709 67.5831Z" fill="#952020"/>
<path d="M34.3958 67.7503C34.1667 67.7503 33.875 67.8128 33.75 67.5837C33.9375 67.3545 34.2708 67.5003 34.3958 67.7503Z" fill="#952020"/>
<path d="M28.25 65.1873H27.9375L27.625 65.2706L27.5625 65.0415C27.7917 65.0415 28.1042 64.979 28.25 65.2081V65.1873Z" fill="#C42420"/>
<path d="M48.1042 65.8335C48.0208 66.0626 47.7292 65.9376 47.5625 66.0001C47.6667 65.8126 47.9167 65.7918 48.1042 65.8335Z" fill="#952020"/>
<path d="M30.3541 66.8128C30 66.7712 29.625 66.7087 29.3541 66.4795C29.7291 66.4795 30.1041 66.542 30.3541 66.8128Z" fill="#952020"/>
<path d="M31.5 67.2499L30.7083 66.9583C30.9583 66.7916 31.3541 67.0416 31.5 67.2499Z" fill="#952020"/>
<path d="M52.5833 60.8748C52.5417 61.3123 52.3333 61.8332 51.9583 61.979C51.9375 61.6457 51.875 61.3748 51.75 60.9165C52.0208 60.7498 52.3125 60.8123 52.5833 60.8748Z" fill="#D32823"/>
<path d="M52.9167 58.083C52.9792 58.5413 52.7917 58.958 52.7917 59.3955C52.7292 59.3955 52.6667 59.3955 52.6042 59.3955V57.8955C52.6042 57.8955 52.8125 58.0622 52.9167 58.083Z" fill="#D32823"/>
<path d="M52.7708 60.0002C52.7708 60.1668 52.7917 60.4168 52.625 60.5002C52.5208 60.4377 52.4583 60.3335 52.4583 60.2502C52.4167 60.0418 52.6042 59.9585 52.7917 60.0002H52.7708Z" fill="#D32823"/>
<path d="M51.6458 62.4375C51.6458 62.4375 51.6458 62.5625 51.6458 62.6042C51.5625 62.6458 51.5 62.7083 51.4583 62.7917C51.375 62.7917 51.3333 62.7292 51.3125 62.6875C51.2708 62.5833 51.3125 62.4792 51.4166 62.4792H51.6458V62.4375Z" fill="#D32823"/>
<path d="M51.4375 62.9163V62.7705C51.4375 62.7705 51.5625 62.6455 51.6458 62.583C51.6875 62.7288 51.6042 62.8955 51.4375 62.9163Z" fill="#952020"/>
<path d="M52.3125 63.542C52.1875 63.7087 52.0208 63.8753 51.8125 63.8962C51.8542 63.6045 52.1458 63.6462 52.3125 63.542Z" fill="#952020"/>
<path d="M51.0208 63.2707C51.0625 63.104 51.1875 62.9373 51.3541 62.9165C51.2708 63.0623 51.1666 63.1873 51.0208 63.2707Z" fill="#952020"/>
<path d="M23.25 28.5418C23.2708 29.7293 23.2083 30.9168 23.1875 32.1877L23.0833 41.3127V59.1877C23.0833 59.7293 23.1458 60.0835 23.2291 60.521L23.5625 62.271L23.375 62.2293C23.0625 61.2085 22.4375 60.1668 22.4375 59.0418L22.4791 54.7293L22.6041 47.5835C22.6041 46.896 22.6041 46.3543 22.6041 45.6252L22.5208 41.771C22.5208 41.0835 22.3125 40.4168 22.4791 39.7502C22.6041 39.2502 22.4375 38.8335 22.4375 38.3335L22.3958 27.9168C22.6041 27.8127 22.9166 27.9168 23.0416 27.9793C23.1666 28.0418 23.2083 28.3335 23.2083 28.521L23.25 28.5418Z" fill="#DF2928"/>
<path d="M49.5416 64.2288C49.6041 64.0622 49.7291 63.9163 49.8958 63.8955C49.8958 63.958 49.8958 64.0413 49.8333 64.1038C49.7708 64.1872 49.6458 64.2288 49.5208 64.2288H49.5416Z" fill="#C42420"/>
<path d="M49.2083 64.542L49.4166 64.3545C49.4166 64.3545 49.2916 64.5212 49.2083 64.542Z" fill="#C42420"/>
<path d="M25.8125 64.5418C25.8125 64.5418 25.75 64.7085 25.7292 64.6877C25.6667 64.646 25.6458 64.4168 25.6875 64.396C25.7708 64.396 25.875 64.4377 25.8125 64.5627V64.5418Z" fill="#952020"/>
<path d="M27.2916 65.0206C27.0833 65.0206 26.9375 64.9789 26.7916 64.8539C26.9791 64.8122 27.1875 64.8539 27.2916 65.0206Z" fill="#C42420"/>
<path d="M28.625 33.3957L40.6875 45.604C40.9167 45.8332 41.0625 45.9582 41.2917 45.9998C41.3959 46.0415 41.5417 46.1873 41.6042 46.2915C41.8542 46.6873 42.25 46.9582 42.5834 47.2707L42.7709 47.4373L43.2084 47.7707C43.3959 48.4582 44.4375 49.3748 45.1875 49.8748C45.3125 50.104 45.5417 50.1665 45.7084 50.3332L46.875 51.6457C46.4584 51.9582 46.9584 52.7082 46.6042 53.7082H34.5625L28.2709 53.6665V34.1873C28.25 33.8332 28.1459 33.5415 28.4375 33.3957C28.5 33.3748 28.6042 33.3748 28.6459 33.354L28.625 33.3957Z" fill="#201F1F"/>
<path d="M26.2916 31.2502L26.25 37.4377L26.3125 55.4793L36.7916 55.521C40.7708 55.521 44.6041 55.6252 48.5416 55.4168L48.5833 53.8335C49.0833 53.8752 49.25 54.521 49.5625 54.7085L49.4166 58.9168C49.375 60.8127 47.8333 61.9168 45.9583 61.9168L28.2291 61.8752C26.5625 61.8752 25.4375 60.1252 25.4166 58.646L25.375 53.021L25.3333 30.8127C25.3333 30.6668 25.4166 30.6043 25.5416 30.5835C25.6875 30.7918 26.0625 31.0418 26.2708 31.2293L26.2916 31.2502ZM38.6458 61.1043C39.0625 60.8335 39.4791 60.396 39.7291 60.0418C40.3333 59.146 40.0625 58.1252 39.5208 57.396C38.9375 56.6043 38.0208 56.3127 36.9583 56.4585C35.9791 56.6043 35.3125 57.4168 35.1041 58.2502C34.8541 59.271 35.25 60.1252 36.0416 60.8127C36.7083 61.396 37.7916 61.6877 38.6458 61.1252V61.1043Z" fill="#F5F4F4"/>
<path d="M24.7084 29.3957L25.5625 30.604C25.4375 30.6457 25.3542 30.6873 25.3542 30.8332L25.3959 53.0415L25.4375 58.6665C25.4375 60.1457 26.5834 61.8748 28.25 61.8957L45.9792 61.9373C47.8542 61.9373 49.3959 60.8332 49.4375 58.9373L49.5834 54.729C50.0209 54.9998 50.4375 55.2915 50.8542 55.6457L51.6459 56.2915V56.4582V57.2707V59.1873C51.6667 59.6665 51.4792 59.9998 51.3125 60.4582C50.8125 61.8332 49.9792 62.8957 48.5625 63.4165C48.3334 63.4998 48.1042 63.6457 48.0417 63.8332L47.8959 63.7707C47.6875 63.8748 47.3542 63.854 47.1459 63.8957L46.2709 64.0207H28.0834C25.7917 64.0207 23.5209 61.3957 23.5209 59.6665L23.4792 34.854L23.5209 28.5415H23.6875C24.0417 28.7915 24.4375 29.0415 24.6875 29.3957H24.7084Z" fill="#1B1414"/>
<path d="M28.4166 33.4165C28.125 33.5623 28.2291 33.854 28.2291 34.2082V53.6873L34.5625 53.7082H46.6041C46.9791 52.7082 46.4583 51.9582 46.875 51.6457C47.3958 52.229 48.1041 52.7082 48.6041 53.3332V53.8123L48.5625 55.3957C44.6041 55.604 40.7708 55.4998 36.8125 55.4998L26.3333 55.4582L26.2708 37.4165L26.3125 31.229L28.0208 32.8123C28.25 33.0207 28.4583 33.1248 28.4375 33.4165H28.4166Z" fill="#190808"/>
<path d="M46.4792 41.9582C46.2708 41.9165 46.0417 41.8123 45.875 41.5832C45.2708 40.8332 44.4583 40.3123 43.8125 39.6248C43.3125 39.104 42.9375 38.604 42.3333 38.1665C41.9167 37.854 41.4375 37.3957 41.1458 36.979C40.6667 36.2915 40.0416 35.9582 39.5208 35.354L37.75 33.3957C37.125 32.7082 36.4792 32.1248 35.8125 31.4373L32.1458 27.7082C32.1458 27.7082 31.9792 27.7082 31.9375 27.7082C31.9375 27.479 31.7917 27.3123 31.6042 27.1248L29.7083 25.2707C29.2292 24.8123 28.6667 24.3332 28.4167 23.7082C28.2917 23.3957 28.3542 22.9582 28.4167 22.5623L32.1458 22.479L46.5208 22.5623C46.8125 23.3748 46.625 24.1873 46.625 25.0207V27.2082V28.979V36.0207L46.6875 41.4582C46.6875 41.6665 46.6042 41.8332 46.5 41.9373L46.4792 41.9582Z" fill="#201F1F"/>
<path d="M27.9584 14.3748L43.8959 14.2915C45.1667 14.2915 46.3125 14.354 47.4584 14.3332H47.7709C47.9792 14.6248 48.3959 14.6457 48.7709 14.7915C49.625 15.1248 50.1459 15.8332 50.6875 16.4373L50.8125 16.5832C51.4167 17.2915 51.4167 18.229 51.6459 19.2707V46.104C51.6459 46.2082 51.6459 46.4165 51.6875 46.5207L51.5834 47.104C50.75 46.6665 50.1667 45.979 49.5625 45.3123C49.6459 45.1873 49.5209 44.9582 49.5209 44.8332V19.8332C49.5625 18.104 48.6875 16.5832 47.1667 16.4165C47.1042 16.2915 46.9584 16.2707 46.8125 16.2498H46.5C46.3542 15.9998 46.0625 16.1248 45.8334 16.1248H43.9167H41.6459H41.0209H33.7292L32.4792 16.1665L30.9792 16.1248H29.0834C28.8542 16.0623 28.5417 16.0415 28.3959 16.2498C28.3125 16.2498 28.1667 16.229 28.1042 16.2498C27.9584 16.229 27.8125 16.2707 27.75 16.3957C27.2084 16.6248 26.5 16.9165 26.125 17.479C25.4584 18.4998 25.2709 19.6457 25.3125 20.7915C24.6667 20.1665 23.8125 19.8332 23.6459 19.0832C23.0417 16.5415 26.1459 14.3332 27.9584 14.3332V14.3748Z" fill="#190808"/>
<path d="M33.8958 20.4795C34.8541 20.4795 35.7708 20.6253 36.7916 20.6045L42.1458 20.5628L47.4375 20.5003C48.0833 20.5003 48.7291 20.9378 48.7291 21.6462L48.6875 40.167C48.6875 40.167 48.5833 40.292 48.6041 40.3962C48.6041 40.4587 48.6458 40.5003 48.7083 40.5212L48.6666 43.9795C47.2916 43.4795 46.9375 42.167 46.4791 42.3128V41.9587C46.5833 41.8545 46.6875 41.6878 46.6875 41.4795L46.6458 36.042V29.0003V27.2295V25.042C46.6458 24.2295 46.8333 23.417 46.5208 22.5837L32.1458 22.5003L28.4166 22.5837C28.3541 22.9795 28.2916 23.417 28.4166 23.7295C28.0625 23.7295 27.8958 23.3962 27.6458 23.2087C27.0416 22.7503 26.5625 22.3337 26.1041 21.8337C26.3333 21.542 26.2916 21.1045 26.4583 20.7712C26.6041 20.5003 27.1458 20.5212 27.4375 20.5212L33.8958 20.4795Z" fill="#1B1414"/>
<path d="M28.3959 16.2915H28.6875C28.8125 16.8957 29.2917 17.1873 29.9167 17.104C30.375 17.0415 31.0625 16.7915 31 16.2915H31.3125C31.5209 17.1873 32.6459 16.3957 33.25 16.8332C33.4584 16.979 33.5625 17.3123 33.6667 17.5832C33.6667 17.6248 33.6667 17.6873 33.6667 17.729C33.5625 18.1665 33.5209 18.6248 33.5834 19.1873H35.9792C35.875 19.5623 35.8125 19.9373 35.9792 20.3123H34.1875C34.0209 20.3123 33.8959 20.3748 33.875 20.4582L27.4167 20.4998C27.125 20.4998 26.5834 20.4998 26.4375 20.7498C26.25 21.0832 26.3125 21.5207 26.0834 21.8123C25.8125 21.5207 25.5209 21.1457 25.2917 20.8332C25.25 19.6873 25.4375 18.5415 26.1042 17.5207C26.4792 16.9582 27.1875 16.6665 27.7292 16.4373L28.0834 16.2915C28.0834 16.2915 28.2917 16.2915 28.375 16.2915H28.3959Z" fill="#FAFAFA"/>
<path d="M46.4792 41.9583V42.3125C46.2083 42.3958 45.9167 42.4583 45.6458 42.4375L44.7292 41.6667C44.5208 41.1875 44.1458 41 43.9167 40.6875C43.4375 40.0208 42.8958 39.7083 42.2708 39.2292C41.5417 38.6458 41.1042 37.6875 40.25 37.2292C39.75 36.9583 39.5417 36.3958 39.125 36.1042C38.2083 35.4792 37.4583 34.6042 36.7083 33.8125L34.6042 31.5833L33.0417 29.9167C33.3333 28.625 32.1667 28.7292 32.125 27.75L35.7917 31.4792C36.4583 32.1458 37.1042 32.75 37.7292 33.4375L39.5 35.3958C40.0417 35.9792 40.6667 36.3333 41.125 37.0208C41.4167 37.4375 41.8958 37.8958 42.3125 38.2083C42.9167 38.6458 43.2917 39.1458 43.7917 39.6667C44.4375 40.3542 45.25 40.875 45.8542 41.625C46.0208 41.8333 46.25 41.9583 46.4583 42L46.4792 41.9583Z" fill="#D32823"/>
<path d="M31.9375 27.7085C31.5 27.8543 31.2916 27.3335 30.9791 27.146C30.3958 26.8335 30.0416 27.3127 29.7083 25.271L31.6041 27.1252C31.7916 27.3127 31.9583 27.4585 31.9375 27.7085Z" fill="#D32823"/>
<path d="M33.7292 16.1455C33.7292 16.1455 33.8958 16.2913 34.0625 16.2913H40.6875C40.8542 16.2913 40.9583 16.2288 41.0208 16.1455H41.6458C42.3542 16.3538 43.2083 16.3538 43.9167 16.1455H45.8333C46.0208 16.3122 46.2708 16.2705 46.5 16.2705H46.8125C46.8958 16.4163 47.0208 16.4163 47.1667 16.4372C48.6875 16.6038 49.5625 18.1247 49.5625 19.8538V44.8538C49.4375 44.8122 49.2083 44.7913 49.1042 44.6872L48.6667 43.9372L48.7083 40.4788V40.1247L48.7292 21.6038C48.7292 20.8955 48.0833 20.458 47.4375 20.458L42.1458 20.5205C41.2292 20.333 40.4583 20.333 39.5417 20.333L36.0208 20.2913C35.8542 19.9372 35.9167 19.5413 36.0208 19.1663L41.5417 19.083C41.7083 18.6872 41.8542 18.0622 41.5833 17.7497L37.625 17.708C37.7083 17.3538 37.625 17.0205 37.3333 16.7913C37.0417 16.5622 36.625 16.5622 36.25 16.7497C35.875 16.9372 35.7917 17.333 35.8542 17.7288H33.9167C33.9167 17.7288 33.7708 17.6038 33.6667 17.5622C33.5625 17.2913 33.4583 16.958 33.25 16.8122C32.6458 16.3747 31.5208 17.1872 31.3125 16.2705C31.7083 16.2705 32.0833 16.1872 32.4583 16.1872L33.7083 16.1455H33.7292Z" fill="#F5F4F4"/>
<path d="M48.6458 43.9582L49.0833 44.7082C48.0833 45.5415 47.2291 44.5207 46.2708 43.4582C45.9791 43.1248 45.5833 42.9165 45.6458 42.4165C45.9375 42.4582 46.2083 42.3748 46.4791 42.2915C46.9166 42.1457 47.2916 43.4582 48.6666 43.9582H48.6458Z" fill="#D7483E"/>
<path d="M38.6459 61.1042C37.7917 61.6667 36.6875 61.3959 36.0417 60.7917C35.25 60.1042 34.8334 59.25 35.1042 58.2292C35.3125 57.4167 36 56.5834 36.9584 56.4375C38.0209 56.2917 38.9375 56.5834 39.5209 57.375C40.0625 58.125 40.3125 59.125 39.7292 60.0209C39.5 60.375 39.0834 60.8125 38.6459 61.0834V61.1042ZM38.8334 58.8959C38.8334 58.1875 38.2709 57.625 37.5625 57.625C36.8542 57.625 36.2917 58.1875 36.2917 58.8959C36.2917 59.6042 36.8542 60.1667 37.5625 60.1667C38.2709 60.1667 38.8334 59.6042 38.8334 58.8959Z" fill="#201F1F"/>
<path d="M23.5625 28.5625L23.5208 34.875L23.5625 59.6875C23.5625 61.4167 25.8333 64.0417 28.125 64.0417H46.3125L47.1875 63.9167C47.1041 64.0625 47.0208 64.25 46.6666 64.2292H45.375C44.625 64.1875 43.9167 64.3333 43.125 64.3333H40.875L38.7708 64.4792L37 64.3542H36.5208H36.0416H35.2291L32.7291 64.375L32.1666 64.3333C31.0625 64.4167 29.9583 64.2917 28.7916 64.1875C27.9583 64.1042 27.1041 64.375 26.3958 63.9792C26.3125 63.9375 26.2291 63.8542 26.1041 63.8542H25.8958C25.9166 63.6042 25.7291 63.375 25.4375 63.375C25.3541 63.2083 25.2291 63.0833 25.0625 63C24.8125 62.8542 24.4791 62.6667 24.3541 62.375L23.6666 60.9167C23.5625 60.6875 23.5625 60.4792 23.2916 60.4792C23.2083 60.0625 23.1458 59.6875 23.1458 59.1458V41.2708L23.25 32.1458C23.25 30.8958 23.3333 29.7083 23.3125 28.5H23.625L23.5625 28.5625Z" fill="#D7483E"/>
<path d="M48.2709 63.9165C48.3125 64.0415 48.2709 64.1873 48.1667 64.229C48.0209 64.2915 47.9792 64.1873 47.9584 64.104L47.9167 63.7915L48.0625 63.854C48.0625 63.854 48.2084 63.9165 48.2709 63.9165Z" fill="#DE3C32"/>
<path d="M51.6459 46.1458V19.3125C51.3959 18.2917 51.3959 17.3542 50.7917 16.625C51.2292 16.875 51.7084 17.5 51.7292 18.1458L51.875 22.2083L51.9584 45.8125C51.9584 45.9792 51.8959 46.1042 51.8542 46.1458C51.8125 46.1875 51.6875 46.1875 51.625 46.1458H51.6459Z" fill="#D7483E"/>
<path d="M30.9792 16.167V16.3128C31.0625 16.8128 30.375 17.0628 29.9167 17.1253C29.2917 17.2087 28.8125 16.917 28.6875 16.3128L29.0625 16.1878H30.9583L30.9792 16.167Z" fill="#F5F4F4"/>
<path d="M41 16.1455C41 16.1455 40.8333 16.2913 40.6666 16.2913H34.0416C33.875 16.2913 33.7708 16.2288 33.7083 16.1455H41Z" fill="#EAE9EA"/>
<path d="M43.9166 16.1455C43.2083 16.333 42.3541 16.3538 41.6458 16.1455H43.9166Z" fill="#EAE9EA"/>
<path d="M32.4584 16.1872C32.0834 16.1872 31.7084 16.2705 31.3125 16.2705H31L30.9792 16.1455L32.4792 16.1872H32.4584Z" fill="#EAE9EA"/>
<path d="M29.0834 16.1665L28.7084 16.2915H28.4167C28.5625 16.0832 28.875 16.104 29.1042 16.1665H29.0834Z" fill="#EAE9EA"/>
<path d="M46.5 16.2917C46.2708 16.2917 46.0208 16.3125 45.8333 16.1667C46.0625 16.1667 46.3541 16.0625 46.5 16.2917Z" fill="#EAE9EA"/>
<path d="M47.1459 16.4377C47 16.4377 46.875 16.4377 46.7917 16.271C46.9375 16.271 47.0625 16.2918 47.1459 16.4377Z" fill="#EAE9EA"/>
<path d="M28.1042 16.2917L27.75 16.4376C27.8333 16.3126 27.9583 16.2709 28.1042 16.2917Z" fill="#EAE9EA"/>
<path d="M36 20.3123L39.5208 20.354C40.4375 20.354 41.2083 20.354 42.125 20.5415L36.7708 20.5832C35.7708 20.5832 34.8333 20.4373 33.875 20.4582C33.875 20.3748 34.0208 20.2915 34.1875 20.2915H35.9792L36 20.3123Z" fill="#EAE9EA"/>
<path d="M48.7083 40.5002C48.7083 40.5002 48.625 40.4377 48.6041 40.3752C48.5833 40.271 48.6041 40.1877 48.6875 40.146V40.5002H48.7083Z" fill="#D7483E"/>
<path d="M33.9167 17.729H35.8542H37.625L41.5833 17.7707C41.8542 18.0832 41.7083 18.7082 41.5417 19.104L36.0208 19.1873H33.625C33.5625 18.6248 33.6042 18.1665 33.7083 17.729H33.9375H33.9167Z" fill="#201F1F"/>
<path d="M33.9167 17.7293H33.6875C33.6875 17.7293 33.6875 17.6252 33.6875 17.5835C33.7708 17.6252 33.8542 17.6668 33.9375 17.7293H33.9167Z" fill="#EAE9EA"/>
<path d="M32.6875 64.3955C32.6459 64.9163 34.5417 65.0413 35.1875 64.8538H36.0209L36 64.9997C35.6875 64.9997 35.2709 64.9163 35.0417 65.208L32.4584 65.1455H30.3542C30.3542 65.1455 30.3542 64.9788 30.3959 64.9372C30.4375 64.8747 30.5417 64.8538 30.6667 64.833L31.8125 64.6663C31.9375 64.6663 32.0625 64.6038 32.1042 64.5622C32.1459 64.5205 32.1459 64.3955 32.1042 64.333L32.6667 64.3747L32.6875 64.3955Z" fill="#C42420"/>
<path d="M37.6041 17.7499H35.8333C35.7708 17.3541 35.8958 16.9583 36.2291 16.7708C36.5833 16.5833 36.9999 16.5624 37.3124 16.8124C37.6249 17.0624 37.6874 17.3749 37.6041 17.7291V17.7499Z" fill="#EAE9EA"/>
<path d="M37.5625 60.1667C38.2644 60.1667 38.8334 59.5977 38.8334 58.8958C38.8334 58.194 38.2644 57.625 37.5625 57.625C36.8607 57.625 36.2917 58.194 36.2917 58.8958C36.2917 59.5977 36.8607 60.1667 37.5625 60.1667Z" fill="#EAE9EA"/>
<path d="M32.125 64.3545C32.125 64.3545 32.1459 64.542 32.125 64.5837C32.0834 64.6253 31.9375 64.667 31.8334 64.6878L30.6875 64.8545C30.5625 64.8545 30.4584 64.8962 30.4167 64.9587C30.375 65.0003 30.3542 65.1045 30.375 65.167H28.2709C28.125 64.9587 27.8125 65.0003 27.5834 65.0003H27.3125C27.2084 64.8337 27 64.792 26.8125 64.8337C26.6875 64.7503 26.5 64.7087 26.3542 64.667V63.9795C27.0834 64.3753 27.9167 64.1045 28.7709 64.1878C29.9584 64.292 31.0417 64.417 32.1459 64.3337L32.125 64.3545Z" fill="#DE3C32"/>
<path d="M40.8333 64.3545V65.0212H37C36.9375 64.8128 36.9375 64.6045 36.9583 64.3962L38.7292 64.5212L40.8333 64.3753V64.3545Z" fill="#DF2928"/>
<path d="M45.3541 64.2081C45.4166 64.8748 44.1666 64.1664 44.2291 64.8539C43.2708 64.8539 42.375 64.6039 41.3333 64.9998H40.8541V64.3539H43.1041C43.8958 64.3331 44.625 64.1873 45.3541 64.2081Z" fill="#DE3C32"/>
<path d="M35.1874 64.375V64.875C34.5416 65.0625 32.6458 64.9375 32.6874 64.4167H35.1874V64.375Z" fill="#DF2928"/>
<path d="M24.2917 62.4163H23.5625C23.5625 62.4163 23.5625 62.3122 23.5625 62.2705L23.2292 60.5205C23.5 60.5205 23.5 60.7288 23.6042 60.958L24.2917 62.4163Z" fill="#DE3C32"/>
<path d="M36 64.375L36.0208 64.8542L35.1875 64.875V64.375H36Z" fill="#DE3C32"/>
<path d="M36.9584 64.375C36.9375 64.5833 36.9584 64.7917 37 65H36.4792V64.375H36.9584Z" fill="#DE3C32"/>
<path d="M36.4792 64.375V65.0208H36L36.0208 64.8542L36 64.375H36.4792Z" fill="#DF2928"/>
<path d="M25.8334 63.9165C25.5 63.9582 25.125 63.9165 25.0417 63.5415L25.375 63.4165C25.6667 63.4165 25.8542 63.6457 25.8334 63.9165Z" fill="#DF2928"/>
<path d="M26.3333 64.0207V64.7082C26.3333 64.7082 26.1458 64.7082 26.0833 64.7498L26.125 64.5832C26.0416 64.3748 26.0208 64.1457 26.0625 63.9165C26.1666 63.9165 26.2708 63.9998 26.3541 64.0415L26.3333 64.0207Z" fill="#DF2928"/>
<path d="M25.375 63.417L25.0417 63.542C25.0417 63.542 24.9375 63.4378 24.875 63.417L25 63.042C25.1667 63.1253 25.2917 63.2503 25.375 63.417Z" fill="#DE3C32"/>
</svg>
