<svg width="790" height="790" viewBox="0 0 790 790" fill="none" xmlns="http://www.w3.org/2000/svg">
<path d="M215.929 703.977V706.83C214.831 706.391 212.637 706.83 212.637 707.708C212.198 710.122 214.173 717.363 217.465 721.313C219.44 723.727 220.756 722.411 223.39 721.752H244.895C246.87 721.972 247.09 719.777 246.651 718.68H253.454C252.795 720.216 253.454 721.752 254.551 721.752H260.037H265.523C266.62 721.752 267.279 720.216 266.84 718.68H285.492C285.273 722.411 288.126 722.63 291.417 722.191C293.831 722.191 296.245 722.191 295.806 718.461H546.412C545.973 725.483 561.334 723.508 557.384 727.677C556.945 728.116 555.409 728.555 554.092 728.555H534.562C534.562 728.555 533.684 729.652 533.684 730.311H576.256C576.256 730.311 575.598 731.847 574.501 731.847H526.662L287.906 731.188L234.362 731.627C227.12 731.627 216.806 728.336 212.637 722.191C203.64 709.463 206.273 693.883 211.759 680.497C213.734 675.888 215.49 670.841 219.22 668.866C213.295 680.277 210.662 700.686 211.759 701.783C212.856 702.88 214.392 703.319 216.148 703.758L215.929 703.977Z" fill="#D8332D"/>
<path d="M645.821 567.046C643.846 567.485 641.871 569.021 641.432 571.874L637.263 594.915V599.524C635.946 599.304 634.41 599.743 633.971 600.84C633.532 601.937 633.752 602.815 633.971 603.474C633.313 603.474 632.874 604.571 632.435 605.01L604.785 618.396H603.469H596.666L590.082 619.493C589.863 614.007 597.982 618.396 604.785 606.107H611.588L615.757 606.546C622.999 606.985 628.705 599.743 631.996 592.282C636.385 582.626 635.946 571.654 637.482 560.462C646.48 553.66 659.427 555.415 659.427 550.149C661.402 549.71 664.255 550.149 666.23 550.587C675.885 551.904 683.785 544.004 689.93 536.543C694.099 531.276 692.783 527.107 693.441 520.962L697.391 482.56L699.366 426.821L700.244 376.349C700.244 374.593 699.366 373.276 698.488 373.057V330.704C698.488 330.704 700.463 330.704 700.902 330.485C701.56 330.046 701.999 328.729 701.999 327.412V310.076C701.999 308.76 701.56 307.443 700.902 307.004C700.463 306.565 699.146 306.565 698.488 307.004L699.146 288.351C699.805 269.918 699.805 250.607 699.146 231.515L698.269 201.671C698.269 198.379 699.146 193.99 696.513 191.576V183.896C698.488 183.676 700.682 183.237 701.78 182.36C705.071 179.726 701.78 173.582 705.291 171.168L706.388 198.379L707.705 225.81L708.363 409.046L706.827 444.815L703.316 514.818C696.074 557.171 680.494 556.951 645.602 566.607L645.821 567.046Z" fill="#D8332D"/>
<path d="M481.021 62.7608H484.532C489.58 62.7608 495.285 63.858 499.893 60.7858C503.185 62.1024 507.793 61.4441 511.305 61.2247C511.305 63.6386 512.841 64.5163 514.377 64.5163H518.766H519.643C522.057 66.0524 523.813 68.4663 523.813 71.5386C517.23 72.1969 510.646 70.0024 503.405 69.783L472.902 69.3441C466.099 69.3441 459.296 66.9302 452.493 68.0274C442.838 69.5635 434.06 65.3941 424.843 65.3941L357.035 66.4913L336.627 68.2469C316.877 70.0024 296.468 69.1247 293.616 69.783C292.738 70.0024 291.86 71.3191 292.299 72.8552H285.716C285.716 72.8552 284.18 71.3191 282.424 71.3191H271.671C273.646 68.9052 276.938 69.783 281.107 68.9052C274.963 66.4913 268.38 66.0524 262.016 66.2719L263.771 62.9802C263.771 62.9802 266.185 62.9802 267.063 62.7608C276.28 66.0524 287.471 65.6136 285.935 61.4441C287.691 61.4441 289.446 61.4441 290.982 61.883C300.418 64.7358 310.952 62.3219 321.705 61.883L369.982 60.5663L433.841 60.1274C444.593 60.1274 454.907 62.3219 466.099 61.4441L481.241 62.9802L481.021 62.7608Z" fill="#DE3C32"/>
<path d="M700.027 118.937C694.761 118.717 696.516 110.159 689.275 109.72C688.177 101.162 679.839 89.7507 670.841 85.8007C654.164 78.3396 636.169 80.0951 618.614 77.9007C606.764 76.3646 596.45 74.609 584.6 74.3896C574.286 74.1701 561.339 70.0007 552.122 76.3646C546.855 80.0951 544.441 89.3118 537.2 89.9701L544.222 74.609C547.514 67.3674 555.194 63.6368 564.411 64.2951L654.164 71.0979C680.277 73.0729 699.15 93.0424 700.027 118.717V118.937Z" fill="#D32823"/>
<path d="M110.157 511.747C113.009 535.008 118.057 546.638 141.976 551.466L164.798 556.074L169.846 583.944C172.698 599.963 185.646 604.791 200.129 606.766L205.615 609.838H179.721C168.748 608.083 165.457 590.527 159.312 582.847C159.751 581.53 160.19 579.336 160.19 578.019L159.312 562.658C159.312 561.122 157.118 560.902 156.679 561.78C156.459 562.438 155.362 563.974 154.704 563.974H141.537C141.537 562.438 140.44 561.122 138.246 560.463L127.273 557.611H124.201C123.762 554.538 120.032 554.099 117.837 551.905L108.621 542.03C108.621 542.03 108.621 540.933 109.279 540.494C103.354 527.327 101.818 513.063 101.159 498.361L99.8428 474.222C102.476 476.636 102.696 480.366 103.354 484.536L106.646 506.699C107.084 509.991 108.401 511.308 110.157 511.966V511.747Z" fill="#DE3C32"/>
<path d="M200.137 606.765L233.931 611.154C231.079 615.762 243.806 615.762 256.315 617.298L273.651 619.273C270.579 620.81 267.068 620.151 266.409 623.004L220.765 620.151C197.065 618.615 175.559 622.346 164.368 598.207C161.954 593.16 156.906 588.332 158.881 582.846C165.026 590.526 168.318 608.082 179.29 610.057H205.184L199.698 606.765H200.137Z" fill="#C42420"/>
<path d="M604.788 606.542C597.766 619.05 589.647 614.661 590.086 619.928L558.047 622.342C549.269 623 541.369 621.245 531.713 623.439C527.324 624.536 520.302 630.022 524.252 634.85C528.861 640.336 544.661 633.753 545.977 640.117C531.274 641.653 517.449 640.117 518.327 629.583C518.986 622.781 528.422 620.147 538.736 620.147C544.88 620.147 547.733 620.806 551.683 616.856C552.341 616.197 552.78 615.319 551.024 614.003L604.788 606.322V606.542Z" fill="#C42420"/>
<path d="M239.635 64.5151C239.855 65.6123 240.952 66.2706 242.707 66.2706H261.58C267.944 66.2706 274.527 66.4901 280.671 68.904C276.502 69.7817 273.43 68.9039 271.235 71.0984L258.069 73.0734C258.069 71.5373 256.752 71.0984 255.435 71.0984C254.119 71.0984 253.021 71.3178 252.802 72.8539H239.196C235.905 72.8539 231.516 71.9762 229.102 74.6095H220.544C216.594 74.6095 211.766 73.5123 208.694 76.1456C203.866 76.1456 198.16 76.1456 193.552 75.7067L166.341 73.0734V71.0984H169.632H179.946C181.482 71.0984 181.921 69.7817 181.702 68.4651L196.844 68.0262C198.38 68.0262 200.355 70.4401 203.427 69.3428C214.399 65.8317 220.982 69.3428 227.566 65.8317C231.077 63.8567 235.905 64.9539 239.416 64.0762L239.635 64.5151Z" fill="#D32823"/>
<path d="M289.442 640.337C291.417 640.337 292.514 641.434 292.075 642.97C291.856 644.287 290.759 645.384 288.784 645.604L271.886 646.92C262.231 647.579 252.795 649.334 246.431 656.137L245.114 657.454C242.92 657.015 242.481 658.551 241.603 659.648L224.706 677.643C217.903 684.884 215.928 693.662 216.147 703.976C214.611 703.757 212.856 703.098 211.759 702.001C210.661 700.904 213.295 680.276 219.22 669.084C223.828 663.379 222.95 660.087 229.534 657.234L249.503 648.457C260.256 643.848 271.228 640.557 283.297 641.434C285.931 641.434 288.125 642.97 289.661 640.118L289.442 640.337Z" fill="#DE3C32"/>
<path d="M565.946 654.603H569.457L570.993 655.7C569.896 658.333 568.36 659.65 570.335 659.431L573.407 658.992C575.162 658.772 576.699 661.186 578.015 662.503C578.235 664.478 579.771 665.795 581.746 666.233C582.185 666.672 582.624 667.55 583.062 667.77L593.157 698.931C594.254 702.003 591.84 706.831 595.132 708.806C591.401 719.12 585.257 731.628 577.796 730.97C579.99 728.117 581.087 725.483 579.771 721.095C582.185 720.656 584.818 719.997 585.476 718.9C590.962 708.586 584.379 682.911 573.846 670.403L558.485 656.578L547.293 649.117C552.121 644.947 559.362 655.261 565.726 654.822L565.946 654.603Z" fill="#D8332D"/>
<path d="M547.516 648.894L558.707 656.355L574.068 670.18C584.602 682.688 591.185 708.363 585.699 718.677C585.041 719.774 582.407 720.652 579.993 720.871C581.31 725.26 580.213 727.894 578.018 730.746H576.482H533.91C533.91 730.088 534.349 729.43 534.788 728.991H554.318C555.635 728.991 557.171 728.332 557.61 727.894C561.78 723.724 546.199 725.699 546.638 718.896H566.607C570.996 718.896 581.749 718.019 582.846 711.874C587.235 685.98 568.582 663.157 544.663 652.624L543.566 648.894C543.566 648.894 546.419 648.894 547.516 648.894Z" fill="#D7483E"/>
<path d="M145.927 72.8569C145.488 74.1736 145.927 78.7819 148.122 78.7819C150.316 78.7819 153.388 77.2458 154.266 80.0986L131.225 85.3653L119.375 93.2653C111.694 98.3125 112.791 108.626 111.475 116.307L105.55 147.907C105.55 149.004 105.55 150.54 105.111 151.637C104.672 152.515 103.575 153.174 102.038 152.954C101.819 137.374 103.355 121.574 107.305 105.554C108.183 102.043 111.475 98.3125 110.597 95.2403C110.597 94.8014 110.597 94.3625 110.597 93.9236C112.791 92.6069 114.766 90.6319 115.644 88.218C116.083 87.9986 116.741 87.1208 116.961 86.6819C119.813 85.3653 122.666 82.0736 125.738 81.8542C131.005 81.1958 136.052 79.2208 139.783 75.0514L141.319 73.2958H145.927V72.8569Z" fill="#D8332D"/>
<path d="M700.031 118.939V123.986C698.056 123.986 698.495 126.18 700.251 125.741C700.251 133.422 702.226 141.322 702.006 149.222C702.006 150.758 702.006 152.294 703.542 152.952L705.517 171.386C702.006 173.8 705.298 179.944 702.006 182.577C700.909 183.455 698.714 183.894 696.959 184.114L693.887 148.344L689.278 109.502C696.52 109.941 694.764 118.5 700.031 118.719V118.939Z" fill="#DE3C32"/>
<path d="M244.457 611.813C245.335 613.13 246.651 613.13 248.187 613.35L290.54 616.422C287.687 632.222 297.782 644.291 294.71 647.363C292.296 649.777 265.085 646.705 246.212 656.141C252.576 649.338 262.012 647.583 271.668 646.924L288.565 645.608C290.54 645.608 291.418 644.291 291.857 642.974C292.296 641.438 291.199 640.341 289.224 640.341L288.785 637.488C288.565 635.513 288.785 633.099 286.81 632.002C287.249 627.833 285.493 623.444 281.104 621.03C279.787 620.372 278.032 620.811 277.593 621.688C277.374 622.127 276.935 622.786 276.935 623.444H266.401C267.06 620.372 270.351 621.03 273.643 619.494L256.307 617.519C243.579 615.983 231.071 615.983 233.924 611.375L244.457 612.033V611.813Z" fill="#D7483E"/>
<path d="M538.737 620.149C528.424 620.149 518.988 622.782 518.329 629.585C517.451 639.899 531.276 641.654 545.979 640.118C548.832 639.899 552.124 640.118 554.099 641.874C554.099 642.971 555.196 643.849 556.074 643.849H558.926C558.926 645.385 559.804 646.482 561.121 647.36L563.974 649.116C565.071 650.652 565.729 652.627 565.949 654.602C559.585 655.041 552.343 644.727 547.515 648.896C546.418 648.896 544.663 649.335 543.565 648.896C530.618 643.629 519.865 648.018 511.526 643.629L518.987 619.052L535.885 618.613C537.64 618.613 538.957 619.271 539.176 620.368L538.737 620.149Z" fill="#D32823"/>
<path d="M287.038 632.002C286.818 633.977 287.038 636.391 289.013 637.488L289.452 640.341C288.135 643.194 285.721 641.877 283.088 641.658C271.018 640.78 260.046 643.852 249.293 648.68L229.324 657.458C253.682 624.322 292.085 649.119 277.163 623.444C277.163 622.785 277.602 622.127 277.821 621.688C278.479 620.81 280.015 620.372 281.332 621.03C285.721 623.444 287.477 627.833 287.038 632.002Z" fill="#C42420"/>
<path d="M544.226 74.8302L537.204 90.1913C534.79 95.4579 532.156 99.8468 529.084 104.016H524.695L530.401 93.7024C532.376 90.1913 534.131 86.8996 533.912 83.6079C534.79 83.6079 535.668 83.3885 536.106 82.9496C536.984 82.5107 537.643 80.3163 536.984 79.2191C536.545 78.3413 534.79 77.9024 533.693 77.9024L531.937 74.6107L533.693 71.0996C536.765 73.7329 540.056 75.9274 544.226 74.8302Z" fill="#C42420"/>
<path d="M159.76 69.5617V73.5117C160.199 75.4867 159.76 77.4617 159.102 79.2173C158.005 78.9978 155.81 79.8756 154.494 80.0951C153.616 77.2423 150.544 78.7784 148.349 78.7784C146.374 78.7784 145.716 73.9506 146.155 72.8534C150.324 70.2201 154.933 69.3423 159.76 69.3423V69.5617Z" fill="#D32823"/>
<path d="M645.826 567.046L640.779 591.624C640.34 594.038 639.243 595.135 637.268 595.135L641.437 572.094C641.876 569.241 643.851 567.705 645.826 567.266V567.046Z" fill="#C42420"/>
<path d="M523.373 64.2959C523.373 64.2959 524.471 66.0515 525.568 66.0515C527.982 66.0515 530.176 66.0515 531.932 67.5876C532.371 68.4653 533.029 69.1237 533.687 69.5626C533.687 70.0015 533.687 70.6598 533.687 71.0987L531.932 74.6098C528.64 75.0487 526.007 73.732 523.593 71.5376C523.593 68.4653 521.837 66.0515 519.423 64.5153H523.593L523.373 64.2959Z" fill="#D32823"/>
<path d="M632.654 605.229C626.51 613.568 614.879 616.421 605.004 618.616L632.654 605.229Z" fill="#C42420"/>
<path d="M159.976 578.018C155.587 578.018 157.562 571.873 154.49 563.973C155.148 563.973 156.026 562.437 156.465 561.779C156.904 560.901 158.879 561.121 159.098 562.657L159.976 578.018Z" fill="#C42420"/>
<path d="M141.323 563.97L131.667 561.556C128.815 560.898 127.059 559.801 127.059 557.387L138.031 560.24C140.226 560.898 141.323 561.995 141.323 563.751V563.97Z" fill="#C42420"/>
<path d="M124.205 557.388C116.744 557.388 110.819 549.049 108.844 541.807L118.06 551.682C120.255 553.877 123.766 554.535 124.424 557.388H124.205Z" fill="#C42420"/>
<path d="M569.463 654.385H565.952C565.952 652.629 565.074 650.874 563.977 649.118C566.39 650.435 569.024 651.313 569.463 654.385Z" fill="#C42420"/>
<path d="M637.27 599.743C637.27 600.84 637.27 602.157 636.172 603.035C635.514 603.474 634.636 603.693 633.978 603.693C633.978 603.035 633.978 601.938 633.978 601.06C633.978 600.182 635.953 599.524 637.05 599.743H637.27Z" fill="#C42420"/>
<path d="M603.476 618.613C603.037 620.368 601.062 620.807 599.307 620.368C598.429 620.368 597.332 619.271 596.454 618.832H603.257L603.476 618.613Z" fill="#C42420"/>
<path d="M573.412 658.775L570.339 659.214C568.584 659.433 569.9 658.336 570.998 655.483C571.875 656.361 572.753 657.458 573.412 658.556V658.775Z" fill="#D32823"/>
<path d="M561.124 647.363C559.807 646.705 558.93 645.608 558.93 644.072C560.466 644.072 561.344 645.827 561.124 647.363Z" fill="#C42420"/>
<path d="M484.312 61.0061V62.7616H481.021V60.7866C481.021 60.7866 483.654 61.2255 484.312 60.7866V61.0061Z" fill="#D32823"/>
<path d="M533.908 69.5658C533.908 69.5658 532.592 68.4686 532.153 67.5908C532.811 68.0297 533.689 68.4686 533.908 69.5658Z" fill="#C42420"/>
<path d="M556.072 644.064C556.072 644.064 554.317 643.187 554.097 642.089L556.072 644.064Z" fill="#C42420"/>
<path d="M510.652 150.757C509.555 151.415 507.799 152.074 506.921 153.39L481.685 189.16L459.741 220.101C457.327 223.613 458.863 228.879 460.619 232.39L483.66 283.521L456.669 334.871C463.033 336.188 465.008 329.604 468.519 325.874L504.069 289.665C506.263 287.471 504.508 281.985 503.63 279.571L484.099 231.074C483.002 228.221 481.246 222.296 482.783 219.663C489.366 208.471 499.021 200.79 507.36 191.354L518.771 178.846C520.308 177.09 522.721 173.579 521.624 171.824C525.574 172.263 528.208 170.068 530.183 167.435C532.596 164.143 530.621 161.071 529.085 157.56L517.894 132.543L533.913 109.063L551.908 83.1681C555.199 78.3404 560.027 75.707 565.733 76.3654L617.521 80.9737C634.199 82.5098 650.658 82.5098 666.677 88.2154C678.746 92.3848 686.208 105.99 687.305 118.279L693.01 176.871L694.327 194.207L695.644 230.415L696.741 273.646C696.741 279.132 698.935 284.179 698.716 289.007L698.058 307.66V331.579V373.932L696.302 382.49L695.424 430.988L691.255 504.721C689.938 527.982 688.402 539.613 665.799 551.243C663.824 551.024 660.971 550.365 658.996 550.804L634.419 556.729L631.785 577.796C630.249 589.426 624.763 599.74 614.888 604.788C613.791 605.446 612.035 605.446 611.158 606.763H604.355L550.591 614.224L520.527 615.76C514.821 615.979 512.627 618.832 511.53 624.318L505.824 649.115C519.649 649.115 532.377 647.36 544.008 652.626C567.927 663.16 586.58 686.201 582.191 711.876C581.094 717.801 570.341 718.899 565.952 718.899H545.983L295.377 718.679H285.063H266.41H252.805H246.002H228.885C215.06 718.899 215.719 695.638 224.058 677.643L240.955 659.649C242.271 659.429 243.369 658.551 244.466 657.454L245.783 656.138C264.435 646.482 291.646 649.774 294.28 647.36C297.352 644.288 287.258 632.218 290.11 616.418L247.758 613.346C247.099 612.029 245.344 612.029 244.027 611.81L233.494 611.151L199.699 606.763C185.216 604.788 172.488 600.179 169.416 583.94L164.369 556.071L141.546 551.463C117.627 546.635 112.58 535.004 109.727 511.743C108.41 505.599 108.63 499.454 108.191 492.651L105.119 439.985L103.583 411.018V253.676C104.021 204.96 107.971 157.56 116.31 109.721C119.163 93.482 135.402 85.3626 150.324 84.0459L202.113 79.4376L227.569 77.682L247.977 75.9265C255.438 75.2681 262.46 75.2681 270.141 74.3904L285.283 72.8542H291.866C296.913 74.1709 301.96 71.5376 307.446 71.5376L347.385 70.4404L451.841 70.0015L484.319 71.757C493.316 72.1959 502.094 74.1709 511.31 73.2931C515.919 72.8542 521.624 74.8292 523.16 77.4626C525.355 81.1931 526.233 86.8987 523.819 90.8487L503.849 126.838C501.655 130.788 503.849 135.835 505.605 139.785L510.213 150.976L510.652 150.757ZM251.488 96.1154L237.883 96.7737H236.127H232.835C231.08 96.5542 228.666 96.5542 227.569 98.3098H219.23C216.158 98.3098 212.866 97.8709 210.452 99.8459H200.577C197.505 100.285 194.213 99.6265 191.799 101.382L176.877 101.821C174.024 101.821 170.733 101.163 168.099 103.576H159.76C156.469 103.576 153.835 104.235 150.763 104.893C147.471 105.551 141.985 104.893 139.352 107.746C137.158 109.94 133.866 114.11 133.427 118.938C121.138 253.676 120.919 388.635 132.33 525.568C158.444 534.126 185.874 537.638 213.305 539.393L258.291 542.246H261.583C262.68 543.124 263.996 543.343 265.533 543.563L282.21 544.44C283.966 545.318 285.721 545.318 287.477 545.318L312.494 545.757C315.127 547.732 318.419 547.074 321.271 547.074H338.388H455.352L511.31 545.318L518.333 544.66L548.835 542.246L559.149 541.368L577.583 540.49C579.338 540.49 581.533 540.71 582.849 539.174L599.527 538.735C601.063 538.735 602.38 538.296 603.477 537.418L616.644 536.979C618.399 536.979 620.813 537.418 621.91 535.443H626.958C628.494 535.443 629.81 535.004 630.688 533.688H637.271C638.808 533.688 640.124 533.249 641.002 531.932H647.366C648.683 531.713 650.438 531.932 651.096 530.176C653.73 530.835 658.119 528.86 660.752 528.421C662.946 527.982 665.141 527.543 666.238 526.007C667.774 524.032 667.555 521.838 667.774 519.643V515.913C670.188 513.718 669.749 510.646 669.53 508.013C669.53 506.257 669.091 502.965 669.969 501.429C671.724 498.138 671.505 494.626 671.285 490.896C671.285 488.482 670.846 484.971 671.724 482.776C673.48 478.826 672.821 474.876 672.821 470.707V462.149C672.821 462.149 672.821 459.735 673.26 458.857C676.113 453.151 674.358 446.349 674.577 440.204L675.455 413.213L676.113 374.151V275.621L675.455 243.143L674.796 217.907C674.796 211.982 675.674 206.276 673.699 200.571C672.383 196.621 673.26 191.354 673.26 187.185C673.26 182.138 673.699 177.968 672.163 173.36C671.066 170.068 671.505 165.24 671.724 161.729C671.944 158.218 671.285 156.024 670.408 152.951C669.31 149.001 669.749 143.954 669.969 139.565C669.969 135.615 669.969 132.543 668.652 129.032C667.555 126.399 668.213 122.01 668.213 119.157C668.213 114.988 668.871 110.599 664.921 108.404C663.385 107.526 661.849 106.868 659.874 107.088C658.996 105.551 657.68 105.771 656.144 105.551L566.391 97.6515C557.833 107.965 551.469 117.182 547.08 129.251L596.674 134.518C598.43 136.713 601.283 135.835 603.696 135.835H610.06C610.06 135.835 611.158 137.371 612.035 137.81H615.546H620.374C620.813 138.468 621.471 139.346 622.349 139.346H624.324L631.127 140.004C633.76 140.224 634.638 143.515 634.638 146.149C633.76 148.782 635.516 150.976 635.735 153.171L636.174 164.801V166.557V169.849C636.174 171.604 635.955 174.018 637.93 175.335C636.833 178.188 637.93 183.674 637.93 186.965V198.815C637.93 198.815 635.516 200.132 636.174 201.449C636.833 202.765 638.369 202.765 639.466 202.326V217.468V229.318C639.246 229.976 637.271 230.635 637.93 231.951C638.588 233.268 640.124 233.268 641.221 232.829V256.529V268.379L639.466 272.549C638.588 274.524 641.002 275.84 642.977 275.401V370.421C642.977 370.421 640.124 370.421 639.685 371.299C638.808 373.274 641.002 374.59 641.002 375.688L641.441 387.538V411.238C641.441 411.238 638.588 411.018 638.149 412.115C637.71 413.213 639.246 414.09 639.466 414.749V424.843V438.229C638.369 438.01 636.613 438.229 636.174 439.107C635.077 441.301 637.491 442.399 637.491 443.496V453.59V465.44C636.174 466.099 636.174 467.854 636.174 469.171V479.046C636.174 479.046 633.321 479.046 632.663 479.924C632.224 480.582 633.321 482.338 634.419 482.338V485.849V493.968L632.883 496.163L631.346 497.699L629.371 499.235H622.788C620.374 499.235 617.741 499.235 615.766 500.771L605.452 501.21L548.177 505.818L537.863 506.257L520.966 507.574H512.188L473.346 509.768C469.396 509.768 464.569 508.451 461.277 511.085H410.585L389.958 511.304L339.266 510.865C334.658 508.232 328.952 509.768 323.685 509.549L303.496 508.89C299.985 508.89 296.913 507.354 292.963 507.793C289.671 508.013 284.624 508.451 281.552 507.354C277.383 505.818 273.652 506.257 269.263 506.257L254.121 505.818C251.927 505.818 249.733 503.843 246.88 504.94C245.563 505.379 243.369 504.94 242.052 504.94H240.296L228.446 504.501L213.305 503.185H209.574C208.696 500.99 206.283 501.868 204.527 501.868L192.896 501.429C189.605 498.796 184.996 499.893 180.827 499.893C177.316 499.893 173.805 499.893 170.513 498.796C170.294 497.918 169.635 497.04 168.977 496.382C168.977 493.968 169.416 491.335 167.221 489.579V477.949C167.221 475.535 167.88 472.682 165.466 470.926V461.051L165.685 455.785C171.61 455.785 175.78 453.59 179.949 449.421C179.51 450.738 181.266 453.371 182.363 454.029V465.66L182.583 479.485C182.583 481.679 184.996 481.021 186.094 481.021H195.969C195.969 481.021 197.066 482.776 197.944 482.776H204.746H219.669C220.108 483.435 220.985 484.313 221.644 484.313H230.202L248.635 484.751C249.074 485.19 249.952 486.068 250.61 486.068H254.121H270.799C271.458 486.946 272.335 487.165 273.213 487.165L364.063 492.213L422.216 491.774C422.216 491.774 424.849 491.115 425.508 491.554C428.799 493.09 432.749 491.554 435.821 491.554L447.671 491.993L510.652 487.824L520.527 487.385C525.355 487.165 529.963 488.043 534.352 486.288C537.644 484.971 542.252 485.849 545.983 485.849C548.835 485.849 552.346 486.507 554.76 484.093H568.146C571.658 484.093 575.608 484.751 578.68 482.118H591.846C594.699 482.338 598.21 482.776 600.624 480.801H614.01C615.546 480.801 617.302 480.801 617.302 479.704V473.779V470.488C619.496 468.293 619.057 464.782 619.057 461.929C619.057 460.613 618.619 458.199 619.277 457.101C621.471 453.371 620.813 449.201 620.813 445.032C620.813 443.276 620.374 439.985 621.252 438.449C623.227 434.499 622.569 430.549 622.569 426.379V414.749C622.569 414.749 625.202 414.968 625.86 413.651C626.519 412.554 624.763 411.676 624.324 411.018V397.632V387.538C624.983 387.538 626.299 387.538 626.738 387.538C628.274 386.44 628.933 378.101 626.08 373.932V261.796C628.933 258.065 628.274 251.043 626.738 249.946C626.299 249.507 624.983 249.507 624.324 249.946V239.851V224.71C624.763 224.051 626.519 223.174 625.86 222.076C625.202 220.76 623.446 220.76 622.569 221.199V212.86C622.569 208.251 623.446 203.424 621.252 199.035C620.594 197.938 620.813 195.524 621.033 194.207C621.033 189.379 621.471 184.771 619.716 180.382C618.619 177.529 619.277 173.579 619.277 170.507C619.277 166.996 620.155 163.046 617.521 160.193C617.96 159.535 617.521 157.779 617.521 156.901C617.521 155.804 616.644 155.365 615.546 155.146L605.671 154.707C605.671 154.707 604.135 153.61 603.477 153.61L588.116 152.951L547.299 149.66C551.03 157.56 554.98 164.582 553.663 171.824C553.224 172.263 552.785 172.701 552.127 172.921C549.494 173.799 547.519 175.993 546.86 178.626C531.499 192.451 517.455 207.593 504.946 225.149C505.824 235.463 510.213 244.679 514.163 254.115L528.646 289.226L520.527 299.54L403.563 416.724C398.955 421.332 397.199 428.354 390.396 427.696L394.785 414.31C396.76 408.165 401.808 402.24 403.124 396.096C403.783 396.096 405.099 396.096 405.758 395.657C406.635 394.779 406.635 393.243 406.635 391.926V389.074C406.635 389.074 408.61 389.074 409.269 388.635C410.366 387.757 410.146 386.221 410.146 384.904V382.051C414.535 381.832 414.096 377.663 415.413 374.81L421.996 359.888C421.996 359.888 423.971 359.888 424.41 359.668C425.508 358.79 425.288 357.254 425.288 356.157C425.288 354.621 426.605 352.865 427.044 351.549C427.702 351.549 429.019 351.549 429.677 351.329C430.555 350.451 430.335 348.915 430.555 347.599V344.746C436.48 343.649 438.235 332.676 440.869 326.971L447.452 312.268C452.28 311.39 454.035 305.904 454.255 301.735V300.418C458.205 301.076 458.205 296.468 459.521 294.054C462.374 289.226 464.788 286.374 464.13 281.107C463.691 277.596 462.155 272.768 457.985 271.232L454.474 261.796V259.163C454.474 259.163 452.28 257.407 451.183 257.846V254.993C451.183 254.993 451.183 253.238 450.963 252.36C450.744 251.482 449.208 250.824 447.891 251.043L445.696 243.363C444.599 239.193 444.16 233.488 439.333 232.39L437.577 226.026V221.857L439.333 217.249C439.991 217.249 441.308 217.249 441.966 217.029C443.063 216.151 442.844 214.176 442.844 213.079C448.988 201.449 458.424 190.038 466.763 179.943C467.421 179.943 468.519 179.724 469.177 179.285C470.494 178.626 469.835 176.871 470.274 175.993L476.858 164.582C476.858 164.582 479.052 164.582 479.491 164.363C480.369 163.485 480.588 161.729 480.369 160.632C480.369 160.413 480.369 159.754 480.369 159.535C482.124 159.754 483.66 159.096 484.538 156.901L489.146 147.246C490.244 144.613 486.733 142.638 485.635 145.929H470.494C462.594 142.418 452.938 141.321 444.599 145.051L409.269 144.174C405.977 141.54 400.491 141.76 396.98 144.174L356.602 145.051C347.824 141.101 337.73 142.857 328.952 145.929L298.669 146.807C298.669 145.051 297.352 144.393 295.596 144.613L283.088 147.465H266.41C262.899 147.465 259.169 146.588 255.877 149.221H244.466C240.077 149.001 235.908 147.685 232.177 150.976H223.619C222.96 149.001 219.888 148.782 220.327 151.854C219.449 151.415 218.133 151.635 217.255 151.635C216.377 151.635 215.499 151.854 215.06 152.732H206.721L202.552 150.976C200.138 149.879 197.944 151.635 198.163 154.488L191.58 154.926C189.605 154.926 186.752 154.926 185.655 156.682C184.338 158.876 184.338 161.51 184.558 163.485V165.021C184.558 165.021 182.144 164.582 181.485 165.899C180.608 167.215 182.583 167.874 183.021 168.532V180.382C183.021 184.113 183.68 188.501 182.583 192.013C181.266 195.963 181.485 199.913 181.485 204.301C181.485 208.69 182.144 213.518 180.827 217.688C179.071 224.051 179.949 230.196 179.73 236.56C179.73 237.876 180.169 240.29 179.51 241.388C177.316 245.118 178.413 249.288 178.194 253.457L177.316 276.938C177.316 281.546 176.438 285.935 176.438 290.763V358.571C176.438 362.521 177.316 365.374 177.316 369.104L177.974 386.001C168.538 385.124 170.733 399.607 165.246 405.751L164.588 392.804C164.588 391.488 164.149 390.171 163.491 389.732C163.052 389.293 161.516 389.293 161.077 389.732V381.393L161.735 357.693C161.955 346.721 165.905 331.36 159.541 332.018V328.726C159.541 328.726 161.516 328.726 161.955 328.726C162.613 328.288 163.052 326.971 163.052 325.654L161.955 294.713L161.296 264.21C165.685 266.843 166.344 249.726 163.491 240.29L163.052 221.638V218.346C163.052 218.346 165.905 218.346 166.344 217.468C167.441 215.274 165.246 214.396 165.027 213.079C164.369 210.885 164.808 206.935 164.808 204.521L165.246 191.135C165.246 188.721 166.344 186.965 166.344 184.113V172.482C168.319 171.165 167.88 168.971 167.88 166.996V155.365C169.855 154.049 169.635 151.854 169.635 149.879C169.416 147.465 168.758 143.954 170.513 141.54C171.83 139.565 175.78 139.565 177.974 139.785C179.51 139.785 181.046 139.346 181.705 138.249H189.824C191.799 138.249 193.994 138.249 195.091 136.493H201.674C204.088 136.493 206.941 136.932 208.696 134.738H216.816C219.23 134.299 222.083 135.176 224.058 133.201L247.319 131.007C247.319 131.007 248.855 130.349 249.513 130.129L262.68 129.69C265.094 129.69 267.727 130.129 269.702 128.374H272.994L300.863 127.057L366.258 124.424H378.108H381.619H398.516H405.538H422.435H425.946L466.544 124.863H481.685C484.538 124.643 484.538 120.693 485.196 119.376L495.73 99.6265C496.608 97.8709 501.435 96.3348 497.924 93.482C496.169 91.9459 491.121 93.482 488.927 93.482L463.471 92.1653L447.671 91.0681H443.063H441.308H407.294L388.641 90.8487L357.919 91.2876L252.805 97.2126L251.488 96.1154ZM512.627 594.913C514.163 583.94 515.699 573.626 514.383 563.093C456.449 565.726 399.833 567.921 342.119 565.288L310.958 563.751L186.094 554.974C187.191 565.726 188.069 576.699 193.994 586.354C245.563 594.035 295.596 596.449 347.385 597.546C402.685 598.643 456.01 598.424 512.627 594.913ZM596.016 588.549C603.038 587.89 610.06 585.915 611.596 579.332L616.863 555.413L535.23 561.118L535.888 593.157L596.235 588.329L596.016 588.549ZM490.902 617.296L457.108 618.393H328.294L310.738 617.515L316.224 648.018H483.66L490.902 617.515V617.296ZM239.419 700.026H560.685C557.174 685.763 549.055 676.765 538.302 669.743H267.508C260.266 669.743 255.438 673.254 251.927 678.082C246.88 684.885 240.955 691.249 239.638 700.026H239.419Z" fill="#1B1414"/>
<path d="M246.438 718.903C246.438 718.903 246.438 722.194 244.682 722.194H223.177C217.691 718.683 215.935 712.758 215.935 707.053V704.2C215.716 694.106 217.691 685.108 224.493 677.867C216.374 696.081 215.496 719.342 229.321 719.122H246.438V718.903Z" fill="#D7483E"/>
<path d="M266.846 718.895C267.284 720.431 266.626 721.967 265.529 721.967H260.043H254.557C253.459 721.967 252.801 720.431 253.459 718.895H267.065H266.846Z" fill="#D7483E"/>
<path d="M215.934 706.829C215.934 712.754 217.689 718.679 223.175 721.752C220.542 722.191 219.225 723.507 217.25 721.313C213.959 717.582 211.984 710.121 212.423 707.707C212.423 706.829 214.617 706.171 215.934 706.829Z" fill="#DE3C32"/>
<path d="M295.816 718.681C296.255 722.192 293.841 722.192 291.427 722.411C288.135 722.631 285.063 722.411 285.502 718.681H295.816Z" fill="#D7483E"/>
<path d="M523.596 71.5382C526.01 73.5132 528.862 75.0493 531.934 74.6104L533.69 77.9021V83.3882C533.91 86.8993 532.373 90.191 530.398 93.4827L524.693 103.577L514.598 119.597L516.135 120.913L529.082 103.797C532.154 99.6271 534.787 95.2382 537.201 89.9715C544.443 89.3132 546.857 79.8771 552.123 76.366C561.34 70.0021 574.287 74.1715 584.601 74.391C596.451 74.6104 606.985 76.5854 618.615 77.9021C636.171 80.0965 654.165 78.341 670.843 85.8021C679.621 89.7521 688.179 100.944 689.276 109.722L693.885 148.563L696.957 184.333V192.013C696.957 195.305 695.859 199.694 698.493 202.108L699.371 231.952C699.81 251.044 699.81 270.355 699.371 288.788C699.59 283.96 697.396 278.913 697.396 273.427L696.298 230.197L694.982 193.988L693.665 176.652L687.96 118.06C686.643 105.552 679.401 92.166 667.332 87.9965C651.312 82.5104 634.634 82.291 618.176 80.7549L566.387 76.1465C560.462 75.7077 555.854 78.341 552.562 82.9493L534.568 108.844L518.548 132.324L529.74 157.341C531.276 161.072 533.251 163.924 530.837 167.216C528.862 169.849 526.229 172.044 522.279 171.605C517.671 165.241 514.379 157.999 511.307 150.758L506.698 139.566C505.162 135.616 502.748 130.569 504.943 126.619L524.912 90.6299C527.107 86.4604 526.448 80.9743 524.254 77.2438C522.498 74.391 516.793 72.6354 512.404 73.0743C502.968 73.9521 494.41 72.1965 485.412 71.5382L452.934 69.7827L348.479 70.2215L308.54 71.3188C303.054 71.3188 298.007 73.9521 292.96 72.6354C292.521 71.3188 293.398 70.0021 294.276 69.5632C296.91 68.6854 317.537 69.5632 337.287 68.0271L357.696 66.2715L425.504 65.1743C434.501 65.1743 443.279 69.3438 453.154 67.8076C460.176 66.7104 466.979 68.9049 473.562 69.1243L504.065 69.5632C511.307 69.5632 517.89 71.9771 524.473 71.3188L523.596 71.5382ZM515.037 123.985C515.037 123.985 514.159 122.01 513.062 122.01C511.965 122.01 511.087 122.888 511.087 123.985C511.087 125.083 511.965 125.96 513.062 125.96C514.159 125.96 515.037 125.083 515.037 123.985Z" fill="#D7483E"/>
<path d="M666.455 551.245C689.058 539.615 690.594 527.984 691.911 504.723L696.08 430.99L696.958 382.492L698.713 373.934C698.713 373.934 700.469 375.47 700.469 377.226L699.591 427.698L697.616 483.437L693.666 521.84C693.008 527.765 694.325 532.154 690.155 537.42C684.23 544.881 676.33 552.781 666.455 551.465V551.245Z" fill="#D7483E"/>
<path d="M659.646 550.808C659.646 556.074 646.699 554.099 637.702 561.121C635.946 572.313 636.604 583.285 632.215 592.941C628.924 600.402 623.218 607.644 615.977 607.205V605.01C625.632 600.183 631.118 589.649 632.654 578.019L635.288 556.952L659.865 551.027L659.646 550.808Z" fill="#D7483E"/>
<path d="M698.493 331.361V307.442C698.493 307.442 700.468 307.442 700.907 307.442C701.565 307.881 702.004 309.197 702.004 310.514V327.85C702.004 329.167 701.565 330.484 700.907 330.922C700.468 331.361 699.151 331.361 698.493 331.142V331.361Z" fill="#D7483E"/>
<path d="M698.493 202.108C695.859 199.694 696.737 195.305 696.737 192.014C699.37 194.428 698.273 198.816 698.493 202.108Z" fill="#DE3C32"/>
<path d="M615.539 604.57V606.765L611.809 606.545C612.686 605.229 614.442 605.009 615.539 604.57Z" fill="#C42420"/>
<path d="M271.448 71.0995H282.201C283.956 71.0995 285.273 71.9773 285.492 72.8551L270.351 74.3912C262.67 75.269 255.648 75.269 248.187 75.9273L227.778 77.6829L202.323 79.4384L150.534 84.0468C135.831 85.3634 119.373 93.4829 116.52 109.722C108.181 157.78 104.231 204.961 104.231 253.677V411.019L105.548 439.986L108.62 492.652C109.059 499.455 108.62 505.6 110.156 511.744C108.401 510.866 107.303 509.769 106.645 506.477L103.353 484.313C102.695 480.363 102.476 476.413 99.8423 474L99.4034 437.133C96.9895 418.7 98.9645 401.363 98.9645 382.93V213.3L100.062 173.141C103.792 168.533 105.109 161.291 102.037 156.025C101.598 155.147 102.037 153.611 101.817 152.733C103.353 153.172 104.451 152.294 104.889 151.416C105.548 150.319 105.328 149.002 105.328 147.686L111.253 116.086C112.789 108.405 111.473 98.0912 119.153 93.044L131.003 85.144L154.045 79.8773C155.142 79.6579 157.556 78.7801 158.653 78.9995C165.017 80.7551 172.259 78.5606 179.939 77.6829C184.548 77.244 190.253 79.4384 193.764 75.4884C198.592 75.9273 204.078 75.4884 208.906 75.9273C212.856 75.9273 217.684 77.0245 220.756 74.3912H229.314C232.606 74.3912 236.995 75.269 239.409 72.6356H253.014H258.062L271.228 70.6606L271.448 71.0995Z" fill="#D7483E"/>
<path d="M100.281 173.144C100.281 167.438 99.4034 161.294 102.256 156.027C105.328 161.294 104.012 168.316 100.281 173.144Z" fill="#D8332D"/>
<path d="M551.026 614.225C552.782 615.541 552.123 616.419 551.684 617.077C547.734 621.027 544.882 620.369 538.737 620.369C538.737 619.272 537.201 618.614 535.446 618.614L518.548 619.052L511.087 643.63C519.426 648.019 530.179 643.63 543.126 648.897L544.223 652.627C532.373 647.361 519.865 649.336 506.04 649.116L511.746 624.319C513.062 618.833 515.037 615.98 520.743 615.761L550.807 614.225H551.026Z" fill="#D8332D"/>
<path d="M166.558 73.2964L193.769 75.9297C190.477 79.8797 184.772 77.4658 179.944 78.1242C172.263 79.0019 165.241 81.1964 158.658 79.4408C159.535 77.6853 159.755 75.7103 159.755 73.7353C161.949 73.2964 164.363 73.2964 166.338 73.5158L166.558 73.2964Z" fill="#D8332D"/>
<path d="M220.976 74.8302C217.904 77.4635 213.076 76.5858 209.126 76.3663C212.198 73.733 217.026 74.8302 220.976 74.8302Z" fill="#D8332D"/>
<path d="M239.633 73.0726C237.219 75.7059 232.83 74.8281 229.538 74.8281C231.952 72.1948 236.341 73.0726 239.633 73.0726Z" fill="#D8332D"/>
<path d="M258.287 73.0746H253.24C253.24 71.5385 254.556 71.0996 255.873 71.0996C257.19 71.0996 258.287 71.3191 258.506 73.0746H258.287Z" fill="#D8332D"/>
<path d="M244.9 657.671C244.9 657.671 242.705 659.426 241.389 659.865C242.266 658.768 242.705 657.232 244.9 657.671Z" fill="#D7483E"/>
<path d="M289.004 637.487C287.029 636.39 286.809 634.195 287.029 632.001C289.004 633.098 288.784 635.512 289.004 637.487Z" fill="#DE3C32"/>
<path d="M248.194 613.345C246.658 613.345 245.342 613.345 244.464 611.809C245.781 611.809 247.536 611.809 248.194 613.345Z" fill="#C42420"/>
<path d="M529.085 103.797L516.138 120.913L514.602 119.597L524.696 103.577L529.085 103.797Z" fill="#D32823"/>
<path d="M533.91 83.3899V77.9038C533.91 77.9038 536.543 78.3427 537.202 79.2205C537.86 80.3177 537.202 82.5121 536.324 82.951C535.666 83.1705 535.007 83.3899 534.13 83.6094L533.91 83.3899Z" fill="#D32823"/>
<path d="M395.877 144.176H408.166L443.497 145.054C452.055 145.054 460.613 145.712 469.391 145.712H484.533L479.266 159.537C479.266 159.757 479.266 160.415 479.266 160.635C476.633 160.635 476.633 163.048 475.755 164.585L469.172 175.996C468.075 175.996 466.758 176.435 466.1 177.312C465.661 177.971 465.661 178.848 465.661 179.726C457.322 189.821 447.886 201.232 441.741 212.862C440.644 213.082 439.108 213.74 438.888 214.618L438.23 217.032L436.255 221.64C436.255 221.64 433.841 221.64 433.183 222.957C432.744 224.054 433.183 225.151 434.061 225.151L436.475 225.59L438.23 231.954C439.327 236.123 440.644 240.732 444.594 242.926L446.788 250.607C446.788 250.607 446.788 253.021 447.886 253.898C448.325 254.337 449.422 254.557 450.08 254.557V257.41C450.08 258.507 450.08 259.823 451.177 260.701C451.616 261.14 452.713 261.36 453.372 261.36L456.883 270.796C458.2 274.087 462.15 278.696 460.394 282.865L453.372 299.982V301.298C448.763 302.615 448.325 308.101 446.569 311.832L439.986 326.535C435.816 327.851 429.891 340.579 429.891 344.31V347.162C428.575 347.162 427.038 347.601 426.819 348.698L426.38 351.112C426.161 352.429 424.844 354.185 424.625 355.721C423.527 355.721 421.991 356.16 421.772 357.257L421.333 359.671L414.75 374.593C411.019 375.032 409.922 378.543 409.702 381.835V384.687C408.386 384.687 407.069 385.126 406.63 386.224C406.191 387.101 406.411 387.979 406.191 388.857V391.71C404.875 391.71 403.338 392.148 403.338 393.246L402.9 395.66C401.583 401.804 396.536 407.729 394.561 413.874C390.611 418.482 387.1 423.968 386.441 431.648C386.441 432.746 390.172 431.21 390.172 429.454V427.26C396.975 427.918 398.95 420.896 403.338 416.287L520.302 299.104L528.422 288.79L513.938 253.679C509.988 244.023 505.6 235.026 504.722 224.712C517.45 206.937 531.494 192.015 546.636 178.19C548.391 176.654 552.561 176.654 551.902 172.485C552.341 172.485 553 171.607 553.438 171.387C554.975 171.387 557.388 171.168 558.705 170.29C560.9 168.973 559.583 162.829 562.655 160.415C564.411 159.098 566.825 159.757 569.019 159.098L587.891 152.296L603.252 152.954C603.252 152.954 604.569 154.051 605.447 154.051L615.322 154.49L617.297 156.246C617.297 156.246 617.736 158.879 617.297 159.537C615.102 162.61 616.858 166.998 619.052 169.851C619.052 172.923 618.394 177.093 619.491 179.726C616.2 182.14 616.638 191.576 618.175 193.332C618.613 193.771 619.93 193.771 620.588 193.551C620.588 194.868 620.369 197.282 620.808 198.379C616.858 204.085 617.955 213.74 622.125 212.204V220.543V224.054C618.613 231.296 619.711 240.951 623.88 239.415V249.51C623.88 253.46 623.002 257.848 623.002 261.798V373.496L623.88 387.321V397.415C619.711 396.099 618.613 404.437 622.125 411.021V414.532V426.162C618.175 426.162 618.394 429.454 618.613 432.307C618.613 434.501 618.175 437.135 620.808 438.451C619.93 439.987 620.369 443.06 620.369 445.035C618.833 444.596 617.297 445.254 617.077 446.351L616.638 450.301C616.419 453.374 616.638 456.007 618.833 457.324C618.175 458.421 618.394 460.835 618.613 462.151C616.2 464.346 614.444 468.296 616.858 470.71V474.001C614.663 473.343 613.347 474.879 613.347 476.635V481.023H599.961C598.425 481.023 597.108 478.171 594.475 479.926C593.377 480.585 592.061 481.243 591.183 482.56H578.016C574.286 482.34 570.775 481.023 567.483 484.315H554.097C552.78 483.876 551.244 481.682 548.83 483.218C547.733 483.876 546.197 484.535 545.538 486.071C541.808 486.071 537.2 485.193 533.908 486.51C528.202 482.34 518.766 483.657 520.083 487.607L510.208 488.046C510.208 488.046 511.525 485.632 511.086 484.974C510.647 484.315 508.013 483.437 506.697 483.657L462.369 486.071C447.447 486.948 433.402 484.754 435.158 491.776C432.086 491.776 428.355 493.312 424.844 491.776C425.283 490.46 425.283 488.704 423.966 487.826C422.869 487.168 421.552 487.826 421.552 488.704V491.996L363.4 492.435C363.4 482.121 342.333 489.801 329.166 484.754C324.777 482.999 321.925 484.535 317.536 483.876C304.808 481.901 290.544 481.462 278.036 485.193C276.5 485.632 272.769 482.779 272.33 486.51H269.916L253.238 486.071C253.458 485.193 253.238 483.437 252.141 482.779C251.263 482.34 249.727 483.437 249.727 484.535H247.752H229.319C227.125 482.34 223.394 480.585 220.761 482.779C220.322 482.999 219.444 482.999 218.786 482.999H203.863C203.425 481.462 202.327 480.146 200.791 479.707C199.255 479.268 197.719 479.707 196.841 481.243H194.866H184.991V469.173C184.991 467.857 184.552 466.54 183.894 466.101C183.455 465.662 182.138 465.662 181.48 465.882V454.251C185.211 447.01 184.113 435.379 179.725 437.135V435.818C179.944 433.404 179.066 429.454 180.163 427.26C183.016 421.335 182.797 406.632 178.188 408.387V403.34C181.7 396.757 180.602 388.418 176.652 389.735V386.443L175.994 369.546C178.847 368.449 178.627 365.815 178.627 363.401C178.627 361.207 178.627 358.793 175.116 359.012V291.204C176.652 291.643 178.188 290.985 178.188 289.887V285.937C178.847 282.426 179.066 278.696 175.994 277.16L176.872 253.679C180.822 253.679 180.602 250.387 180.383 247.535C180.383 245.34 180.822 242.707 178.188 241.61C178.847 240.512 178.408 238.098 178.408 236.782C179.944 237.44 181.48 236.782 181.7 235.685C182.577 232.393 182.577 220.104 179.505 217.91C180.602 213.96 180.163 208.693 180.163 204.523C181.7 204.962 183.236 204.304 183.455 203.207L183.894 199.257C184.113 196.185 183.894 193.332 181.48 192.235C182.577 188.723 182.138 184.335 181.919 180.604C182.577 180.604 183.894 180.604 184.333 180.604C185.869 179.287 186.527 172.485 183.675 168.754V165.462V163.926L190.697 155.368L197.28 154.929C200.133 154.929 203.863 155.807 206.058 153.173H214.397C214.397 153.173 216.152 152.515 216.591 152.076C217.469 152.076 218.786 152.076 219.663 152.296C220.541 152.735 220.98 152.954 222.077 152.954C222.955 152.954 223.394 152.515 222.955 151.637H231.513C235.463 151.418 240.291 152.515 243.802 149.443H255.213C258.725 149.662 262.894 150.54 265.747 147.907H282.425C287.911 147.907 292.958 147.248 298.225 147.248L328.508 146.371L356.158 145.493L396.536 144.615L395.877 144.176ZM373.933 487.607V489.362H395.219V487.607H373.933Z" fill="#FEFDFE"/>
<path d="M236.127 96.9971C236.127 98.9721 238.102 98.7527 237.883 96.9971L251.489 96.3388C252.366 99.8499 254.122 101.825 258.73 101.605C265.094 101.167 276.066 106.653 276.505 113.894C276.725 118.722 270.58 123.55 271.897 127.939H268.605C266.191 127.939 263.119 127.061 261.583 129.475L248.416 129.914C248.416 129.914 246.88 130.353 246.222 130.792L222.961 132.986C220.547 133.205 217.694 132.108 215.719 134.303H207.6C205.186 134.742 202.333 133.864 200.577 136.058H193.994C192.019 136.058 189.825 136.058 188.727 137.814H180.608C179.072 137.814 177.755 138.033 176.877 139.569C174.683 139.35 170.514 139.35 169.416 141.325C167.88 143.739 168.319 147.25 168.539 149.664C166.564 149.225 164.808 150.103 165.027 152.297C165.027 153.394 166.564 154.272 167.002 155.15V166.78C165.027 166.342 163.052 167 163.272 169.414C163.272 170.511 164.808 171.389 165.247 172.267V183.897C162.833 183.458 161.736 184.555 161.516 186.75C161.516 188.725 161.516 190.7 163.93 191.139L163.491 204.525C160.639 204.086 159.322 206.061 159.761 208.914C159.98 210.45 160.639 211.767 161.516 213.303C162.175 214.4 161.516 217.033 161.736 218.35V221.642C154.933 221.203 159.322 233.492 159.541 240.514L159.98 260.703C159.98 260.703 156.469 260.703 156.689 262.458L157.786 294.936L158.664 328.95V332.242L157.786 357.697C157.566 368.011 153.616 382.275 159.98 381.617V389.955L159.541 408.608C159.541 415.411 155.152 429.236 161.736 427.48C161.736 429.455 162.175 432.308 161.516 434.283L159.761 438.672C158.664 441.305 160.639 443.5 163.272 443.061V456.228C163.272 457.325 160.419 458.203 161.736 460.617C162.175 461.714 163.93 461.933 165.027 461.714V471.589L163.272 475.758C162.394 477.733 164.808 479.05 166.783 478.611V490.242C166.783 491.778 164.369 493.533 164.808 496.167C165.247 497.922 165.905 499.019 168.319 499.019C168.758 499.019 169.416 499.019 169.855 499.458C173.147 500.555 176.658 500.775 180.169 500.555C183.461 503.408 188.289 501.872 192.239 502.092L203.869 502.53C203.43 504.286 204.308 506.042 206.502 505.603C207.38 505.603 208.477 504.725 208.916 503.628H212.647C212.647 504.944 212.208 507.139 212.647 508.017C213.744 509.772 225.375 510.43 227.789 505.164L239.639 505.603C239.639 507.358 241.394 507.578 241.394 505.603C242.711 505.603 244.905 506.261 246.222 505.603C246.222 508.017 247.319 508.675 249.075 508.894C251.05 508.894 253.025 508.894 253.244 506.48L268.386 506.919C268.386 510.869 271.677 510.869 274.53 510.43C276.725 510.43 279.358 510.869 280.675 508.017C283.747 509.114 288.794 508.675 292.086 508.455C292.964 510.869 294.719 511.747 296.694 511.967C299.108 512.405 301.741 512.186 302.619 509.553L322.808 510.211C327.416 513.283 333.122 511.528 338.389 511.528L389.08 511.967C395.225 514.38 403.564 514.38 409.708 511.967H460.4H462.155C461.936 512.625 461.936 513.942 462.155 514.38C462.375 514.819 463.911 515.697 465.227 515.697L502.094 514.819C506.922 514.819 511.091 513.283 511.091 508.455H519.869C521.625 514.38 536.108 512.406 536.986 511.089C537.644 510.211 536.986 508.017 536.986 506.919L547.3 506.48C550.811 513.283 567.05 509.992 581.094 508.675C588.994 508.017 596.894 509.553 604.136 506.261C605.014 505.822 604.794 502.53 604.575 502.092L614.889 501.653C617.302 501.653 620.375 502.75 621.911 500.117H628.494C628.494 500.117 630.25 499.239 630.469 498.361L632.005 496.825C632.005 496.825 633.541 495.728 633.541 494.63V486.511C634.639 486.73 636.394 486.511 637.052 485.414C637.491 484.755 636.394 483 635.297 483V479.489V469.614H637.711C637.711 469.614 639.247 468.078 638.369 467.419L636.614 466.103V454.253C639.905 454.692 640.783 452.497 640.564 449.864C640.564 447.669 640.344 445.694 638.589 443.939V438.672V425.286C641.88 425.725 642.539 423.53 642.319 420.897C642.319 418.703 642.1 416.728 640.344 414.972V411.461V387.761C641.002 387.98 642.319 387.761 642.758 387.761C644.294 386.664 644.952 379.861 642.1 375.911V370.644V275.625C642.1 273.65 641.661 270.578 642.539 268.822C643.855 266.408 644.294 264.433 644.294 260.922C644.294 258.947 644.294 256.314 640.783 256.533V232.833V229.322C642.758 227.347 642.758 224.714 642.758 221.642C642.758 219.667 642.758 216.814 639.247 217.253V202.111V198.6C641.222 196.625 641.222 193.992 641.222 190.919C641.222 188.725 641.222 186.092 637.711 186.53C637.711 183.239 636.613 177.972 637.711 174.9C638.15 173.803 640.125 172.705 639.247 170.511C638.808 169.414 637.052 169.194 635.955 169.633V166.342C637.93 166.342 637.711 164.367 635.955 164.586L635.516 152.955C637.93 152.517 638.369 150.761 637.93 148.567C637.491 146.811 635.955 146.153 634.419 145.933C634.419 143.3 633.761 140.008 630.908 139.789L624.105 139.13C624.105 139.13 623.008 137.814 622.13 137.594H620.155H615.327C614.669 136.278 613.133 135.839 611.816 136.058H609.841H603.477C601.502 133.644 598.65 134.961 596.455 134.742L546.861 129.475C551.25 117.405 557.613 108.189 566.172 97.8749L655.925 105.775C656.583 107.092 658.119 107.311 659.655 107.311C661.411 107.311 663.166 107.75 664.702 108.628V116.089C664.483 117.405 664.922 118.722 665.58 119.161C666.019 119.6 667.336 119.6 668.214 119.161C668.214 122.233 667.555 126.403 668.652 129.036C666.019 130.133 666.239 132.767 666.239 135.18C666.239 137.594 666.458 140.008 669.969 139.569C669.969 143.739 669.311 148.786 670.408 152.955C667.775 154.053 667.775 156.467 667.994 159.1C667.994 160.855 669.091 162.392 671.725 161.733C671.725 165.244 671.066 170.072 672.163 173.364C668.433 177.094 670.847 183.458 673.261 187.189C673.261 191.358 672.383 196.625 673.7 200.575C670.408 202.769 671.286 206.939 671.286 210.889V216.375C671.286 216.375 673.041 218.13 674.797 217.692L675.455 242.928C673.7 242.928 672.822 244.244 672.822 246.219V271.894C672.822 273.211 673.261 274.528 673.919 274.967C674.358 275.405 675.675 275.405 676.333 274.967V373.497C673.919 373.497 672.383 375.033 671.725 376.569C670.627 378.983 672.383 381.617 672.602 383.811L673.261 410.583C673.261 412.119 674.577 412.558 675.675 412.339L674.797 439.33C670.627 437.575 669.75 450.083 673.48 457.983C673.041 458.861 673.48 460.397 673.48 461.275L657.022 467.419C651.755 469.614 649.341 476.636 642.977 478.611C642.1 492.875 636.614 504.725 629.591 516.136C620.155 519.208 611.377 519.428 601.722 518.989C592.066 518.55 583.727 522.719 574.73 524.255C567.927 525.572 561.125 525.792 558.272 533.472C557.614 535.008 558.93 538.3 559.369 540.275L549.055 541.153C548.616 539.397 551.25 537.203 551.469 536.325C550.591 533.472 545.544 533.472 543.789 532.814C538.961 526.889 530.622 524.036 522.941 526.889C511.969 524.475 500.997 525.572 489.805 527.547L452.5 533.692C445.916 534.789 440.43 529.961 434.944 529.961H367.575C352.214 535.447 329.172 534.35 312.494 528.205L292.305 524.475L269.264 523.817C267.069 523.817 264.875 522.061 263.339 522.5C257.852 524.255 264.436 531.717 258.73 541.592L213.744 538.739C186.314 536.983 158.883 533.472 132.769 524.914C121.358 387.761 121.577 253.022 133.866 118.283C134.305 113.455 137.597 109.286 139.791 107.092C142.425 104.239 147.911 104.897 151.202 104.239C154.275 105.117 158.005 105.555 160.2 102.922H168.539C170.294 103.8 171.391 105.555 173.805 104.019C174.902 103.361 176.219 102.483 177.097 101.167L192.019 100.728C194.872 100.728 198.602 102.044 200.797 99.411H210.672C213.525 98.9721 217.255 100.508 219.45 97.6555H227.789C227.789 97.6555 229.325 100.069 231.08 98.5332C231.739 97.8749 232.397 96.9971 233.055 95.8999H236.347L236.127 96.9971Z" fill="#FAFAFA"/>
<path d="M512.622 594.914C456.005 598.426 402.68 598.645 347.38 597.548C295.591 596.451 245.558 593.817 193.988 586.356C188.063 576.701 186.966 565.728 186.088 554.976L310.952 563.753L342.113 565.289C399.827 567.923 456.444 565.948 514.377 563.095C515.694 573.848 514.377 583.942 512.622 594.914Z" fill="#F5F4F4"/>
<path d="M239.412 700.028C240.509 691.251 246.654 685.106 251.701 678.084C255.431 673.037 260.04 669.745 267.281 669.745H538.076C548.829 676.767 556.948 685.765 560.459 699.809H239.192L239.412 700.028Z" fill="#F5F4F4"/>
<path d="M490.901 617.295L483.659 647.578L316.223 647.798L310.737 617.295L328.292 617.953L457.106 618.173L490.901 617.295Z" fill="#EAE9EA"/>
<path d="M387.542 89.7546C387.542 89.7546 387.323 92.8268 387.981 93.0463H405.756C405.756 93.0463 406.414 89.9741 406.195 89.7546H440.209C439.989 91.9491 442.184 92.1685 441.964 90.1935H446.573C450.084 95.4602 455.35 98.7518 462.373 96.7768C462.812 95.0213 462.373 92.8268 462.373 91.2907L487.828 92.6074C491.339 93.0463 493.534 95.4602 494.631 98.9713L484.098 118.721L466.981 119.16C465.006 119.16 464.787 122.891 465.445 124.207L424.848 123.768C424.848 122.671 423.531 121.793 422.214 122.232C421.556 122.232 421.117 122.891 421.117 123.768H404.22C403.562 122.232 401.806 121.793 400.05 122.013C398.953 122.013 397.856 122.013 397.417 123.549H380.52C380.52 122.452 379.423 121.355 377.887 122.013C377.228 122.232 376.789 122.891 377.009 123.768H365.159C367.353 114.991 357.039 121.355 347.384 116.307C343.214 114.113 341.459 110.163 341.898 106.652C343.434 95.899 355.503 101.385 356.381 89.974L387.103 89.5352L387.542 89.7546Z" fill="#FAFAFA"/>
<path d="M548.825 542.25L518.323 544.664C518.542 542.03 516.567 541.372 514.592 542.689C513.495 543.347 512.178 544.225 511.3 545.322L455.342 547.078C455.342 537.203 439.762 546.2 426.375 538.519L380.95 540.275L361.639 540.933C350.228 541.372 336.842 543.128 338.159 547.078H321.042C318.848 544.225 315.117 545.98 312.264 545.761L287.248 545.322C286.809 544.005 285.712 542.25 284.395 542.03C283.298 542.03 282.2 543.566 281.981 544.225L265.303 543.347C264.645 541.811 262.889 542.03 261.353 542.03H258.062C263.767 532.155 257.184 524.694 262.67 522.939C264.206 522.5 266.4 524.255 268.595 524.255L291.637 524.914L311.825 528.644C328.723 534.789 351.764 535.886 366.906 530.4H434.275C439.981 530.4 445.467 535.227 451.831 534.13L489.137 527.986C500.328 526.23 511.3 524.914 522.273 527.328C529.953 524.475 538.292 527.327 543.12 533.252C544.875 534.13 549.923 533.911 550.8 536.764C550.581 537.861 547.948 539.836 548.387 541.591L548.825 542.25Z" fill="#FEFDFE"/>
<path d="M521.621 171.608C522.937 173.363 520.523 176.874 518.768 178.63L507.357 191.138C498.798 200.355 489.362 208.255 482.779 219.447C481.243 222.08 482.998 228.224 484.096 230.858L503.626 279.355C504.504 281.769 506.259 287.255 504.065 289.449L468.515 325.658C465.004 329.388 463.029 335.752 456.665 334.655L483.657 283.305L460.615 232.174C459.079 228.663 457.323 223.397 459.737 219.885L481.682 188.944L506.918 153.174C507.796 151.858 509.332 150.98 510.648 150.541C513.721 157.783 517.232 165.024 521.621 171.388V171.608Z" fill="#EAE9EA"/>
<path d="M673.253 462.151V470.709C670.181 473.782 667.986 479.707 671.717 482.779C670.839 484.973 671.278 488.484 671.278 490.898C667.767 490.459 667.547 492.873 667.547 495.287C667.547 497.701 667.328 500.115 669.961 501.432C669.083 502.968 669.522 506.04 669.522 508.015C666.45 507.357 665.572 509.771 665.792 512.184C665.792 513.501 665.133 515.915 667.986 515.915V519.646C662.939 520.304 660.086 523.596 660.525 528.423C657.672 528.862 653.503 530.837 650.869 530.179C650.211 529.74 649.333 528.204 648.236 528.423C646.919 528.862 646.919 530.618 647.139 531.496H640.775C639.239 531.715 637.703 531.934 637.044 533.251H630.461C628.925 533.251 627.389 533.471 626.731 535.007H621.683C621.025 533.69 619.05 532.812 617.514 533.251C616.417 533.69 616.197 535.665 616.417 536.543L603.25 536.982C601.933 536.982 599.958 536.543 599.3 538.298L582.622 538.737C582.622 538.737 580.647 536.104 579.111 537.421C578.233 538.079 577.794 539.176 577.356 540.054L558.922 540.932C558.483 539.176 557.167 535.884 557.825 534.129C560.678 526.448 567.481 526.009 574.283 524.912C583.281 523.376 591.839 519.207 601.275 519.646C610.711 520.084 619.928 519.865 629.144 516.793C636.167 505.382 641.653 493.532 642.531 479.268C648.894 477.293 651.089 470.051 656.575 468.076L673.033 461.932L673.253 462.151Z" fill="#FEFDFE"/>
<path d="M356.816 90.1941C355.719 101.825 343.869 96.3385 342.333 106.872C341.894 110.383 343.65 114.333 347.819 116.527C357.255 121.575 367.569 115.211 365.594 123.769L300.2 126.402L272.33 127.5C271.014 123.111 277.158 118.283 276.939 113.455C276.5 106.214 265.527 100.727 259.164 101.166C254.555 101.605 252.58 99.4107 251.922 95.8996L357.036 89.9746L356.816 90.1941Z" fill="white"/>
<path d="M596.008 588.551L535.661 593.379L535.003 561.34L616.636 555.635L611.37 579.554C609.834 586.138 603.031 588.113 595.789 588.771L596.008 588.551Z" fill="#F5F4F4"/>
<path d="M176.65 385.785V389.077V402.682C176.211 403.56 174.894 404.657 174.894 405.535C174.894 407.51 176.65 408.607 178.406 407.949V426.602C178.186 428.138 175.772 430.113 176.431 432.746C176.869 434.502 177.528 435.819 180.161 435.599V436.916C179.722 441.085 180.161 445.474 179.283 449.424C175.114 453.593 171.164 455.788 165.019 455.788H163.264V442.402V433.624L165.239 429.455C166.117 427.48 163.483 426.382 161.508 426.821V408.168C161.508 408.168 163.264 406.413 163.922 405.755C169.408 399.83 167.214 385.127 176.65 386.005V385.785Z" fill="#190808"/>
<path d="M455.35 547.295H338.386C337.069 543.126 350.455 541.37 361.866 540.931L381.178 540.273L426.603 538.518C439.989 546.198 455.35 537.42 455.569 547.076L455.35 547.295Z" fill="#FAFAFA"/>
<path d="M363.398 492.214L272.548 487.167V486.289C272.987 482.558 276.718 485.411 278.254 484.972C290.543 481.242 304.807 481.681 317.754 483.656C321.923 484.314 324.776 482.778 329.384 484.533C342.551 489.8 363.398 481.9 363.618 492.214H363.398Z" fill="#DBDADA"/>
<path d="M509.992 488.045L447.012 492.215L435.162 491.776C433.187 484.753 447.451 486.728 462.373 486.07L506.701 483.656C507.798 483.656 510.651 484.315 511.09 484.973C511.529 485.631 510.431 487.606 510.212 488.045H509.992Z" fill="#DBDADA"/>
<path d="M587.896 152.515L569.024 159.318C566.829 159.976 564.196 159.318 562.66 160.635C559.587 163.048 560.904 168.973 558.71 170.51C557.393 171.387 554.979 171.607 553.443 171.607C554.76 164.146 550.81 157.123 547.079 149.443L587.896 152.735V152.515Z" fill="#DBDADA"/>
<path d="M625.414 261.576V373.712H622.781V261.796L625.414 261.576Z" fill="#DBDADA"/>
<path d="M604.793 501.432C604.793 501.432 605.232 505.163 604.354 505.602C597.113 509.113 589.212 507.357 581.312 508.016C567.487 509.332 551.029 512.624 547.518 505.821L604.793 501.213V501.432Z" fill="#EAE9EA"/>
<path d="M511.309 507.792C511.309 512.839 507.139 514.156 502.311 514.156L465.445 515.034C464.128 515.034 462.592 514.375 462.373 513.717C462.153 513.059 461.934 511.961 462.373 511.303C465.884 511.523 469.834 512.181 472.686 509.767L511.528 507.792H511.309Z" fill="#EAE9EA"/>
<path d="M676.11 373.934L675.452 412.995C674.354 412.995 673.038 412.556 673.038 411.24L672.379 384.467C672.379 382.054 670.624 379.64 671.502 377.226C672.16 375.69 673.696 374.153 675.891 374.153L676.11 373.934Z" fill="#EAE9EA"/>
<path d="M159.758 259.822V263.333L160.417 293.836H157.344L156.247 261.577C156.247 259.822 158.661 259.383 159.539 259.822H159.758Z" fill="#DBDADA"/>
<path d="M158.218 328.067L157.34 294.053H160.412L161.509 324.556C161.509 325.873 161.07 327.189 160.412 327.628C159.973 328.067 158.657 328.067 158.218 327.628V328.067Z" fill="#201F1F"/>
<path d="M676.331 275.405C676.331 275.405 674.576 275.405 673.918 275.405C673.259 274.966 672.82 273.649 672.82 272.332V246.657C672.82 244.682 673.698 243.585 675.454 243.366L676.331 275.843V275.405Z" fill="#EAE9EA"/>
<path d="M453.59 300.642L460.612 283.525C462.368 279.356 458.198 274.747 457.101 271.456C461.49 272.992 462.807 277.6 463.245 281.331C464.123 286.597 461.49 289.45 458.637 294.278C457.32 296.692 457.32 301.081 453.59 300.642Z" fill="#201F1F"/>
<path d="M484.317 118.717C483.659 120.034 483.44 123.984 480.806 123.984H465.665C465.665 123.984 465.226 119.376 467.201 119.156L484.317 118.717Z" fill="#EAE9EA"/>
<path d="M160.418 357.037H157.565L158.223 331.362C164.807 330.704 160.857 346.065 160.418 357.037Z" fill="#201F1F"/>
<path d="M536.979 506.479C536.979 506.479 537.638 509.771 536.979 510.649C536.102 511.966 521.618 513.941 519.863 508.016L536.76 506.699L536.979 506.479Z" fill="#EAE9EA"/>
<path d="M462.372 91.2911C462.372 92.8272 462.811 95.0216 462.372 96.7772C455.35 98.7522 450.083 95.4605 446.572 90.1938L462.372 91.2911Z" fill="#EAE9EA"/>
<path d="M159.75 263.332V259.821L159.312 239.632H162.164C165.017 248.849 164.359 265.965 159.97 263.332H159.75Z" fill="#201F1F"/>
<path d="M160.41 357.036L159.752 380.736C153.168 381.175 157.338 366.911 157.557 356.817H160.41V357.036Z" fill="#DBDADA"/>
<path d="M355.284 145.051L327.634 145.928C336.412 143.076 346.507 141.101 355.284 145.051Z" fill="#201F1F"/>
<path d="M469.177 145.931C460.399 145.931 451.841 145.273 443.282 145.273C451.402 141.542 461.057 142.64 469.177 145.931Z" fill="#201F1F"/>
<path d="M227.564 504.281C225.15 509.329 213.52 508.89 212.422 507.134C211.983 506.257 212.203 504.062 212.422 502.965L227.564 504.281Z" fill="#DBDADA"/>
<path d="M163.92 405.314C163.92 405.314 162.384 407.509 161.506 407.728C161.067 407.728 160.409 407.728 159.312 407.728L159.75 389.076C159.75 389.076 161.725 388.856 162.164 389.076C162.823 389.514 163.262 390.831 163.262 392.148L163.92 405.095V405.314Z" fill="#201F1F"/>
<path d="M178.404 236.12C178.624 229.756 177.746 223.612 179.501 217.248C182.574 219.442 182.574 231.512 181.696 235.023C181.476 236.12 179.94 236.779 178.404 236.12Z" fill="#DBDADA"/>
<path d="M406.197 89.7549C406.197 89.7549 406.417 92.6077 405.758 93.0465H387.983C387.983 93.0465 387.325 89.9743 387.544 89.7549H406.197Z" fill="#EAE9EA"/>
<path d="M161.515 220.763L161.954 239.415H159.101C159.101 232.832 154.493 220.324 161.296 220.763H161.515Z" fill="#DBDADA"/>
<path d="M674.575 439.988C674.575 446.132 676.111 452.935 673.259 458.641C669.528 450.741 670.186 438.232 674.575 439.988Z" fill="#EAE9EA"/>
<path d="M389.95 427.695V429.889C389.95 431.645 386 433.181 386 432.084C386.658 424.403 390.169 418.917 394.119 414.309L389.73 427.695H389.95Z" fill="#201F1F"/>
<path d="M440.208 327.409C437.574 333.115 435.819 344.087 430.113 345.184C430.113 341.673 436.038 328.726 440.208 327.409Z" fill="#201F1F"/>
<path d="M181.7 453.813C180.383 453.155 178.847 450.522 179.286 449.205C180.383 445.255 179.944 440.866 180.164 436.697C184.553 435.161 185.65 446.791 181.7 453.813Z" fill="#DBDADA"/>
<path d="M674.571 217.467C672.816 217.906 671.499 217.247 671.28 216.15V210.664C670.841 206.714 670.182 202.545 673.474 200.35C675.449 206.056 674.352 211.761 674.571 217.686V217.467Z" fill="#EAE9EA"/>
<path d="M623.883 224.491V239.633C619.714 241.169 618.616 231.513 622.127 224.271H623.883V224.491Z" fill="#DBDADA"/>
<path d="M479.049 159.538L484.315 145.713C485.413 142.641 489.143 144.397 487.827 147.03L483.218 156.686C482.341 158.88 480.585 159.538 479.049 159.319V159.538Z" fill="#201F1F"/>
<path d="M185.432 480.802C185.432 480.802 181.92 481.46 181.92 479.266V465.441C181.92 465.441 183.895 465.441 184.334 465.66C184.993 466.099 185.432 467.416 185.432 468.733V480.802Z" fill="#DBDADA"/>
<path d="M623.659 387.539L622.781 373.714H625.414C628.486 378.103 627.609 386.223 626.072 387.32C625.634 387.759 624.097 387.759 623.659 387.32V387.539Z" fill="#201F1F"/>
<path d="M623.658 397.635V411.021H621.902C618.391 404.438 619.488 396.099 623.658 397.415V397.635Z" fill="#DBDADA"/>
<path d="M533.908 486.507C529.3 488.263 524.911 487.385 520.083 487.604C518.767 483.654 528.203 482.557 533.908 486.507Z" fill="#DBDADA"/>
<path d="M620.372 193.768C620.372 193.768 618.397 193.988 617.958 193.549C616.422 191.793 615.764 182.357 619.275 179.943C621.031 184.332 620.592 188.941 620.592 193.768H620.372Z" fill="#DBDADA"/>
<path d="M621.911 212.423C617.741 213.959 616.644 204.523 620.594 198.598C623.008 202.768 621.911 207.595 621.911 212.423Z" fill="#DBDADA"/>
<path d="M175.116 290.766C175.116 285.939 175.775 281.55 175.994 276.941C179.066 278.478 178.847 282.208 178.627 285.719V289.669C178.627 289.669 176.652 291.425 175.116 290.986V290.766Z" fill="#DBDADA"/>
<path d="M667.768 519.643C667.768 521.618 667.768 524.032 666.232 526.007C664.915 527.543 662.94 527.982 660.746 528.421C660.307 523.593 663.159 520.521 667.768 519.643Z" fill="#EAE9EA"/>
<path d="M640.782 387.541L640.343 375.691H642.318C645.171 379.203 644.512 386.225 642.976 387.322C642.537 387.761 641.221 387.761 640.562 387.322L640.782 387.541Z" fill="#EAE9EA"/>
<path d="M621.903 426.379C621.903 430.548 622.561 434.718 620.586 438.448C617.733 437.131 618.392 434.498 618.392 432.304C618.172 429.451 617.953 426.159 621.903 426.159V426.379Z" fill="#DBDADA"/>
<path d="M179.943 204.083C179.943 199.694 179.943 195.964 181.04 191.794C183.674 192.892 183.893 195.744 183.454 198.817L183.015 202.767C183.015 202.767 181.26 204.522 179.724 204.083H179.943Z" fill="#DBDADA"/>
<path d="M625.414 261.58H622.781C622.781 257.85 623.878 253.68 623.878 249.511C624.317 249.511 625.853 249.511 626.292 249.511C627.828 250.608 628.486 257.63 625.634 261.361L625.414 261.58Z" fill="#201F1F"/>
<path d="M640.78 229.318H639.025V217.468C642.536 217.029 642.536 219.662 642.536 221.857C642.536 224.929 642.536 227.562 640.561 229.537L640.78 229.318Z" fill="#EAE9EA"/>
<path d="M176.876 253.239C176.876 249.069 175.998 244.9 178.192 241.169C181.045 242.267 180.387 244.9 180.387 247.094C180.387 249.947 180.826 253.239 176.876 253.239Z" fill="#DBDADA"/>
<path d="M639.023 198.817H637.268V186.748C640.779 186.309 640.779 188.942 640.779 191.136C640.779 194.209 640.779 196.842 638.804 198.817H639.023Z" fill="#EAE9EA"/>
<path d="M620.374 445.035C620.374 449.204 621.033 453.373 618.838 457.104C616.644 456.007 616.424 453.154 616.644 450.082L617.083 446.132C617.083 446.132 618.838 444.376 620.374 444.815V445.035Z" fill="#DBDADA"/>
<path d="M642.752 268.601H640.557L640.996 256.532C644.507 256.093 644.507 258.945 644.507 260.92C644.507 264.212 644.068 266.187 642.752 268.82V268.601Z" fill="#EAE9EA"/>
<path d="M280.669 507.574C279.352 510.427 276.719 509.769 274.524 509.988C271.672 510.208 268.38 510.427 268.38 506.477C272.769 506.477 276.499 506.258 280.669 507.574Z" fill="#DBDADA"/>
<path d="M181.695 180.162V168.312H183.451C186.304 172.043 185.645 178.845 184.109 180.162C183.67 180.601 182.354 180.601 181.695 180.162Z" fill="#DBDADA"/>
<path d="M494.853 98.7517C493.755 95.2406 491.561 92.8267 488.05 92.3878C490.244 92.3878 495.291 90.8517 497.047 92.3878C500.339 95.2406 495.73 96.9961 494.853 98.5322V98.7517Z" fill="#EAE9EA"/>
<path d="M297.563 146.81C292.516 146.81 287.469 147.688 281.763 147.688L294.272 144.835C296.027 144.396 297.344 145.274 297.344 147.029L297.563 146.81Z" fill="#201F1F"/>
<path d="M673.039 186.964C670.625 183.234 668.211 176.87 671.941 173.139C673.697 177.747 673.039 182.136 673.039 186.964Z" fill="#EAE9EA"/>
<path d="M637.268 453.81V443.716H639.023C640.779 445.252 640.779 447.446 640.998 449.641C641.218 452.274 640.559 454.469 637.268 454.03V453.81Z" fill="#EAE9EA"/>
<path d="M409.702 511.526C403.558 513.94 395.219 513.94 389.075 511.526H409.702Z" fill="#DBDADA"/>
<path d="M453.589 301.956C453.369 306.344 451.614 311.831 446.786 312.489C448.542 308.539 448.981 303.272 453.589 301.956Z" fill="#201F1F"/>
<path d="M190.262 154.709L183.24 163.268C183.02 161.293 183.24 158.659 184.337 156.465C185.215 154.929 188.287 154.929 190.262 154.709Z" fill="#DBDADA"/>
<path d="M669.74 139.35C666.229 139.569 666.01 137.155 666.01 134.961C666.01 132.766 665.79 130.133 668.424 128.816C669.74 132.328 669.74 135.4 669.74 139.35Z" fill="#EAE9EA"/>
<path d="M444.814 243.586C440.864 241.391 439.547 236.783 438.45 232.613C443.277 233.711 443.716 239.416 444.814 243.586Z" fill="#201F1F"/>
<path d="M175.994 368.886C175.994 365.155 175.116 362.302 175.116 358.352C178.408 358.133 178.627 360.547 178.627 362.741C178.627 365.155 178.847 367.788 175.994 368.886Z" fill="#DBDADA"/>
<path d="M671.283 490.898C671.283 494.629 671.502 497.92 669.966 501.432C667.333 500.115 667.772 497.701 667.552 495.287C667.333 492.873 667.772 490.459 671.283 490.898Z" fill="#EAE9EA"/>
<path d="M639.025 424.843V414.748H640.78C642.536 416.284 642.536 418.479 642.755 420.673C642.755 423.306 642.317 425.501 639.025 425.062V424.843Z" fill="#EAE9EA"/>
<path d="M671.722 482.776C667.991 479.485 670.185 473.779 672.819 470.707C672.819 474.876 673.258 478.826 671.722 482.776Z" fill="#EAE9EA"/>
<path d="M243.359 149.001C239.848 152.073 235.24 150.976 231.07 150.976C234.801 147.684 238.97 148.782 243.359 149.001Z" fill="#201F1F"/>
<path d="M667.989 118.938C667.989 118.938 666.014 118.938 665.356 118.938C664.698 118.499 664.259 117.182 664.259 115.865V108.404C668.428 110.599 667.989 114.988 667.77 119.157L667.989 118.938Z" fill="#EAE9EA"/>
<path d="M302.615 509.112C301.518 511.745 299.104 511.965 296.69 511.526C294.935 511.307 292.96 510.429 292.082 508.015C296.032 507.795 299.104 509.112 302.615 509.112Z" fill="#DBDADA"/>
<path d="M669.747 508.015C669.747 510.867 670.405 513.94 668.211 515.915C665.358 515.915 666.236 513.501 666.016 512.184C666.016 509.77 666.674 507.356 669.747 508.015Z" fill="#EAE9EA"/>
<path d="M671.505 161.51C668.872 161.949 667.994 160.413 667.775 158.877C667.555 156.244 667.775 153.83 670.189 152.732C671.066 155.805 671.725 158.219 671.505 161.51Z" fill="#EAE9EA"/>
<path d="M205.618 152.734C203.424 155.367 199.693 154.27 196.84 154.489C196.621 151.856 198.815 150.101 201.229 150.978L205.399 152.734H205.618Z" fill="#201F1F"/>
<path d="M168.315 496.165V498.14C165.901 498.14 165.024 497.043 164.804 495.287C164.146 492.435 166.56 490.898 166.56 489.362C168.754 491.118 168.535 493.971 168.315 496.165Z" fill="#DBDADA"/>
<path d="M163.263 203.861C163.263 206.275 162.824 210.006 163.483 212.42H161.288C160.411 211.103 159.752 209.786 159.533 208.25C159.094 205.397 160.191 203.422 163.263 203.861Z" fill="#DBDADA"/>
<path d="M338.382 511.088C333.335 511.088 327.41 512.844 322.802 509.772C328.068 509.772 333.774 508.455 338.382 511.088Z" fill="#DBDADA"/>
<path d="M578.238 482.341C575.166 484.974 571.216 484.316 567.705 484.316C570.997 481.024 574.508 482.341 578.238 482.341Z" fill="#DBDADA"/>
<path d="M176.87 101.82C175.993 103.136 174.676 104.014 173.579 104.673C171.165 105.989 169.848 104.234 168.312 103.575C170.726 101.381 174.018 102.039 177.09 101.82H176.87Z" fill="#EAE9EA"/>
<path d="M600.185 480.803C597.771 482.778 594.26 482.559 591.407 482.339C592.285 481.022 593.821 480.364 594.699 479.706C597.113 477.95 598.649 480.803 600.185 480.803Z" fill="#DBDADA"/>
<path d="M166.555 477.51C164.58 477.949 162.166 476.632 163.044 474.657L164.8 470.488C166.994 472.243 166.555 475.096 166.555 477.51Z" fill="#DBDADA"/>
<path d="M253.236 505.819C252.797 508.233 251.041 508.453 249.066 508.233C247.311 508.233 245.994 507.356 246.213 504.942C249.066 503.845 251.041 505.819 253.455 505.819H253.236Z" fill="#DBDADA"/>
<path d="M642.753 268.599C642.095 270.355 642.314 273.427 642.314 275.402C640.339 275.841 637.925 274.744 638.803 272.549L640.559 268.38H642.753V268.599Z" fill="#201F1F"/>
<path d="M616.863 474.002V479.927C616.863 479.927 614.888 481.024 613.352 481.024V476.636C613.352 474.88 614.668 473.344 616.863 474.002Z" fill="#DBDADA"/>
<path d="M618.612 169.851C616.418 166.998 614.662 162.609 616.857 159.537C619.49 162.389 618.612 166.339 618.612 169.851Z" fill="#DBDADA"/>
<path d="M554.1 484.092C551.686 486.506 548.394 485.848 545.322 485.848C546.2 484.531 547.516 483.873 548.613 482.995C551.027 481.459 552.563 483.653 553.88 484.092H554.1Z" fill="#DBDADA"/>
<path d="M414.748 375.252C413.432 378.324 413.871 382.274 409.701 382.494C409.701 379.202 411.018 375.471 414.748 375.252Z" fill="#201F1F"/>
<path d="M635.075 152.95C635.075 150.756 633.1 148.562 633.978 145.928C635.514 146.148 637.05 147.025 637.489 148.562C637.928 150.756 637.489 152.512 635.075 152.95Z" fill="#EAE9EA"/>
<path d="M265.305 147.468C262.453 150.101 258.283 149.443 254.772 149.223C258.064 146.809 261.794 147.468 265.305 147.468Z" fill="#201F1F"/>
<path d="M164.806 183.238C164.806 186.091 163.709 188.066 163.709 190.261C161.076 189.822 161.076 187.847 161.295 185.872C161.295 183.677 162.393 182.8 164.806 183.019V183.238Z" fill="#DBDADA"/>
<path d="M204.088 482.557H197.286V481.021C198.163 479.704 199.7 479.046 201.236 479.485C202.772 479.923 203.869 481.24 204.308 482.557H204.088Z" fill="#DBDADA"/>
<path d="M472.464 509.989C469.611 512.403 465.661 511.744 462.15 511.525H460.394C463.686 508.891 468.514 510.208 472.464 509.989Z" fill="#DBDADA"/>
<path d="M229.535 484.315H220.977V482.559C223.61 480.365 227.34 482.12 229.535 484.315Z" fill="#DBDADA"/>
<path d="M616.863 470.71C614.449 468.076 616.205 464.126 618.619 462.151C618.619 465.004 619.058 468.515 616.863 470.71Z" fill="#DBDADA"/>
<path d="M407.943 144.173H395.654C399.165 141.759 404.432 141.54 407.943 144.173Z" fill="#201F1F"/>
<path d="M192.018 501.213C188.068 501.213 183.24 502.53 179.949 499.677C183.899 499.677 188.727 498.58 192.018 501.213Z" fill="#DBDADA"/>
<path d="M551.906 172.486C552.565 176.655 548.395 176.655 546.64 178.191C547.298 175.339 549.273 173.364 551.906 172.486Z" fill="#DBDADA"/>
<path d="M166.56 166.339C166.56 168.314 166.779 170.508 165.023 171.825C164.584 170.947 163.268 170.069 163.048 168.972C162.829 166.558 164.585 165.9 166.56 166.339Z" fill="#DBDADA"/>
<path d="M642.315 370.423V375.69H640.56C640.56 374.592 638.365 373.276 639.243 371.301C639.682 370.203 641.437 369.984 642.535 370.423H642.315Z" fill="#201F1F"/>
<path d="M168.092 149.221C168.092 150.976 168.092 153.39 166.556 154.707C166.117 154.048 164.8 152.951 164.581 151.854C164.361 149.659 166.117 148.782 168.092 149.221Z" fill="#DBDADA"/>
<path d="M637.487 175.117C635.512 173.8 635.732 171.606 635.732 169.631C636.829 169.192 638.585 169.631 639.024 170.508C639.901 172.703 637.926 173.8 637.487 174.897V175.117Z" fill="#EAE9EA"/>
<path d="M518.549 544.66L511.526 545.319C512.404 544.002 513.94 543.344 514.818 542.685C516.574 541.369 518.768 542.027 518.549 544.66Z" fill="#FAFAFA"/>
<path d="M622.129 535.445C621.032 537.42 618.838 536.981 616.863 536.981C616.424 535.883 616.863 534.128 617.96 533.689C619.715 533.031 621.471 534.128 622.129 535.445Z" fill="#EAE9EA"/>
<path d="M165.023 455.347V460.614C163.707 460.833 161.951 460.614 161.512 459.516C160.196 457.102 163.048 456.225 163.048 455.127H164.804L165.023 455.347Z" fill="#DBDADA"/>
<path d="M639.023 438.233V443.5H637.048C637.048 442.402 634.635 441.305 635.732 439.111C636.171 438.013 637.926 437.794 639.023 438.233Z" fill="#201F1F"/>
<path d="M161.513 217.468C161.513 216.151 161.952 213.518 161.294 212.421H163.488C163.488 212.421 165.902 214.396 164.805 216.59C164.366 217.688 162.611 217.907 161.513 217.468Z" fill="#201F1F"/>
<path d="M208.915 502.748C208.915 502.748 207.379 504.504 206.501 504.723C204.306 505.162 203.429 503.406 203.868 501.651C205.623 501.651 208.037 500.992 208.915 502.967V502.748Z" fill="#DBDADA"/>
<path d="M232.833 96.9927C232.833 96.9927 231.736 98.9677 230.858 99.626C229.103 101.162 228.444 98.9677 227.566 98.7482C228.664 96.9927 231.078 96.9927 232.833 97.2121V96.9927Z" fill="#EAE9EA"/>
<path d="M219.222 98.5303C217.027 101.383 213.297 99.8469 210.444 100.066C212.858 98.0914 216.149 98.7497 219.222 98.5303Z" fill="#EAE9EA"/>
<path d="M321.272 547.073C318.2 547.073 315.127 547.732 312.494 545.757C315.566 545.757 319.077 544.001 321.272 547.073Z" fill="#FAFAFA"/>
<path d="M159.758 103.577C157.783 105.991 153.833 105.772 150.761 104.894C153.614 104.235 156.247 103.577 159.758 103.577Z" fill="#EAE9EA"/>
<path d="M287.255 545.541C285.499 545.541 283.524 545.541 281.988 544.663C282.208 544.005 283.305 542.25 284.402 542.469C285.719 542.688 287.035 544.444 287.255 545.761V545.541Z" fill="#FAFAFA"/>
<path d="M200.578 100.286C198.383 103.139 194.653 101.603 191.8 101.603C194.433 99.6277 197.505 100.286 200.578 100.286Z" fill="#EAE9EA"/>
<path d="M583.065 538.958C581.529 540.494 579.554 540.274 577.799 540.274C578.238 539.397 578.677 538.299 579.554 537.641C581.09 536.324 582.407 538.08 583.065 538.958Z" fill="#FAFAFA"/>
<path d="M479.045 160.854C479.045 160.854 479.045 163.707 478.168 164.585C477.729 165.024 476.193 165.024 475.534 164.804C476.412 163.049 476.412 160.854 479.045 160.854Z" fill="#201F1F"/>
<path d="M183.679 164.803V168.094H181.704C181.485 167.436 179.51 166.778 180.168 165.461C180.827 164.144 182.582 164.364 183.46 164.583L183.679 164.803Z" fill="#201F1F"/>
<path d="M468.952 176.434C468.952 176.434 468.952 179.067 467.855 179.726C467.196 179.945 466.099 180.165 465.441 180.384C465.441 179.506 465.441 178.629 465.88 177.97C466.538 177.092 467.855 176.434 468.952 176.654V176.434Z" fill="#201F1F"/>
<path d="M639.021 198.818V202.329C639.021 202.329 636.388 202.548 635.729 201.451C635.071 199.915 637.046 199.476 637.266 198.818H639.021Z" fill="#201F1F"/>
<path d="M441.746 213.299C441.746 214.397 441.746 216.372 440.869 217.249C440.21 217.688 439.113 217.688 438.235 217.469L438.894 215.055C438.894 215.055 440.649 213.519 441.746 213.299Z" fill="#201F1F"/>
<path d="M623.883 224.49H622.127V220.759C623.005 220.54 624.76 220.54 625.419 221.637C626.077 222.734 624.321 223.831 623.883 224.27V224.49Z" fill="#201F1F"/>
<path d="M436.472 222.081V226.25L434.278 225.811C433.62 225.811 432.742 224.714 433.4 223.617C434.058 222.3 435.814 222.739 436.472 222.3V222.081Z" fill="#201F1F"/>
<path d="M640.779 229.318V232.829C640.779 232.829 638.146 233.049 637.487 231.952C636.829 230.635 638.804 229.977 639.023 229.318H640.779Z" fill="#201F1F"/>
<path d="M450.302 255.216C450.302 255.216 448.547 255.216 448.108 254.558C447.23 253.68 447.23 252.364 447.011 251.266C448.327 250.827 449.864 251.486 450.083 252.583C450.302 253.68 450.083 254.558 450.083 255.216H450.302Z" fill="#201F1F"/>
<path d="M453.592 262.015C453.592 262.015 451.836 262.015 451.397 261.357C450.52 260.479 450.3 259.162 450.3 258.065C451.617 257.626 453.373 258.285 453.373 259.382V262.015H453.592Z" fill="#201F1F"/>
<path d="M429.895 348.041C429.895 349.138 429.895 350.894 429.018 351.772C428.579 352.21 427.043 352.21 426.384 351.991L426.823 349.577C426.823 349.577 428.579 348.041 429.676 348.041H429.895Z" fill="#201F1F"/>
<path d="M424.843 356.597C424.843 357.694 424.843 359.23 423.966 360.108C423.527 360.547 422.21 360.547 421.552 360.327L421.991 357.914C421.991 357.914 423.746 356.377 424.843 356.377V356.597Z" fill="#201F1F"/>
<path d="M409.478 385.346C409.478 386.443 409.478 387.979 408.6 389.076C408.162 389.515 406.845 389.515 406.187 389.515C406.187 388.857 406.187 387.979 406.625 386.882C407.064 386.004 408.381 385.346 409.478 385.346Z" fill="#201F1F"/>
<path d="M405.969 392.15C405.969 393.247 405.969 395.003 405.091 395.88C404.652 396.319 403.335 396.319 402.458 396.319L402.896 393.905C402.896 393.905 404.433 392.369 405.749 392.369L405.969 392.15Z" fill="#201F1F"/>
<path d="M222.732 132.764C220.757 134.958 218.124 134.081 215.491 134.081C217.466 131.886 220.318 132.983 222.732 132.764Z" fill="#201F1F"/>
<path d="M622.127 414.75V411.239H623.883C624.321 411.897 626.077 412.775 625.419 413.872C624.76 415.189 623.005 414.969 622.127 414.969V414.75Z" fill="#201F1F"/>
<path d="M640.556 411.019V414.53H638.581C638.362 413.872 636.606 413.213 637.265 411.897C637.923 410.58 639.678 410.58 640.556 411.019Z" fill="#201F1F"/>
<path d="M635.735 469.171C635.735 467.855 635.735 466.319 637.052 465.441L638.808 466.758C638.808 466.758 639.027 468.733 638.149 468.733H635.735V469.171Z" fill="#EAE9EA"/>
<path d="M635.508 479.049V482.56H633.753C632.656 482.56 631.778 480.804 631.997 480.146C632.656 479.049 634.411 478.829 635.289 479.268L635.508 479.049Z" fill="#201F1F"/>
<path d="M253.461 485.853H249.95V484.317C249.95 483.219 251.486 482.122 252.364 482.561C253.681 483.219 253.681 484.975 253.461 485.853Z" fill="#DBDADA"/>
<path d="M633.978 486.069V482.558H635.514C636.392 482.558 637.489 484.314 637.27 484.972C636.611 486.069 634.856 486.289 633.978 486.069Z" fill="#EAE9EA"/>
<path d="M424.843 491.773C424.843 491.773 422.21 491.992 421.552 491.992V488.701C421.552 488.701 423.088 487.164 424.185 487.823C425.282 488.7 425.282 490.675 425.063 491.773H424.843Z" fill="#DBDADA"/>
<path d="M622.12 499.675C620.584 502.309 617.512 500.992 615.098 501.211C617.073 499.456 619.706 499.895 622.12 499.675Z" fill="#EAE9EA"/>
<path d="M651.093 530.18C650.435 531.716 648.679 531.716 647.363 531.716C647.143 530.838 647.363 529.083 648.46 528.644C649.557 528.205 650.435 529.961 651.093 530.4V530.18Z" fill="#EAE9EA"/>
<path d="M404.658 123.765H397.636C398.075 122.229 399.391 122.229 400.269 122.229C402.025 122.01 403.78 122.229 404.439 123.765H404.658Z" fill="#EAE9EA"/>
<path d="M268.598 127.715C266.623 129.471 263.99 129.032 261.576 129.032C263.112 126.618 266.184 127.715 268.598 127.715Z" fill="#EAE9EA"/>
<path d="M207.372 134.299C205.617 136.493 202.764 135.835 200.35 135.835C202.106 133.64 204.958 134.299 207.372 134.299Z" fill="#201F1F"/>
<path d="M603.476 135.618C601.062 135.618 597.99 136.496 596.454 134.301C598.868 134.521 601.721 133.424 603.476 135.618Z" fill="#201F1F"/>
<path d="M222.522 151.2C222.522 151.2 222.522 152.516 221.644 152.516C220.766 152.516 220.108 152.297 219.23 151.858C218.791 148.786 221.864 149.005 222.522 151.2Z" fill="#201F1F"/>
<path d="M193.766 136.053C192.45 138.028 190.475 137.589 188.5 137.589C189.816 135.614 191.791 136.053 193.766 136.053Z" fill="#201F1F"/>
<path d="M603.693 537.419C602.596 538.297 601.279 538.517 599.743 538.736C600.401 537.2 602.157 537.639 603.693 537.419Z" fill="#FAFAFA"/>
<path d="M265.312 543.783C263.995 543.783 262.459 543.344 261.362 542.466C262.898 542.466 264.434 542.246 265.312 543.783Z" fill="#FAFAFA"/>
<path d="M180.379 137.592C179.721 138.909 177.965 139.348 176.648 139.128C177.526 137.592 178.843 137.592 180.379 137.592Z" fill="#201F1F"/>
<path d="M615.32 137.591H611.809V136.055C613.125 136.055 614.661 136.494 615.32 137.591Z" fill="#EAE9EA"/>
<path d="M425.063 123.766H421.552C421.552 123.766 421.991 122.449 422.649 122.23C423.966 121.791 425.063 122.669 425.282 123.766H425.063Z" fill="#EAE9EA"/>
<path d="M380.735 123.988H377.224C377.224 123.988 377.662 122.672 378.101 122.452C379.418 121.794 380.735 122.891 380.735 123.988Z" fill="#EAE9EA"/>
<path d="M659.653 106.871C658.117 106.871 656.581 106.651 655.922 105.334C657.458 105.334 658.775 105.334 659.653 106.871Z" fill="#EAE9EA"/>
<path d="M640.998 531.933C640.12 533.25 638.804 533.469 637.268 533.469C637.926 531.933 639.462 531.933 640.998 531.933Z" fill="#EAE9EA"/>
<path d="M630.679 533.69C629.802 535.007 628.485 535.227 626.949 535.227C627.607 533.69 629.143 533.69 630.679 533.69Z" fill="#EAE9EA"/>
<path d="M622.12 139.348C622.12 139.348 620.584 138.47 620.145 137.812H622.12V139.348Z" fill="#201F1F"/>
<path d="M635.735 166.559V164.803C637.491 164.803 637.71 166.778 635.735 166.559Z" fill="#EAE9EA"/>
<path d="M617.073 156.245L615.098 154.49C615.098 154.49 616.854 155.148 617.073 156.245Z" fill="#DBDADA"/>
<path d="M605.227 154.269C605.227 154.269 603.472 153.611 603.033 153.172C603.691 153.172 604.788 153.83 605.227 154.269Z" fill="#DBDADA"/>
<path d="M213.958 152.732C213.958 152.732 215.275 151.634 216.153 151.634C215.495 152.073 214.617 152.732 213.958 152.732Z" fill="#201F1F"/>
<path d="M623.877 139.128H621.902V137.592C622.78 137.812 623.438 138.47 623.877 139.128Z" fill="#EAE9EA"/>
<path d="M197.064 482.557C197.064 482.557 195.528 481.679 195.089 481.021H197.064V482.557Z" fill="#201F1F"/>
<path d="M611.812 137.591C611.812 137.591 610.276 136.713 609.837 136.055H611.812V137.591Z" fill="#201F1F"/>
<path d="M246.221 130.348C246.221 130.348 247.757 129.47 248.416 129.47C247.757 129.909 246.88 130.348 246.221 130.348Z" fill="#EAE9EA"/>
<path d="M220.98 484.314C220.98 484.314 219.444 483.436 219.005 482.778C219.663 482.778 220.541 482.778 220.98 482.558V484.314Z" fill="#201F1F"/>
<path d="M249.728 485.852C249.728 485.852 248.192 484.974 247.753 484.535H249.728V485.852Z" fill="#201F1F"/>
<path d="M272.551 487.165C272.551 487.165 270.796 486.945 270.137 486.067H272.551V487.165Z" fill="#201F1F"/>
<path d="M236.117 96.9927H237.873C238.092 98.7482 236.117 98.9677 236.117 96.9927Z" fill="#EAE9EA"/>
<path d="M632.221 496.384L633.757 494.189C633.757 494.189 633.318 496.164 632.221 496.384Z" fill="#EAE9EA"/>
<path d="M169.848 498.58C169.848 498.58 168.751 498.141 168.312 498.141V496.166C168.312 496.166 169.629 497.483 169.848 498.58Z" fill="#201F1F"/>
<path d="M440.203 89.9746H441.958C441.958 91.9496 439.983 91.9496 440.203 89.9746Z" fill="#EAE9EA"/>
<path d="M628.706 499.454L630.681 497.918C630.681 497.918 629.584 499.454 628.706 499.454Z" fill="#EAE9EA"/>
<path d="M239.413 504.722H241.169C241.169 506.697 239.194 506.478 239.413 504.722Z" fill="#DBDADA"/>
<path d="M513.276 125.962C514.367 125.962 515.251 125.078 515.251 123.987C515.251 122.896 514.367 122.012 513.276 122.012C512.186 122.012 511.301 122.896 511.301 123.987C511.301 125.078 512.186 125.962 513.276 125.962Z" fill="#D32823"/>
<path d="M180.386 426.602H178.191L178.411 407.729C183.019 405.974 183.239 420.677 180.386 426.602Z" fill="#DBDADA"/>
<path d="M178.404 402.679H176.648V389.074C180.598 387.757 181.915 396.096 178.404 402.679Z" fill="#DBDADA"/>
<path d="M395.22 487.605H373.934V489.361H395.22V487.605Z" fill="#DBDADA"/>
<path d="M180.378 426.598C179.281 428.793 180.378 432.743 180.159 435.156C177.526 435.595 176.867 434.279 176.428 432.304C175.77 429.67 177.964 427.915 178.184 426.159H180.378V426.598Z" fill="#201F1F"/>
<path d="M178.41 402.682V407.73C176.435 408.388 174.68 407.291 174.899 405.316C174.899 404.438 176.216 403.341 176.655 402.463H178.41V402.682Z" fill="#201F1F"/>
<path d="M161.509 407.729V426.382C154.926 428.138 159.095 414.313 159.314 407.51C160.412 407.51 161.07 407.729 161.509 407.51V407.729Z" fill="#DBDADA"/>
<path d="M163.482 433.403V442.181C160.41 442.619 158.435 440.425 159.532 437.792L161.287 433.403H163.482Z" fill="#DBDADA"/>
<path d="M163.488 433.401H161.294C161.952 431.426 161.294 428.574 161.513 426.599C163.488 426.16 165.902 427.257 165.244 429.232L163.488 433.401Z" fill="#201F1F"/>
</svg>
