<svg width="458" height="458" viewBox="0 0 458 458" fill="none" xmlns="http://www.w3.org/2000/svg">
<path d="M229 436.531C343.616 436.531 436.531 343.616 436.531 229C436.531 114.384 343.616 21.4688 229 21.4688C114.384 21.4688 21.4688 114.384 21.4688 229C21.4688 343.616 114.384 436.531 229 436.531Z" stroke="#FF2D2D" stroke-width="14.3125"/>
<mask id="mask0_338_6903" style="mask-type:luminance" maskUnits="userSpaceOnUse" x="35" y="35" width="388" height="388">
<path d="M229 422.219C335.712 422.219 422.219 335.712 422.219 229C422.219 122.288 335.712 35.7812 229 35.7812C122.288 35.7812 35.7812 122.288 35.7812 229C35.7812 335.712 122.288 422.219 229 422.219Z" fill="white"/>
</mask>
<g mask="url(#mask0_338_6903)">
<path d="M229 250.469C264.571 250.469 293.406 221.633 293.406 186.062C293.406 150.492 264.571 121.656 229 121.656C193.429 121.656 164.594 150.492 164.594 186.062C164.594 221.633 193.429 250.469 229 250.469Z" stroke="#F0F0F0" stroke-width="17.175"/>
<path d="M114.5 386.438C114.5 356.07 126.563 326.947 148.036 305.474C169.509 284.001 198.633 271.938 229 271.938C259.367 271.938 288.491 284.001 309.964 305.474C331.437 326.947 343.5 356.07 343.5 386.438" stroke="#F0F0F0" stroke-width="17.175" stroke-linecap="round"/>
</g>
<path d="M357.812 146.703C375.598 146.703 390.016 132.285 390.016 114.5C390.016 96.7147 375.598 82.2969 357.812 82.2969C340.027 82.2969 325.609 96.7147 325.609 114.5C325.609 132.285 340.027 146.703 357.812 146.703Z" fill="#00D2FF" stroke="#120F10" stroke-width="14.3125"/>
</svg>
