<svg width="475" height="475" viewBox="0 0 475 475" fill="none" xmlns="http://www.w3.org/2000/svg">
<path d="M237.5 452.734C356.371 452.734 452.734 356.371 452.734 237.5C452.734 118.629 356.371 22.2656 237.5 22.2656C118.629 22.2656 22.2656 118.629 22.2656 237.5C22.2656 356.371 118.629 452.734 237.5 452.734Z" stroke="#FF2D2D" stroke-width="14.8438"/>
<mask id="mask0_338_6913" style="mask-type:luminance" maskUnits="userSpaceOnUse" x="37" y="37" width="401" height="401">
<path d="M237.5 437.891C348.173 437.891 437.891 348.173 437.891 237.5C437.891 126.827 348.173 37.1094 237.5 37.1094C126.827 37.1094 37.1094 126.827 37.1094 237.5C37.1094 348.173 126.827 437.891 237.5 437.891Z" fill="white"/>
</mask>
<g mask="url(#mask0_338_6913)">
<path d="M237.5 259.766C274.391 259.766 304.297 229.86 304.297 192.969C304.297 156.078 274.391 126.172 237.5 126.172C200.609 126.172 170.703 156.078 170.703 192.969C170.703 229.86 200.609 259.766 237.5 259.766Z" stroke="#F0F0F0" stroke-width="17.8125"/>
<path d="M118.75 400.781C118.75 369.287 131.261 339.082 153.531 316.812C175.801 294.542 206.006 282.031 237.5 282.031C268.994 282.031 299.199 294.542 321.469 316.812C343.739 339.082 356.25 369.287 356.25 400.781" stroke="#F0F0F0" stroke-width="17.8125" stroke-linecap="round"/>
</g>
</svg>
